<svg id="Layer_1" data-name="Layer 1" xmlns="http://www.w3.org/2000/svg" viewBox="0 0 400 400">
  <defs>
    <style>
      .cls-1 {
        fill: #5b6e7f;
      }
    </style>
  </defs>
  <g>
    <path class="cls-1" d="M30.82,273.2c.9-2.55,2.27-6.57,2.27-6.57s1.45,4.47,1.93,6c1,3.3,2.61,6.89,2.61,6.89H28.28c1-2.27,1.65-3.88,2.54-6.34m-18.3,20.13H22.57l3.37-8.09H40l3.38,8.09H53.66L38.6,259.12H28.21Z"/>
    <path class="cls-1" d="M65.16,259.22H75v22.42c0,2.56.14,3.14.82,4.08,1.12,1.53,3.37,2.37,6.54,2.37,4.2,0,6.88-1.48,7.3-4a15.07,15.07,0,0,0,.14-3V259.22h9.76v23c0,3.24-.06,3.89-.76,5.35-1.24,2.7-5.91,6.43-16.23,6.43-7.29,0-12.59-1.57-15.34-4.56-1.58-1.76-2.06-3.14-2.06-6.43Z"/>
    <path class="cls-1" d="M147.3,261.18,143,265.84a16.09,16.09,0,0,0-7.63-1.92c-3.24,0-6.4,1.14-8.12,3s-2.68,4.8-2.68,8.79c0,4.64.55,7.25,2,9.11,1.92,2.5,5.08,3.83,9.22,3.83a15.8,15.8,0,0,0,7.21-1.67l1-.52,4.41,4.3c-3.79,2.21-7.85,3.19-13.29,3.19-6.6,0-11.69-1.51-15.61-4.71A15,15,0,0,1,113.66,277a17,17,0,0,1,3.23-10.6c3.71-4.95,10.59-7.9,18.3-7.9,4.75,0,9.49,1.08,12.11,2.7"/>
    <polygon class="cls-1" points="161.34 259.22 171.17 259.22 171.17 274.78 184.8 259.22 196.63 259.22 181.35 275.02 198.35 293.33 185.7 293.33 171.17 275.51 171.17 293.33 161.34 293.33 161.34 259.22"/>
    <polygon class="cls-1" points="211.77 259.22 221.6 259.22 221.6 287.64 238.73 287.64 237.01 293.33 211.77 293.33 211.77 259.22"/>
    <path class="cls-1" d="M266.32,273.2c.89-2.55,2.27-6.57,2.27-6.57s1.45,4.47,1.93,6c1,3.3,2.6,6.89,2.6,6.89h-9.35c1-2.27,1.66-3.88,2.55-6.34M248,293.33h10l3.37-8.09h14l3.36,8.09h10.32L274.1,259.12H263.71Z"/>
    <path class="cls-1" d="M301.21,259.22h10.65L321,272.86a55.93,55.93,0,0,1,5.24,9.67c-.35-2.65-.69-7-.76-9.38l-.21-13.93h9.15v34.11h-10l-8.2-13.06c-2.62-4.27-5.57-9.08-6.46-11.18.34,2.79.41,6.81.47,9.66l.28,14.58h-9.28Z"/>
    <path class="cls-1" d="M369,264.81c3.78,0,6,1,7.57,2.85,1.93,2.25,2.41,5.6,2.41,9.58,0,7.2-2.89,10.49-9.23,10.49h-5.15V264.81ZM354.8,293.33h11.63c2.81,0,5.09-.1,6.88-.2a19,19,0,0,0,11.62-4.9,15.71,15.71,0,0,0,4.83-11.64c0-6.14-2.14-10.5-6.55-13.6a20.36,20.36,0,0,0-10.46-3.37c-1.93-.1-5.56-.2-8.32-.2H354.8Z"/>
    <path class="cls-1" d="M21.77,309.33a3.58,3.58,0,0,1,3.06,1.16,5.89,5.89,0,0,1,1,3.9c0,2.94-1.17,4.28-3.73,4.28H20v-9.34ZM16.05,321h4.69c1.14,0,2.06-.05,2.78-.08a7.62,7.62,0,0,0,4.71-2,6.36,6.36,0,0,0,1.95-4.73,6.22,6.22,0,0,0-2.65-5.53,8,8,0,0,0-4.23-1.38c-.78-.05-2.25-.08-3.37-.08H16.05Z"/>
    <rect class="cls-1" x="36.67" y="307.06" width="4.06" height="13.89"/>
    <path class="cls-1" d="M60.82,308,59,310a10.93,10.93,0,0,0-4.52-1c-1.58,0-2.7.66-2.7,1.59,0,.73.54,1.08,2.15,1.4l2.34.47c3.17.61,4.89,2.08,4.89,4.13,0,2.82-3.16,4.67-8,4.67a18.18,18.18,0,0,1-6.6-1.25L48,317.81a14.36,14.36,0,0,0,5.32,1.12c2.23,0,3.4-.65,3.4-1.9,0-.9-.81-1.48-2.53-1.8l-2.14-.42c-1.92-.37-3.13-.91-3.82-1.76a3.23,3.23,0,0,1-.8-2.11c0-2.56,2.83-4.3,6.93-4.3A14.64,14.64,0,0,1,60.82,308"/>
    <polygon class="cls-1" points="66 307.06 79.94 307.06 79.3 309.38 74.68 309.38 74.68 320.94 70.72 320.94 70.72 309.38 66 309.38 66 307.06"/>
    <path class="cls-1" d="M90.26,309.28a10.3,10.3,0,0,1,2.21.21,1.67,1.67,0,0,1,1.38,1.71l-.74,1.4a5.64,5.64,0,0,1-2.93.46H88.87l0-3.78ZM85.06,321h3.81v-5.79l.61.11c.67.23,1.29.91,3.2,3.4.76,1,1.07,1.36,1.82,2.28h4.58s-3.53-4.4-4.64-5.4l-.81-.58a4.13,4.13,0,0,0,4.31-3.85c0-2.44-2.24-4.06-5.67-4.06l-7.21,0Z"/>
    <rect class="cls-1" x="104.82" y="307.06" width="4.07" height="13.89"/>
    <path class="cls-1" d="M128.89,307.85l-1.75,1.9a6.47,6.47,0,0,0-3.09-.78,4.69,4.69,0,0,0-3.29,1.2,5,5,0,0,0-1.08,3.58c0,1.9.22,3,.8,3.72a4.51,4.51,0,0,0,3.74,1.56,6.42,6.42,0,0,0,2.92-.68l.39-.22,1.79,1.76a10.17,10.17,0,0,1-5.38,1.29,9.63,9.63,0,0,1-6.32-1.91,6.11,6.11,0,0,1-2.34-5,7,7,0,0,1,1.31-4.33,9.21,9.21,0,0,1,7.41-3.21,10.11,10.11,0,0,1,4.89,1.1"/>
    <polygon class="cls-1" points="133.12 307.06 147.06 307.06 146.43 309.38 141.81 309.38 141.81 320.94 137.85 320.94 137.85 309.38 133.12 309.38 133.12 307.06"/>
    <polygon class="cls-1" points="165.3 307.06 169.16 307.06 169.16 312.45 174.73 312.45 174.73 307.06 178.68 307.06 178.68 320.94 174.73 320.94 174.73 314.75 169.16 314.75 169.16 320.94 165.3 320.94 165.3 307.06"/>
    <polygon class="cls-1" points="186.23 307.06 197.24 307.06 196.74 309.33 190.12 309.33 190.12 312.55 195.66 312.55 195.66 314.83 190.18 314.83 190.18 318.54 197.5 318.54 197.5 320.94 186.23 320.94 186.23 307.06"/>
    <path class="cls-1" d="M208.91,312.75l.92-2.68s.58,1.81.77,2.45c.42,1.36,1.06,2.81,1.06,2.81h-3.78a27.73,27.73,0,0,0,1-2.58m-7.4,8.2h4.06l1.37-3.3h5.68L214,321h4.17L212.06,307h-4.21Z"/>
    <polygon class="cls-1" points="223.41 307.06 227.39 307.06 227.39 318.63 234.32 318.63 233.62 320.94 223.41 320.94 223.41 307.06"/>
    <polygon class="cls-1" points="236.52 307.06 250.47 307.06 249.83 309.38 245.2 309.38 245.2 320.94 241.25 320.94 241.25 309.38 236.52 309.38 236.52 307.06"/>
    <polygon class="cls-1" points="255.8 307.06 259.67 307.06 259.67 312.45 265.24 312.45 265.24 307.06 269.18 307.06 269.18 320.94 265.24 320.94 265.24 314.75 259.67 314.75 259.67 320.94 255.8 320.94 255.8 307.06"/>
    <path class="cls-1" d="M290.58,309.42a5.06,5.06,0,0,1,1.62.18,1.57,1.57,0,0,1,1.11,1.4l-1,1.44a4.6,4.6,0,0,1-1.68.18h-2.3v-3.2ZM284.48,321h6.1c1.05,0,1.86,0,2.48-.05,3.39-.15,5.06-1.91,5.06-3.83s-1.25-2.93-3.84-3.5a4.19,4.19,0,0,0,1.78-.71,2.75,2.75,0,0,0-.27-4.83c-1.17-.73-2.41-1-4.76-1h-6.55Zm6.32-6a5.5,5.5,0,0,1,1.5.12,1.81,1.81,0,0,1,1.42,1.69,1.92,1.92,0,0,1-1,1.63,4.07,4.07,0,0,1-1.82.32h-2.53v-3.76Z"/>
    <path class="cls-1" d="M315.07,310.8a8.07,8.07,0,0,1,.5,3.21c0,3.54-1.14,5-3.84,5a5,5,0,0,1-2.31-.48c-1.13-.62-1.73-2.1-1.73-4.5a6.19,6.19,0,0,1,1-3.79,3.71,3.71,0,0,1,3-1.22,3.48,3.48,0,0,1,3.4,1.76m-7.35-3.25a7.06,7.06,0,0,0-2.14,11.66c1.47,1.38,3.37,2,6.29,2a9.78,9.78,0,0,0,3.87-.64,6.66,6.66,0,0,0,4.31-6.6c0-4.35-3.17-7.06-8.32-7.06a11.43,11.43,0,0,0-4,.68"/>
    <path class="cls-1" d="M330.76,312.75c.37-1,.93-2.68.93-2.68s.59,1.81.78,2.45a28.54,28.54,0,0,0,1,2.81h-3.78a27.72,27.72,0,0,0,1-2.58m-7.4,8.2h4.07l1.37-3.3h5.67l1.37,3.3H340L333.91,307h-4.2Z"/>
    <path class="cls-1" d="M350.13,309.28a10.15,10.15,0,0,1,2.21.21,1.68,1.68,0,0,1,1.38,1.71l-.74,1.4a5.64,5.64,0,0,1-2.93.46h-1.3l0-3.78ZM344.93,321h3.82v-5.8l.62.12c.65.23,1.27.9,3.19,3.4.76,1,1.06,1.36,1.8,2.28H359s-3.54-4.4-4.64-5.4l-.81-.58a4.14,4.14,0,0,0,4.31-3.85c0-2.44-2.26-4.06-5.68-4.06l-7.21,0Z"/>
    <path class="cls-1" d="M370.31,309.33a3.61,3.61,0,0,1,3.07,1.16,5.94,5.94,0,0,1,1,3.9c0,2.94-1.18,4.28-3.74,4.28h-2.08v-9.34ZM364.59,321h4.69c1.15,0,2.07-.05,2.8-.08a7.57,7.57,0,0,0,4.69-2,6.39,6.39,0,0,0,1.94-4.73,6.22,6.22,0,0,0-2.64-5.53,7.92,7.92,0,0,0-4.23-1.38c-.77-.05-2.24-.08-3.36-.08h-3.89Z"/>
    <path class="cls-1" d="M32,342.72A3,3,0,0,0,34.2,342h.59c-.33,1.25-.68,3.46-.93,5.24l-1.07.08c0-1.51-.25-2.37-.8-2.85s-1.87-.73-4.47-.73H24.64l-3.86,14.33c-.91,3.28-.6,3.49,3.6,3.68l-.2.69H12l.21-.69c4-.19,4.34-.4,5.23-3.68l3.86-14.33H19.37c-3.78,0-5,.34-5.82.91a10,10,0,0,0-2.25,2.67H10.24c.71-1.86,1.48-3.79,2-5.32h.62c.42.67.84.74,2,.74Z"/>
    <path class="cls-1" d="M44.44,355.81c.77-3.36,2.8-4.89,4.12-5.39l1.48-.27c.91,0,2.14.37,2.14,1.48,0,1.64-1.82,2.93-7.74,4.18m9.31,2.91a11.61,11.61,0,0,1-6.41,2.36c-2.78,0-3.24-2.06-3.24-3.63l.13-.72c4.09-.85,11.26-2.79,11.26-5.55,0-1.25-1.4-2.26-3.57-2.26a14.61,14.61,0,0,0-6.24,1.84,9.12,9.12,0,0,0-4.93,7.6,4.15,4.15,0,0,0,4.39,4.42c1.43,0,5-.35,9.24-3.44Z"/>
    <path class="cls-1" d="M111.24,342.72a3,3,0,0,0,2.2-.74h.6a51.86,51.86,0,0,0-.93,5.24l-1.07.08c0-1.51-.25-2.37-.8-2.85s-1.88-.73-4.47-.73h-2.88L100,358.05c-.9,3.28-.6,3.49,3.61,3.68l-.22.69H91.23l.21-.69c4-.19,4.33-.4,5.22-3.68l3.87-14.33H98.61c-3.78,0-5,.34-5.82.91a10.75,10.75,0,0,0-2.25,2.67H89.48c.72-1.86,1.49-3.79,2-5.32h.59c.43.67.86.74,2,.74Z"/>
    <path class="cls-1" d="M123.49,357.58a7.74,7.74,0,0,1,4.49-7.31l1.41-.24c2.11,0,3.35,1.16,3.35,3.47.09,3.95-2.8,7.52-4.59,7.94l-1.3.23c-2.38,0-3.36-1.83-3.36-4.09m7.25-8.66a12.83,12.83,0,0,0-4.58,1.09c-2.93,1.22-6.13,4.05-6.13,8.29,0,2.12,1.42,4.48,5.36,4.48a13.08,13.08,0,0,0,6.34-2,9.57,9.57,0,0,0,4.45-7.62c0-2.51-1.86-4.2-5.44-4.2"/>
    <path class="cls-1" d="M166.45,360.37c-2,2-3.45,2.41-4.34,2.41s-1.83-.3-3-2a58.25,58.25,0,0,1-3.1-5.48c-1.62,1.24-1.95,1.65-2.33,2.89a25.91,25.91,0,0,0-.93,3.78l-3.37.81c.52-1.55,1-3.14,1.46-4.73,1.43-4.73,2.79-9.41,4.07-13.83.38-1.33.28-1.53-1-1.53h-2.17v-.54c3.27-.52,6.24-1.24,6.67-1.24s.43.51.22,1.24l-4,13.15h.08c1-.9,1.83-1.51,2.64-2.16,2.72-2.06,6.08-4.22,7.78-4.22,1.44,0,1.91.5,1.91.83s-.9,1.46-1.5,1.33a5.9,5.9,0,0,0-1.3-.09,5.46,5.46,0,0,0-2.31.49,18.39,18.39,0,0,0-3.73,2.12,35.41,35.41,0,0,0,3.77,6.28c.66.72,1.07,1,1.54,1a3.83,3.83,0,0,0,2.26-1Z"/>
    <path class="cls-1" d="M189.73,350.18a11,11,0,0,1,2.94.33,18.46,18.46,0,0,1-1.67,5.06,18.66,18.66,0,0,1-3.28,3,10.41,10.41,0,0,1-4.07,2.16c-.81,0-1.15-.82-1.15-2a9.87,9.87,0,0,1,1.53-5,7.84,7.84,0,0,1,3.87-3.3,6.05,6.05,0,0,1,1.83-.29m.12,10.82c-.42,1.46.38,1.78.9,1.78A20.26,20.26,0,0,0,197,359.9l-.46-.59a16.88,16.88,0,0,1-3.2,1.43c-.38,0-.28-.41-.08-1.35.8-3.46,1.88-6.88,2.81-10l-.21-.12-1.66-.18a16.24,16.24,0,0,0-2.26-.2,17.13,17.13,0,0,0-8.27,2.53,10.2,10.2,0,0,0-4.67,8.11c0,2.62,1.51,3.22,2.45,3.22a12.85,12.85,0,0,0,3.56-1.42,35.79,35.79,0,0,0,5.83-4.25H191Z"/>
    <path class="cls-1" d="M253.59,342.72a3,3,0,0,0,2.19-.74h.61c-.34,1.25-.68,3.46-.94,5.24l-1.06.08c0-1.51-.25-2.37-.8-2.85s-1.88-.73-4.47-.73h-2.88l-3.87,14.33c-.9,3.28-.59,3.49,3.61,3.68l-.21.69h-12.2l.22-.69c3.94-.19,4.33-.4,5.24-3.68l3.85-14.33H241c-3.79,0-5,.34-5.83.91a10.77,10.77,0,0,0-2.24,2.67h-1.07c.73-1.86,1.48-3.79,2-5.32h.6c.41.67.84.74,2,.74Z"/>
    <path class="cls-1" d="M280.57,348.92H281l-3.24,10.48c-.29.94-.41,1.26,0,1.26a13.39,13.39,0,0,0,3.2-1.35l.51.59a20.63,20.63,0,0,1-6.26,2.88c-.93,0-1.17-.75-.68-2.36l1.2-3.88h-.14a27.41,27.41,0,0,1-6.95,5.2,8.9,8.9,0,0,1-3.49,1c-.53,0-2.17-.42-1.15-3.63l2-6.33c.4-1.16.56-1.7.16-1.7a9.74,9.74,0,0,0-3.17,1.51l-.47-.61c2.35-1.69,5.31-3.1,6.26-3.1,1.14,0,1.17.74.8,1.92l-2.25,7.25c-.57,1.81-.69,2.79.41,2.79,2.21,0,7.62-5,8.59-6.58a28.24,28.24,0,0,0,1.48-4.57Z"/>
    <path class="cls-1" d="M324.81,359.91a21.09,21.09,0,0,1-6.3,2.88c-1.06,0-1.31-.76-.72-2.38l2.59-7.23c.52-1.38.68-2.36-.6-2.36-2.2,0-7.13,3.9-8.41,5.6-.38,1.16-1.39,3.87-1.74,5.56l-3.39.81c.59-1.68,1.14-3.34,1.69-5l1.66-5c.39-1.2.47-2-.59-2-2.26,0-7,3.9-8.41,5.57a32.21,32.21,0,0,0-1.67,5.59l-3.34.81c.55-1.62.92-3,1.56-5l1.61-5c.39-1.16.51-1.7.17-1.7a9.45,9.45,0,0,0-3.18,1.52l-.46-.62c2.32-1.68,5.35-3.1,6.32-3.1,1.15,0,1,1,.48,2.71l-.95,2.78h.13a25.25,25.25,0,0,1,8.21-5.05,8,8,0,0,1,2.12-.44c.68,0,2,.3,1.15,3l-.85,2.55H312a25.31,25.31,0,0,1,8.63-5.24,6.72,6.72,0,0,1,2-.35c.64,0,2.13.3,1.06,3.32-.76,2.2-1.65,4.67-2.46,7.15-.29.94-.37,1.26-.08,1.26a14.22,14.22,0,0,0,3.22-1.34Z"/>
    <path class="cls-1" d="M348.94,350.18a11,11,0,0,1,2.94.33,19.53,19.53,0,0,1-1.67,5.06,18.31,18.31,0,0,1-3.28,3,10.41,10.41,0,0,1-4.07,2.16c-.82,0-1.16-.82-1.16-2a9.8,9.8,0,0,1,1.54-5,7.88,7.88,0,0,1,3.87-3.3,6.1,6.1,0,0,1,1.83-.29m.13,10.82c-.43,1.46.38,1.78.88,1.78a20.41,20.41,0,0,0,6.3-2.88l-.47-.59a17.17,17.17,0,0,1-3.19,1.43c-.38,0-.3-.41-.08-1.35.81-3.46,1.87-6.88,2.78-10l-.19-.12-1.65-.18a16.37,16.37,0,0,0-2.26-.2,17.17,17.17,0,0,0-8.29,2.53,10.2,10.2,0,0,0-4.67,8.11c0,2.62,1.53,3.22,2.46,3.22a13.16,13.16,0,0,0,3.57-1.42,35.29,35.29,0,0,0,5.82-4.25h.08Z"/>
    <path class="cls-1" d="M376.46,344.76c1.37,0,2.31-.83,2.25-1.77,0-.59-.59-1.23-1.78-1.23-1.57,0-2.42,1-2.34,1.85,0,.65.77,1.15,1.87,1.15m1.07,14.14a14.72,14.72,0,0,1-3.49,1.64c-.33,0-.28-.36,0-1.09l2.89-8.33c.37-1.17.83-2.2-.31-2.2-1,0-4.72,1.41-7.19,3.1l.48.61a12.29,12.29,0,0,1,3.51-1.48c.37,0,.37.24,0,1.4L370.52,361c-.52,1.46.12,1.82.81,1.82,1.26,0,5.38-2.33,6.7-3.27Z"/>
    <path class="cls-1" d="M169.13,227.14S126,196,175.46,156.26c29.36-23.63,85.4-22,85.4-22l-18.69-27.56s-12,.9-13.4,3.18c0,0-.42,14.22-20.9,17.56-22.67,3.68-30.94-15.64-16.48-27s39.34-11,39.34-11L195.34,37.21,68.39,227.14Z"/>
    <path class="cls-1" d="M227.64,227.14H323.2l-50.91-75.88s-43.49-1.84-61.58,21.36c-23.05,29.53,16.93,54.52,16.93,54.52"/>
  </g>
</svg>
