<svg id="Layer_1" data-name="Layer 1" xmlns="http://www.w3.org/2000/svg" viewBox="0 0 400 400">
  <defs>
    <style>
      .cls-1 {
        fill: #5b6e7f;
      }
    </style>
  </defs>
  <g>
    <g>
      <path class="cls-1" d="M79.09,236.23h1.25l.07.74V277.3l.15.14.82.19a11.51,11.51,0,0,0,2.69,0l.82-.19.16-.07V234.72l-.16-1-.4-.61-.54-.32-.79-.13h-4l-1.38.17-1,.5-.87,1a8.9,8.9,0,0,0-.8,1.69L61.27,270H60.09L46.74,236a8.21,8.21,0,0,0-.7-1.56l-.89-1-1.26-.54a7.67,7.67,0,0,0-1.84-.2H38.29l-1.32.48a2,2,0,0,0-.51,1.56V277.3l.11.14.8.19a12.73,12.73,0,0,0,2.76,0l.81-.19.15-.07V236.23h1.26l.23.47,15.51,40.52.37.27.73.15a10.86,10.86,0,0,0,2.35,0l.72-.13.31-.16.11-.16"/>
      <path class="cls-1" d="M105.26,265.32h20.2l4.11,11.77.21.34.16.08.8.14a23.69,23.69,0,0,0,3.37,0l.55-.15-.25-1.18-15.45-43-.24-.41-.39-.2-1-.17a29.86,29.86,0,0,0-3.54,0l-1,.17-.35.19-.23.39-15.44,43-.25,1v.18l.5.14a18.31,18.31,0,0,0,3.14,0l.73-.18.24-.17.16-.35m23.08-15h-18.1l8.44-24.57h1.09Z"/>
      <path class="cls-1" d="M148,232.68l-1.32.46a1.68,1.68,0,0,0-.51,1.44v42.73l.15.13.78.18a11.42,11.42,0,0,0,2.74,0l.81-.18.14-.06v-28c0-1.77,0-3.55,0-5.32s-.07-3.53-.11-5.25V238h1.23l.28.45c.62,1.39,1.33,2.83,2.06,4.31s1.48,2.91,2.21,4.27l14.06,26.33a15.73,15.73,0,0,0,1.31,2.21l1.15,1.27,1.09.57a5.48,5.48,0,0,0,1.49.18h2l.75-.12.59-.32.43-.57.17-.89V233l-.21-.15-.72-.18a15.06,15.06,0,0,0-2.77,0l-.71.18-.21.12v25.16c0,1.89,0,3.85,0,5.89s0,4,.08,5.87l0,.76h-1.24l-.24-.41c-.54-1.12-1.09-2.24-1.67-3.35s-1.11-2.23-1.69-3.37-1.17-2.3-1.79-3.49-1.25-2.39-1.92-3.62L155.64,236a13.85,13.85,0,0,0-1-1.76l-.94-1-1-.48a6.94,6.94,0,0,0-1.6-.15"/>
      <path class="cls-1" d="M197.47,232.46a8.19,8.19,0,0,0-1.37.09l-.79.18-.14.05V261.6a20.62,20.62,0,0,0,1.15,7.25,13.79,13.79,0,0,0,3.27,5.15,14.3,14.3,0,0,0,5.11,3.11,20.25,20.25,0,0,0,6.7,1.05,21.2,21.2,0,0,0,7.17-1.12,14.13,14.13,0,0,0,5.29-3.31,14.76,14.76,0,0,0,3.32-5.32,20.78,20.78,0,0,0,1.18-7.28V232.86l-.17-.14-.78-.17a10.1,10.1,0,0,0-2.69,0l-.81.18-.14.05v28.39a18.1,18.1,0,0,1-.81,5.68,11.35,11.35,0,0,1-2.35,4.16,9.91,9.91,0,0,1-3.81,2.56,14.13,14.13,0,0,1-5,.84,13.76,13.76,0,0,1-4.94-.86A10.12,10.12,0,0,1,203,271a11.38,11.38,0,0,1-2.43-4.26,19.41,19.41,0,0,1-.81-5.85v-28l-.14-.14-.8-.17Z"/>
      <path class="cls-1" d="M249.73,253.8l16.87,23.06.48.48.84.27a18.78,18.78,0,0,0,1.93.1,9.47,9.47,0,0,0,1.45-.09l.8-.18.13-.21-.07-.29a6,6,0,0,0-.66-1.12l-16.75-22.41,15.64-18.81a6.58,6.58,0,0,0,.76-1.14l.15-.6-.12-.14-.74-.18a14.52,14.52,0,0,0-2.8,0l-.87.17-.46.23-.32.35m-18.56-.8-1.34.07-.82.18-.14.07,0,44.51.16.14.82.18a11.25,11.25,0,0,0,2.72,0l.79-.18.16-.14V232.86l-.16-.14-.79-.18Z"/>
      <path class="cls-1" d="M290.75,265.32H311l4.13,11.77.19.34.16.08.8.14a23.69,23.69,0,0,0,3.37,0l.55-.16-.25-1.17-15.44-43-.24-.41-.4-.2-1-.17a29.69,29.69,0,0,0-3.53,0l-1,.17-.36.19-.22.39-15.44,43a3.11,3.11,0,0,0-.25,1l0,.18.5.14a18.3,18.3,0,0,0,3.14,0l.72-.18.24-.17.17-.34m23.07-15H291.76l8.45-24.57h1.1Z"/>
      <path class="cls-1" d="M332.11,232.46a8.54,8.54,0,0,0-1.39.09l-.78.18-.14.07v28.8a20.43,20.43,0,0,0,1.16,7.25,13.65,13.65,0,0,0,3.26,5.15,14.36,14.36,0,0,0,5.11,3.11,20.21,20.21,0,0,0,6.7,1.05,21.35,21.35,0,0,0,7.18-1.12,14.17,14.17,0,0,0,5.28-3.31,14.55,14.55,0,0,0,3.33-5.32,21.1,21.1,0,0,0,1.17-7.28V232.86l-.17-.14-.78-.17a10.09,10.09,0,0,0-2.69,0l-.81.18-.14.07v28.37a17.82,17.82,0,0,1-.81,5.68,11.35,11.35,0,0,1-2.35,4.16,9.91,9.91,0,0,1-3.81,2.56,14.11,14.11,0,0,1-5,.84,13.81,13.81,0,0,1-4.95-.86,10.2,10.2,0,0,1-3.84-2.59,11.52,11.52,0,0,1-2.43-4.26,19.41,19.41,0,0,1-.81-5.85v-28l-.14-.14-.8-.17Z"/>
      <path class="cls-1" d="M55.85,217.73l0,.59-.07.46-.14.33-.3.37-.88.64a10.57,10.57,0,0,1-1.69.86,13.74,13.74,0,0,1-2.31.7,12.16,12.16,0,0,1-2.85.3,12.68,12.68,0,0,1-4.84-.9,10,10,0,0,1-3.67-2.65,11.91,11.91,0,0,1-2.32-4.32,19.26,19.26,0,0,1-.83-5.91,19.73,19.73,0,0,1,.88-6.12,13.82,13.82,0,0,1,2.48-4.57,10.65,10.65,0,0,1,3.81-2.84,12.08,12.08,0,0,1,4.92-1,12.74,12.74,0,0,1,2.31.23,16.37,16.37,0,0,1,2.07.56,8.94,8.94,0,0,1,1.7.81l1,.72.37.44.15.35.08.48,0,.66-.05.74-.13.49-.19.3-.29.1-.83-.42c-.36-.27-.81-.58-1.37-.93a13,13,0,0,0-2.06-.91,9.35,9.35,0,0,0-2.88-.4,7.56,7.56,0,0,0-3.33.72A7.26,7.26,0,0,0,42,199.79a10.81,10.81,0,0,0-1.64,3.5,17.1,17.1,0,0,0-.59,4.7,17.9,17.9,0,0,0,.56,4.63A9.94,9.94,0,0,0,42,216a6.63,6.63,0,0,0,2.6,2,8.32,8.32,0,0,0,3.46.69,8.73,8.73,0,0,0,2.89-.41,11,11,0,0,0,2.08-.9c.58-.33,1-.64,1.42-.9l.88-.41.25.06.17.25.1.5Z"/>
      <path class="cls-1" d="M104.94,207.51a21.37,21.37,0,0,1-.79,6.05,12.62,12.62,0,0,1-2.34,4.56A10.17,10.17,0,0,1,97.9,221a14,14,0,0,1-5.5,1,14.21,14.21,0,0,1-5.36-.92,9.34,9.34,0,0,1-3.73-2.71,11.62,11.62,0,0,1-2.2-4.39A22.94,22.94,0,0,1,80.4,208a20.74,20.74,0,0,1,.78-5.92,12.27,12.27,0,0,1,2.35-4.53,10.45,10.45,0,0,1,3.92-2.89,14.11,14.11,0,0,1,5.51-1,14,14,0,0,1,5.27.91,9.52,9.52,0,0,1,3.74,2.68,11,11,0,0,1,2.23,4.35,21.83,21.83,0,0,1,.74,5.94m-3.87.26a23,23,0,0,0-.4-4.37,10.29,10.29,0,0,0-1.39-3.49,6.75,6.75,0,0,0-2.58-2.33,8.68,8.68,0,0,0-4-.83,8.23,8.23,0,0,0-4,.91,7.46,7.46,0,0,0-2.6,2.39,9.79,9.79,0,0,0-1.45,3.49,19.49,19.49,0,0,0-.43,4.18,23.14,23.14,0,0,0,.39,4.48A10.5,10.5,0,0,0,86,215.74a6.47,6.47,0,0,0,2.56,2.3,8.67,8.67,0,0,0,4,.82,8.17,8.17,0,0,0,4-.9,7.15,7.15,0,0,0,2.62-2.41,10.28,10.28,0,0,0,1.43-3.53,21.5,21.5,0,0,0,.41-4.25"/>
      <path class="cls-1" d="M152.51,211.44a12.62,12.62,0,0,1-.74,4.49,9.27,9.27,0,0,1-2.08,3.34,8.74,8.74,0,0,1-3.31,2.07,13.28,13.28,0,0,1-4.43.7,12.36,12.36,0,0,1-4.14-.66,8.48,8.48,0,0,1-3.21-2,8.71,8.71,0,0,1-2.06-3.22,12.84,12.84,0,0,1-.71-4.48V194.59l.08-.3.29-.21.56-.13.89,0,.87,0,.55.13.3.21.08.3v16.68a11.21,11.21,0,0,0,.46,3.35,6.56,6.56,0,0,0,1.35,2.38,5.58,5.58,0,0,0,2.12,1.42,7.53,7.53,0,0,0,2.79.49,8,8,0,0,0,2.83-.47,5.45,5.45,0,0,0,2.12-1.41,6.3,6.3,0,0,0,1.29-2.32,10,10,0,0,0,.47-3.24V194.59l.08-.3.3-.21.56-.13.88,0,.87,0,.54.13.3.21.1.3"/>
      <path class="cls-1" d="M201.54,220.12l-.14.73-.37.48-.53.29-.56.08h-1.21l-1-.11-.81-.42-.77-.85-.81-1.37L187,203.26c-.43-.83-.88-1.67-1.32-2.56s-.87-1.76-1.25-2.6h0c0,1,0,2.07.06,3.14s0,2.13,0,3.18v16.66l-.09.3-.31.21-.55.12-.88.06-.9-.06-.55-.12-.28-.21-.1-.3V195.6a1.41,1.41,0,0,1,.49-1.2l1.05-.37h1.79l1.07.11.76.36.66.67.67,1.1,6.43,12.12c.4.73.77,1.46,1.16,2.15s.72,1.41,1.06,2.09.69,1.37,1,2,.68,1.34,1,2h0c0-1.12,0-2.29-.06-3.5V194.65l.09-.28.29-.23.56-.14.91,0,.85,0,.56.14.3.23.08.28"/>
    </g>
    <polygon class="cls-1" points="247.66 195.61 247.61 196.31 247.47 196.79 247.25 197.06 246.94 197.14 239.22 197.14 239.22 221.08 239.13 221.37 238.84 221.59 238.27 221.72 237.39 221.77 236.53 221.72 235.95 221.59 235.64 221.37 235.56 221.08 235.56 197.14 227.84 197.14 227.53 197.06 227.31 196.79 227.17 196.31 227.13 195.61 227.17 194.9 227.31 194.4 227.53 194.11 227.84 194.03 246.94 194.03 247.25 194.11 247.47 194.4 247.61 194.9 247.66 195.61"/>
    <polygon class="cls-1" points="274.22 193.96 273.65 194.09 273.32 194.28 273.24 194.59 273.24 221.08 273.32 221.37 273.62 221.58 274.18 221.72 275.07 221.75 275.93 221.72 276.5 221.58 276.8 221.37 276.88 221.08 276.88 194.59 276.8 194.28 276.5 194.09 275.93 193.96 275.07 193.9 274.22 193.96"/>
    <polygon class="cls-1" points="320.54 220.12 320.5 220.79 320.34 221.28 320.1 221.55 319.8 221.64 306.62 221.64 305.7 221.3 305.26 220.15 305.26 195.52 305.7 194.37 306.62 194.03 319.64 194.03 319.95 194.11 320.18 194.4 320.32 194.87 320.38 195.59 320.32 196.26 320.18 196.73 319.95 197 319.64 197.08 308.91 197.08 308.91 205.74 318.12 205.74 318.43 205.84 318.66 206.11 318.79 206.57 318.84 207.28 318.79 207.95 318.66 208.39 318.43 208.63 318.12 208.72 308.91 208.72 308.91 218.59 319.8 218.59 320.1 218.67 320.34 218.94 320.5 219.41 320.54 220.12"/>
    <g>
      <path class="cls-1" d="M362.91,213.89a7.88,7.88,0,0,1-.72,3.45,7.49,7.49,0,0,1-2,2.58,8.74,8.74,0,0,1-3,1.59,12.39,12.39,0,0,1-3.68.54,13.47,13.47,0,0,1-2.55-.24,12.08,12.08,0,0,1-2.1-.59,11.06,11.06,0,0,1-1.55-.69l-.87-.63-.36-.65L346,218.2l0-.78.13-.5.21-.27.3-.07.83.37c.37.23.83.5,1.39.78a13.42,13.42,0,0,0,2.06.81,9.62,9.62,0,0,0,2.76.36,6.84,6.84,0,0,0,2.18-.32,5,5,0,0,0,1.69-.9,3.75,3.75,0,0,0,1.09-1.44,4.67,4.67,0,0,0,.39-1.94,3.73,3.73,0,0,0-.54-2,5.2,5.2,0,0,0-1.4-1.45,12.62,12.62,0,0,0-2-1.15l-2.29-1.07a21.3,21.3,0,0,1-2.26-1.21,8.88,8.88,0,0,1-2-1.55,7.2,7.2,0,0,1-1.42-2.1,6.89,6.89,0,0,1-.54-2.9,7.48,7.48,0,0,1,.62-3.09,6.69,6.69,0,0,1,1.74-2.26,7.65,7.65,0,0,1,2.66-1.39,10.75,10.75,0,0,1,3.32-.48,11.7,11.7,0,0,1,1.84.15,14.58,14.58,0,0,1,1.73.43l1.45.61.85.53.25.3.11.32.07.43v.66l0,.68-.09.51-.18.3-.27.09-.73-.3-1.22-.67a10.16,10.16,0,0,0-1.7-.69,8,8,0,0,0-2.21-.3,6.3,6.3,0,0,0-2,.3,4.16,4.16,0,0,0-1.4.83l-.83,1.21-.27,1.5a3.61,3.61,0,0,0,.53,2,5.94,5.94,0,0,0,1.41,1.47,13.18,13.18,0,0,0,2,1.18l2.3,1.07c.77.36,1.54.77,2.28,1.2a9.34,9.34,0,0,1,2,1.53,6.82,6.82,0,0,1,2,4.94"/>
      <path class="cls-1" d="M94.94,319.71l-.66-.15-1-.06-1,.06-.64.15-.5.37-.14.53v11.3H78.53v-11.3l-.14-.53-.51-.37-.65-.15a8.2,8.2,0,0,0-2,0l-.67.15-.5.37-.14.53v28l.14.53.5.35.67.15a7.22,7.22,0,0,0,2,0l.66-.15.51-.35.14-.53V336.05H91v12.58l.15.53.49.35.64.15,1,.06,1-.06.66-.15.5-.35.16-.53v-28l-.16-.53Z"/>
      <path class="cls-1" d="M141.51,346.17l-.38-.4-.53-.15H129.48v-9.71h9.36l.51-.11.39-.41.18-.61L140,334l-.05-.79-.18-.63-.37-.41-.53-.15h-9.36v-8.43h11l.52-.15.39-.44.17-.59.05-.77-.05-.83-.17-.59-.39-.45-.52-.16H126.67l-1.2.43a1.79,1.79,0,0,0-.61,1.53v26.05a1.77,1.77,0,0,0,.61,1.52l1.2.43H140.6l.52-.15.39-.42.21-.64.05-.75-.05-.82Z"/>
      <path class="cls-1" d="M183.37,320.59l-.32-.56-.61-.35-.85-.14a15.36,15.36,0,0,0-2.35,0l-.81.14-.58.35-.32.52-9.74,27.14-.22.91.28.77.79.3,1.12.06,1.06-.06.72-.17.46-.36.24-.46,2.29-6.77h11.55l2.41,6.88.24.42.48.35.72.13,1.15,0,1.15-.06.8-.28.29-.76-.21-.91m-8.3-9.64h-9.06L180.24,325Z"/>
      <path class="cls-1" d="M235.39,346.07l-.36-.42-.56-.17h-10V320.6l-.16-.52-.5-.37-.66-.15a9.17,9.17,0,0,0-2,0l-.66.15-.51.37-.15.52v27a1.83,1.83,0,0,0,.61,1.54l1.19.42h12.84l.56-.17.38-.46.17-.62,0-.82,0-.81Z"/>
    </g>
    <polygon class="cls-1" points="256.77 319.63 256.26 319.78 255.88 320.26 255.7 320.86 255.64 321.67 255.7 322.48 255.88 323.09 256.25 323.53 256.77 323.67 264.57 323.67 264.57 348.63 264.73 349.14 265.22 349.51 265.9 349.67 266.87 349.72 267.87 349.67 268.52 349.51 269.03 349.14 269.18 348.63 269.18 323.67 276.98 323.67 277.48 323.53 277.87 323.11 278.06 322.48 278.11 321.67 278.06 320.87 277.87 320.22 277.5 319.78 276.98 319.63 256.77 319.63"/>
    <polygon class="cls-1" points="322.78 319.57 322.12 319.71 321.64 320.08 321.48 320.59 321.48 331.92 308.99 331.92 308.99 320.59 308.85 320.08 308.35 319.71 307.69 319.57 305.73 319.57 305.04 319.71 304.55 320.08 304.4 320.59 304.4 348.63 304.55 349.17 305.04 349.52 305.73 349.67 307.68 349.67 308.35 349.52 308.84 349.17 308.99 348.63 308.99 336.05 321.48 336.05 321.48 348.63 321.62 349.15 322.12 349.52 322.78 349.67 323.77 349.73 324.74 349.67 325.4 349.52 325.9 349.17 326.06 348.63 326.06 320.59 325.9 320.08 325.4 319.71 324.74 319.57 323.77 319.5 322.78 319.57"/>
    <polygon class="cls-1" points="37.08 297.9 36.35 298.65 37.08 299.4 362.99 299.4 363.72 298.65 362.99 297.9 37.08 297.9"/>
    <polygon class="cls-1" points="241 138.85 242.58 139.86 247.12 136.38 245.53 135.37 241 138.85"/>
    <polygon class="cls-1" points="238.2 137.06 239.79 138.08 244.32 134.61 242.73 133.59 238.2 137.06"/>
    <g>
      <path class="cls-1" d="M251.35,139.1l-3-1.95-4.54,3.48,4.69,3,1.43.41a2.65,2.65,0,0,0,2.27-1.25,2.69,2.69,0,0,0-.83-3.7"/>
      <path class="cls-1" d="M241.54,132.83,155.26,77.72a2.68,2.68,0,0,0-2.87,4.53l84.61,54"/>
    </g>
    <polygon class="cls-1" points="259.07 134.75 260.76 135.7 265.02 132.42 263.33 131.51 259.07 134.75"/>
    <polygon class="cls-1" points="256.1 133.1 257.8 134.04 262.06 130.77 260.36 129.84 256.1 133.1"/>
    <g>
      <path class="cls-1" d="M259.08,129.12,169.22,79a2.44,2.44,0,0,0-3.33,1,2.48,2.48,0,0,0,1,3.35l88,49.06"/>
      <path class="cls-1" d="M269.72,135.06l-3.43-1.92L262,136.4l5.33,3,1.18.32a2.49,2.49,0,0,0,2.15-1.28,2.45,2.45,0,0,0-1-3.34"/>
    </g>
    <polygon class="cls-1" points="277.59 129.61 279.38 130.46 283.38 127.38 281.58 126.55 277.59 129.61"/>
    <polygon class="cls-1" points="274.4 128.11 276.24 128.96 280.22 125.9 278.41 125.04 274.4 128.11"/>
    <g>
      <path class="cls-1" d="M287.68,129.42,284.75,128l-4,3.06,5,2.37.93.22a2.24,2.24,0,0,0,1-4.27"/>
      <path class="cls-1" d="M277,124.41,181,79.13a2.23,2.23,0,1,0-1.89,4.05L273,127.47"/>
    </g>
    <polygon class="cls-1" points="291.57 121.41 293.54 122.15 297.3 119.27 295.33 118.53 291.57 121.41"/>
    <polygon class="cls-1" points="295 122.72 296.95 123.45 300.73 120.56 298.77 119.83 295 122.72"/>
    <g>
      <path class="cls-1" d="M293.86,118,191.68,79.26A2,2,0,0,0,190.27,83l99.82,37.82"/>
      <path class="cls-1" d="M305.07,122.21l-2.87-1.08L298.42,124l5.23,2,.72.12a2,2,0,0,0,.7-3.9"/>
    </g>
    <polygon class="cls-1" points="308.29 113.41 310.43 114.02 313.99 111.31 311.84 110.69 308.29 113.41"/>
    <polygon class="cls-1" points="312.04 114.48 314.14 115.08 317.7 112.38 315.58 111.76 312.04 114.48"/>
    <g>
      <path class="cls-1" d="M321.74,113.52l-2.44-.7-3.54,2.72,5,1.43.48.08a1.8,1.8,0,0,0,.49-3.53"/>
      <path class="cls-1" d="M310.23,110.24l-108.78-31a1.78,1.78,0,0,0-2.2,1.22,1.83,1.83,0,0,0,1.22,2.23L306.68,113"/>
    </g>
    <polygon class="cls-1" points="323.92 103.9 326.26 104.35 329.58 101.82 327.25 101.37 323.92 103.9"/>
    <polygon class="cls-1" points="328.02 104.69 330.33 105.14 333.64 102.61 331.33 102.17 328.02 104.69"/>
    <g>
      <path class="cls-1" d="M337.64,103.39l-2.22-.44-3.34,2.55,5,1,.31,0a1.56,1.56,0,0,0,1.53-1.28,1.58,1.58,0,0,0-1.24-1.83"/>
      <path class="cls-1" d="M325.49,101,211.05,78.67a1.56,1.56,0,0,0-.58,3.06l111.69,21.84"/>
    </g>
    <polygon class="cls-1" points="341.92 93.5 344.48 93.77 347.57 91.41 345.02 91.13 341.92 93.5"/>
    <path class="cls-1" d="M352.61,91.92l-3.09-.32L346.41,94l5.92.62h.14a1.34,1.34,0,0,0,1.34-1.2,1.33,1.33,0,0,0-1.2-1.48"/>
    <polygon class="cls-1" points="337.41 93.02 339.98 93.31 343.09 90.92 340.5 90.66 337.41 93.02"/>
    <path class="cls-1" d="M338.57,90.45,223,78.34a1.34,1.34,0,1,0-.27,2.66L335.46,92.82"/>
    <polygon class="cls-1" points="356.27 81.34 359.14 81.36 362.04 79.14 359.17 79.11 356.27 81.34"/>
    <path class="cls-1" d="M366.53,79.18h-2.3l-2.91,2.21,5.19,0h0a1.1,1.1,0,0,0,1.1-1.1,1.11,1.11,0,0,0-1.1-1.13"/>
    <polygon class="cls-1" points="351.18 81.3 354.09 81.31 356.99 79.09 354.09 79.08 351.18 81.3"/>
    <path class="cls-1" d="M351.9,79.06l-120-1h0a1.12,1.12,0,0,0,0,2.24l117.16,1"/>
    <polygon class="cls-1" points="371.46 65.93 368.82 67.95 372.08 67.68 374.73 65.65 371.46 65.93"/>
    <polygon class="cls-1" points="365.68 66.42 363.03 68.44 366.34 68.16 368.99 66.14 365.68 66.42"/>
    <polyline class="cls-1" points="363.2 66.64 240.74 77.04 239.92 78.02 240.82 78.83 240.9 78.83 360.55 68.66"/>
    <polygon class="cls-1" points="377.22 65.45 374.57 67.47 379.49 67.05 380.29 66.08 379.33 65.26 377.22 65.45"/>
    <polygon class="cls-1" points="375.71 52.99 373.37 54.78 377.21 54.09 379.55 52.3 375.71 52.99"/>
    <polygon class="cls-1" points="382.43 51.79 380.09 53.58 383.88 52.89 386.22 51.12 382.43 51.79"/>
    <polygon class="cls-1" points="389.1 50.59 386.78 52.37 391.12 51.59 391.66 50.82 390.89 50.27 389.1 50.59"/>
    <polygon class="cls-1" points="253.08 74.99 252.53 75.77 253.19 76.32 253.31 76.31 370.49 55.3 372.83 53.51 253.08 74.99"/>
    <polygon class="cls-1" points="219.7 139.29 221.21 140.37 226.04 136.68 224.53 135.59 219.7 139.29"/>
    <path class="cls-1" d="M232.72,141.51l-2.91-2.11L225,143.09l4.37,3.16a2.92,2.92,0,0,0,1.68.54,2.88,2.88,0,0,0,2.36-1.21,2.93,2.93,0,0,0-.66-4.07"/>
    <polygon class="cls-1" points="222.35 141.19 223.85 142.26 228.66 138.59 227.18 137.51 222.35 141.19"/>
    <path class="cls-1" d="M223.39,134.77,140.7,75s-13.54-2.6-12.24-1.68l90.11,65.11"/>
    <polygon class="cls-1" points="201.44 140.39 202.9 141.53 208.01 137.6 206.56 136.47 201.44 140.39"/>
    <polygon class="cls-1" points="203.97 142.38 205.4 143.51 210.51 139.59 209.09 138.47 203.97 142.38"/>
    <g>
      <path class="cls-1" d="M213.89,142.26l-2.28-1.81-5.14,3.93,3.57,2.81a3.1,3.1,0,0,0,4.39-.52,3.16,3.16,0,0,0-.54-4.41"/>
      <path class="cls-1" d="M205.48,135.61,125.17,72s-14.21-3.27-12.85-2.2l88.12,69.69"/>
    </g>
    <polygon class="cls-1" points="191.19 140.26 196.34 144.2 197.8 143.08 192.64 139.16 191.19 140.26"/>
    <polygon class="cls-1" points="193.73 138.3 198.88 142.23 200.35 141.1 195.19 137.18 193.73 138.3"/>
    <g>
      <path class="cls-1" d="M290.41,67.71a3.1,3.1,0,0,0-4.37-.57l-89.72,69.15,5.05,4,88.46-68.17a3.14,3.14,0,0,0,.58-4.4"/>
      <path class="cls-1" d="M190.09,141.11l-3,2.33a3.15,3.15,0,0,0-.57,4.41,3.09,3.09,0,0,0,2.47,1.23,3.12,3.12,0,0,0,1.9-.65l4.39-3.38"/>
    </g>
    <polygon class="cls-1" points="175.39 137.6 180.22 141.29 181.75 140.22 176.91 136.52 175.39 137.6"/>
    <polygon class="cls-1" points="172.76 139.49 177.59 143.18 179.09 142.1 174.25 138.41 172.76 139.49"/>
    <g>
      <path class="cls-1" d="M171.61,140.31l-3.39,2.41a2.91,2.91,0,1,0,3.36,4.75l4.86-3.48"/>
      <path class="cls-1" d="M274.62,70.25a2.9,2.9,0,0,0-4.05-.69l-92.51,66.15,4.82,3.69,91.05-65.08a3,3,0,0,0,.69-4.07"/>
    </g>
    <polygon class="cls-1" points="157.03 135.48 161.55 138.96 163.15 137.91 158.62 134.45 157.03 135.48"/>
    <polygon class="cls-1" points="154.26 137.27 158.78 140.74 160.37 139.73 155.85 136.26 154.26 137.27"/>
    <g>
      <path class="cls-1" d="M257.45,73.51a2.65,2.65,0,0,0-3.7-.8l-93.94,61,4.55,3.44,92.29-59.9a2.68,2.68,0,0,0,.8-3.71"/>
      <path class="cls-1" d="M153.07,138.05l-3.51,2.28a2.72,2.72,0,0,0-.79,3.72,2.67,2.67,0,0,0,2.25,1.22l1.45-.42,5.12-3.33"/>
    </g>
    <polygon class="cls-1" points="139.25 131.7 143.48 134.94 145.17 133.98 140.94 130.74 139.25 131.7"/>
    <polygon class="cls-1" points="136.32 133.36 140.56 136.6 142.23 135.67 137.99 132.41 136.32 133.36"/>
    <g>
      <path class="cls-1" d="M135.05,134.09l-3.85,2.19a2.47,2.47,0,0,0-.92,3.36,2.44,2.44,0,0,0,2.13,1.26l1.2-.32,5.69-3.26"/>
      <path class="cls-1" d="M241.18,76.46a2.43,2.43,0,0,0-3.33-.93L142.19,130l4.24,3.24,93.82-53.43a2.49,2.49,0,0,0,.93-3.37"/>
    </g>
    <polygon class="cls-1" points="121.23 126.85 125.23 129.91 127.04 129.04 123.04 125.99 121.23 126.85"/>
    <polygon class="cls-1" points="118.09 128.34 122.08 131.4 123.88 130.56 119.88 127.49 118.09 128.34"/>
    <g>
      <path class="cls-1" d="M116.72,129l-3.47,1.65a2.24,2.24,0,0,0-1.06,3,2.2,2.2,0,0,0,2,1.28l.94-.22,5.58-2.64"/>
      <path class="cls-1" d="M226.36,79.36a2.22,2.22,0,0,0-3-1.07l-99,47.05,4,3,96.89-46a2.24,2.24,0,0,0,1.06-3"/>
    </g>
    <polygon class="cls-1" points="100.8 121.55 104.55 124.41 106.5 123.67 102.73 120.8 100.8 121.55"/>
    <polygon class="cls-1" points="104.2 120.24 107.95 123.1 109.91 122.36 106.14 119.49 104.2 120.24"/>
    <g>
      <path class="cls-1" d="M215.66,79.71a2,2,0,0,0-2.59-1.17L107.62,118.91l3.76,2.9L214.5,82.31a2,2,0,0,0,1.16-2.6"/>
      <path class="cls-1" d="M99.32,122.11l-3.46,1.32a2,2,0,0,0-1.15,2.6,2,2,0,0,0,1.86,1.3l.73-.13,5.78-2.22"/>
    </g>
    <polygon class="cls-1" points="83.89 113.4 87.43 116.12 89.54 115.5 85.98 112.79 83.89 113.4"/>
    <path class="cls-1" d="M204,80.89a1.78,1.78,0,0,0-2.21-1.23L91.34,111.27l3.54,2.7L202.8,83.1A1.8,1.8,0,0,0,204,80.89"/>
    <polygon class="cls-1" points="87.6 112.33 91.15 115.05 93.28 114.44 89.73 111.73 87.6 112.33"/>
    <path class="cls-1" d="M82.27,113.86l-3.08.89A1.79,1.79,0,0,0,78,117a1.82,1.82,0,0,0,1.72,1.31l.49-.08,5.65-1.61"/>
    <polygon class="cls-1" points="68 103.69 71.33 106.25 73.64 105.77 70.31 103.24 68 103.69"/>
    <polygon class="cls-1" points="72.06 102.89 75.39 105.45 77.74 104.97 74.41 102.44 72.06 102.89"/>
    <g>
      <path class="cls-1" d="M66.23,104l-2.94.57a1.58,1.58,0,0,0-1.23,1.84,1.56,1.56,0,0,0,1.54,1.27l.29,0,5.67-1.09"/>
      <path class="cls-1" d="M195.11,80.55a1.54,1.54,0,0,0-1.81-1.24L76.16,102.1l3.33,2.54L193.88,82.4a1.58,1.58,0,0,0,1.23-1.85"/>
    </g>
    <polygon class="cls-1" points="58.62 92.09 61.74 94.46 64.33 94.2 61.2 91.82 58.62 92.09"/>
    <polygon class="cls-1" points="54.12 92.54 57.23 94.92 59.8 94.67 56.69 92.29 54.12 92.54"/>
    <g>
      <path class="cls-1" d="M182.5,80.71a1.36,1.36,0,0,0-1.47-1.2L63.15,91.62,66.28,94l115-11.82a1.36,1.36,0,0,0,1.2-1.48"/>
      <path class="cls-1" d="M52.17,92.74l-3.85.39a1.35,1.35,0,0,0-1.18,1.48,1.32,1.32,0,0,0,1.32,1.21h.14l6.69-.69"/>
    </g>
    <polygon class="cls-1" points="44.84 80.31 47.74 82.54 50.63 82.51 47.74 80.28 44.84 80.31"/>
    <polygon class="cls-1" points="39.77 80.35 42.68 82.58 45.54 82.55 42.64 80.32 39.77 80.35"/>
    <g>
      <path class="cls-1" d="M37.58,80.37l-3.17,0a1.12,1.12,0,1,0,0,2.23l6.06,0"/>
      <path class="cls-1" d="M169.09,79.3h0l-119.18,1,2.89,2.21,116.3-.95a1.12,1.12,0,0,0,1.11-1.12,1.14,1.14,0,0,0-1.12-1.12"/>
    </g>
    <polygon class="cls-1" points="29.85 68.99 33.12 69.27 30.47 67.24 27.21 66.96 29.85 68.99"/>
    <polygon class="cls-1" points="35.6 69.46 38.9 69.75 36.26 67.73 32.95 67.45 35.6 69.46"/>
    <polygon class="cls-1" points="160.2 78.26 38.73 67.94 41.39 69.95 160.04 80.05 160.13 80.05 161.01 79.24 160.2 78.26"/>
    <polygon class="cls-1" points="20.65 67.29 21.46 68.27 27.37 68.77 24.72 66.74 21.6 66.48 20.65 67.29"/>
    <polygon class="cls-1" points="18.21 54.32 22.01 54.99 19.67 53.22 15.86 52.53 18.21 54.32"/>
    <polygon class="cls-1" points="24.89 55.52 28.71 56.2 26.37 54.43 22.54 53.72 24.89 55.52"/>
    <polygon class="cls-1" points="147.86 76.21 29.26 54.93 31.6 56.72 147.62 77.53 147.75 77.55 148.41 76.98 147.86 76.21"/>
    <polygon class="cls-1" points="9.27 52.03 9.82 52.81 15.31 53.8 12.99 52.02 10.05 51.5 9.27 52.03"/>
    <polygon class="cls-1" points="190.26 139.5 195.39 143.43 196.85 142.34 191.72 138.39 190.26 139.5"/>
    <polygon class="cls-1" points="192.81 137.54 197.94 141.48 199.42 140.36 194.27 136.42 192.81 137.54"/>
    <g>
      <path class="cls-1" d="M289.48,67a3.09,3.09,0,0,0-4.37-.57l-89.72,69.14,5.06,4,88.46-68.16a3.16,3.16,0,0,0,.57-4.41"/>
      <path class="cls-1" d="M189.17,140.35l-3,2.35a3.13,3.13,0,1,0,3.79,5l4.38-3.38"/>
    </g>
    <polygon class="cls-1" points="174.46 136.85 179.29 140.54 180.82 139.45 175.98 135.77 174.46 136.85"/>
    <polygon class="cls-1" points="171.83 138.74 176.66 142.42 178.16 141.35 173.33 137.66 171.83 138.74"/>
    <g>
      <path class="cls-1" d="M170.68,139.55,167.31,142a2.92,2.92,0,0,0,1.66,5.29,2.81,2.81,0,0,0,1.68-.55l4.86-3.47"/>
      <path class="cls-1" d="M273.69,69.5a2.9,2.9,0,0,0-4.05-.69l-92.52,66.13,4.83,3.7L273,73.55a2.92,2.92,0,0,0,.69-4"/>
    </g>
    <polygon class="cls-1" points="156.1 134.73 160.62 138.19 162.21 137.16 157.69 133.7 156.1 134.73"/>
    <polygon class="cls-1" points="153.33 136.51 157.87 139.98 159.45 138.97 154.91 135.5 153.33 136.51"/>
    <g>
      <path class="cls-1" d="M256.53,72.75a2.65,2.65,0,0,0-3.68-.8l-94,61,4.56,3.44,92.29-59.89a2.69,2.69,0,0,0,.8-3.72"/>
      <path class="cls-1" d="M152.14,137.29l-3.5,2.28a2.7,2.7,0,0,0-.8,3.72,2.67,2.67,0,0,0,2.25,1.22l1.45-.41,5.13-3.34"/>
    </g>
    <polygon class="cls-1" points="138.32 130.94 142.56 134.18 144.24 133.22 140 129.98 138.32 130.94"/>
    <polygon class="cls-1" points="135.4 132.61 139.63 135.85 141.29 134.91 137.06 131.65 135.4 132.61"/>
    <g>
      <path class="cls-1" d="M134.13,133.33l-3.87,2.2a2.47,2.47,0,0,0,1.22,4.61l1.2-.32,5.69-3.25"/>
      <path class="cls-1" d="M240.25,75.7a2.46,2.46,0,0,0-3.35-.93l-95.64,54.49,4.25,3.24,93.82-53.45a2.47,2.47,0,0,0,.92-3.35"/>
    </g>
    <polygon class="cls-1" points="120.31 126.09 124.29 129.16 126.11 128.3 122.12 125.24 120.31 126.09"/>
    <polygon class="cls-1" points="117.17 127.59 121.16 130.65 122.95 129.81 118.96 126.73 117.17 127.59"/>
    <g>
      <path class="cls-1" d="M115.79,128.24l-3.47,1.65a2.25,2.25,0,0,0-1.06,3,2.22,2.22,0,0,0,2,1.28l.94-.21,5.58-2.64"/>
      <path class="cls-1" d="M225.44,78.61a2.23,2.23,0,0,0-3-1.07l-99,47,4,3,96.89-46a2.26,2.26,0,0,0,1.07-3"/>
    </g>
    <polygon class="cls-1" points="99.86 120.79 103.62 123.66 105.57 122.92 101.81 120.06 99.86 120.79"/>
    <polygon class="cls-1" points="103.28 119.48 107.03 122.35 108.98 121.61 105.23 118.74 103.28 119.48"/>
    <g>
      <path class="cls-1" d="M214.74,79a2,2,0,0,0-2.59-1.17L106.69,118.17l3.77,2.88L213.57,81.56A2,2,0,0,0,214.74,79"/>
      <path class="cls-1" d="M98.39,121.35l-3.46,1.32a2,2,0,0,0,.72,3.91l.7-.13,5.8-2.22"/>
    </g>
    <polygon class="cls-1" points="82.95 112.66 86.5 115.36 88.61 114.75 85.07 112.05 82.95 112.66"/>
    <path class="cls-1" d="M203.1,80.13a1.77,1.77,0,0,0-2.19-1.24L90.41,110.51,94,113.22,201.89,82.34a1.77,1.77,0,0,0,1.21-2.21"/>
    <polygon class="cls-1" points="86.67 111.58 90.23 114.3 92.35 113.67 88.8 110.97 86.67 111.58"/>
    <path class="cls-1" d="M81.34,113.11l-3.07.89A1.78,1.78,0,0,0,77,116.2a1.8,1.8,0,0,0,1.72,1.3l.5-.07,5.65-1.6"/>
    <polygon class="cls-1" points="67.06 102.93 70.39 105.49 72.71 105.01 69.39 102.48 67.06 102.93"/>
    <polygon class="cls-1" points="71.14 102.14 74.47 104.69 76.81 104.23 73.49 101.69 71.14 102.14"/>
    <g>
      <path class="cls-1" d="M65.31,103.28l-3,.57a1.57,1.57,0,0,0,.31,3.1l.3,0,5.67-1.09"/>
      <path class="cls-1" d="M194.19,79.8a1.56,1.56,0,0,0-1.82-1.25L75.23,101.35l3.34,2.54L193,81.64a1.59,1.59,0,0,0,1.24-1.84"/>
    </g>
    <polygon class="cls-1" points="57.7 91.33 60.81 93.7 63.4 93.44 60.28 91.06 57.7 91.33"/>
    <polygon class="cls-1" points="53.19 91.78 56.3 94.16 58.86 93.91 55.75 91.53 53.19 91.78"/>
    <g>
      <path class="cls-1" d="M181.57,80a1.35,1.35,0,0,0-1.46-1.2L62.23,90.86l3.12,2.39,115-11.82A1.34,1.34,0,0,0,181.57,80"/>
      <path class="cls-1" d="M51.25,92l-3.86.39a1.33,1.33,0,0,0-1.18,1.48,1.32,1.32,0,0,0,1.33,1.2h.12l6.7-.7"/>
    </g>
    <polygon class="cls-1" points="43.9 79.55 46.81 81.78 49.7 81.75 46.81 79.52 43.9 79.55"/>
    <polygon class="cls-1" points="38.84 79.59 41.75 81.82 44.62 81.8 41.71 79.58 38.84 79.59"/>
    <g>
      <path class="cls-1" d="M36.66,79.62l-3.18,0a1.12,1.12,0,0,0,0,2.23l6.06,0"/>
      <path class="cls-1" d="M168.16,78.55h0L49,79.51l2.9,2.22,116.28-.94a1.12,1.12,0,0,0,0-2.24"/>
    </g>
    <polygon class="cls-1" points="28.92 68.22 32.18 68.51 29.56 66.48 26.29 66.2 28.92 68.22"/>
    <polygon class="cls-1" points="34.68 68.72 37.98 69 35.32 66.97 32.02 66.69 34.68 68.72"/>
    <polygon class="cls-1" points="159.27 77.5 37.81 67.18 40.46 69.21 159.12 79.29 159.2 79.29 160.08 78.48 159.27 77.5"/>
    <polygon class="cls-1" points="19.72 66.54 20.52 67.5 26.45 68.02 23.8 65.99 20.68 65.73 19.72 66.54"/>
    <polygon class="cls-1" points="17.28 53.56 21.08 54.25 18.73 52.46 14.93 51.77 17.28 53.56"/>
    <polygon class="cls-1" points="23.95 54.76 27.79 55.45 25.45 53.67 21.61 52.98 23.95 54.76"/>
    <polygon class="cls-1" points="30.67 55.97 146.69 76.77 146.82 76.79 147.48 76.22 146.94 75.45 28.33 54.17 30.67 55.97"/>
    <polygon class="cls-1" points="8.34 51.27 8.89 52.07 14.39 53.04 12.07 51.26 9.13 50.74 8.34 51.27"/>
  </g>
</svg>
