<svg id="Layer_1" data-name="Layer 1" xmlns="http://www.w3.org/2000/svg" viewBox="0 0 400 400">
  <defs>
    <style>
      .cls-1 {
        fill: #ff9e18;
      }
    </style>
  </defs>
  <g>
    <path class="cls-1" d="M337.89,62.11A195,195,0,1,0,395,200,194.47,194.47,0,0,0,337.89,62.11Zm-28.16,81.94c-.12.22-.21.44-.34.66h0c-.8,1.46-1.64,2.91-2.56,4.36l-.07.12v0c-.29.46-.6.91-.89,1.38l-7.43.39,4.24,4.23a1.16,1.16,0,0,1-.11.16l0,0-.1.14c-1.41,1.9-2.94,3.74-4.52,5.54l.07-1.51.44-8.59v-.18l.44-8.59.44-8.62-8.61.45-8.76.45,0-.16h0l.44-8.6.25-4.7,2.05-2.06,14.63,14.63.45-8.76.4-7.85,15.2,15.19c-.07.15-.12.3-.18.45l-7.25.38-8.46.43-.16.16Zm-15.46,21-.29.3q-2.18,2.18-4.39,4.23l.08-1.7.36-7.06Zm-22.41,12.47v-.17l.44-8.59.43-8.61-8.6.44-8.75.45v-.16h0l.45-8.61.25-4.7,2-2.05,14.63,14.63,13,13c-.63.56-1.29,1.14-2,1.71l-.42.32-.07.07-2.18,1.82h-.47Zm3.8,3.83c-1.39,1-2.76,2.06-4.15,3l.34-6.84Zm-21.77,5.67-8.46.43-.16.16,7.87,7.86-.5.23,0,0h0q-1.5.73-3,1.41l-1.62-.67a9.3,9.3,0,0,0-1-.41c-.71-.29-1.43-.58-2.12-.83l.39-7.62-8.61.45-8.76.45,0-.16h0l.44-8.6.25-4.7,2-2.06,14.63,14.63.45-8.76.45-8.75-8.77.43-4.55.25,7-7,6.32,6.32,16.48,16.47,2.25,2.25c-.81.52-1.62,1-2.44,1.49l.19-3.74Zm-41.76,21.42-7.75-7.76,1-.73a22.33,22.33,0,0,1,4-2.15h0a25.29,25.29,0,0,1,5.09-1.54h0c.82-.16,1.66-.29,2.54-.39.61-.07,1.23-.13,1.86-.16h0A51.71,51.71,0,0,1,232.65,197a79.59,79.59,0,0,1,8.94,2.59c1.17.43,2.33.86,3.46,1.31.38.16.69.28.89.38H246l.05,0c1.18.48,2.37,1,3.58,1.54,1,.45,2,.91,3,1.41h0c13.57,6.64,28,17,41.39,30.39,17.09,17.09,25.13,39.94,28.91,58.52h0A167.69,167.69,0,0,1,326,316.57c.15,2.43.2,4.45.23,6ZM322.58,326.23c-2.67,0-6.71-.2-11.76-.68l-.38-7.12-.22-4.56ZM292.64,309v0l8.61.45,4.71.23,2.05,2.05-11.84,11.83c-.57-.1-1.15-.19-1.73-.31h-.05l-.55-.11-.64-.14-.27-5.23-.45-8.76Zm-.44-8.77-.23-4.57,6.9,6.91-6.24,6.24Zm-2.45-6.78-5.9,5.9-.39-7.87-.23-4.56Zm-76.36-30.75-2.24,2.24c-.51-.81-1-1.62-1.5-2.42l3.74.18-.45-8.76-.43-8.46-.16-.16-7.85,7.86c-.09-.16-.16-.33-.24-.49h0v0q-.73-1.5-1.41-3c.24-.54.46-1.1.68-1.63s.32-.73.41-1c.3-.71.57-1.41.82-2.11l7.62.39-.45-8.61-.45-8.75h.17l8.6.43,4.71.24,2.06,2-14.64,14.64,8.76.45,8.75.45-.43-8.77-.24-4.56,7,7-6.34,6.33Zm9,9.2-3.79,3.8c-1-1.39-2.06-2.76-3-4.14ZM92.07,267l8.46-.43.16-.15L90.25,256c.12-.22.23-.45.36-.67.8-1.46,1.66-2.91,2.55-4.36l.09-.13,0,0c.27-.46.59-.92.89-1.37l7.41-.39-4.24-4.24c0-.05.08-.11.12-.15v0l.11-.16c1.4-1.89,2.94-3.74,4.52-5.54l-.09,1.52-.43,8.6v.17l-.44,8.59-.44,8.63,8.61-.45,8.75-.46v.18l-.43,8.59-.25,4.7L115.31,281,100.69,266.4l-.45,8.75-.4,7.86L84.65,267.82l.18-.47Zm13.65-32.06.29-.29c1.46-1.47,2.94-2.87,4.41-4.24l-.1,1.7-.36,7.07Zm22.4-12.47v.17l-.43,8.6-.43,8.61,8.6-.44,8.75-.45v.15h0l-.45,8.61-.24,4.7-2.05,2-14.62-14.62-13-13c.64-.57,1.3-1.13,2-1.71l.41-.33,0,0,0,0c.72-.62,1.45-1.21,2.17-1.8l.46,0Zm-3.78-3.81c1.39-1.07,2.76-2.06,4.14-3l-.34,6.85ZM146.1,213l8.46-.43.16-.15-7.85-7.86a4.3,4.3,0,0,1,.48-.24l0,0h0c1-.49,2-.95,3-1.4l1.63.68,1,.42c.71.29,1.41.56,2.11.81l-.39,7.63,8.61-.45,8.75-.46v.18l-.43,8.59-.25,4.7L169.34,227l-14.62-14.62-.45,8.75-.45,8.76,8.77-.44,4.55-.25-7,7-6.32-6.32L137.34,213.4l-2.25-2.25,2.45-1.5-.2,3.75ZM74,83.45c-.16-2.45-.22-4.46-.24-6L187.87,191.52l7.75,7.76-1,.73a21.66,21.66,0,0,1-4,2.16h0a24.24,24.24,0,0,1-5.09,1.54h0c-.83.17-1.69.31-2.55.4-.61.07-1.22.12-1.84.16h0A50.93,50.93,0,0,1,167.35,203a79.59,79.59,0,0,1-8.94-2.59c-1.17-.41-2.33-.84-3.46-1.31l-.89-.35-.05,0-.06,0q-1.77-.72-3.57-1.53c-1-.44-2-.91-2.94-1.41h0c-13.59-6.65-28-17-41.4-30.39-17.1-17.1-25.13-39.94-28.91-58.53h0A165.15,165.15,0,0,1,74,83.45Zm3.41-9.67c2.66,0,6.7.19,11.76.68l.36,7.12.23,4.55Zm29.92,17.28v0l-8.61-.45L94,90.39l-2.05-2,11.84-11.83c.59.12,1.13.2,1.73.31h0a3.88,3.88,0,0,0,.55.11l.64.14.26,5.24.45,8.76Zm.44,8.76.24,4.56-6.9-6.91,6.23-6.23Zm2.46,6.78,5.89-5.9.39,7.87.25,4.55Zm76.35,30.75,2.25-2.25c.53.82,1,1.62,1.5,2.45l-3.75-.2.45,8.76.43,8.46.15.16,7.87-7.87c.07.18.17.35.24.49l0,.07c.49,1,.95,2,1.4,3L196.5,152c-.17.39-.31.75-.41,1-.3.71-.58,1.43-.83,2.12l-7.63-.39.45,8.61.46,8.76-.16,0,0,0-8.59-.44-4.7-.25-2.06-2,14.62-14.63-8.75-.45-8.76-.45.44,8.77.25,4.55-7-7,6.32-6.32Zm-9-9.2,3.82-3.81c1,1.39,2.05,2.76,3,4.15ZM295.63,108l6.9-6.89,6.23,6.23-8.58.43Zm3.67,8.12-7.87.39-4.54.24,6.52-6.52Zm-90.82,71.73-7.74,7.74a12.2,12.2,0,0,1-.73-1,19.39,19.39,0,0,1-2.18-4,24.24,24.24,0,0,1-1.54-5.09v0c-.17-.83-.29-1.69-.39-2.54-.07-.61-.11-1.23-.15-1.85h0A50.83,50.83,0,0,1,197,167.36a75.85,75.85,0,0,1,2.59-8.94c.42-1.18.85-2.34,1.31-3.46.15-.39.27-.7.37-.9l0-.05,0-.07c.48-1.18,1-2.36,1.54-3.56.45-1,.91-2,1.41-2.94v0c6.64-13.57,17-28,30.38-41.39,17.1-17.09,40-25.14,58.53-28.91h0A169.27,169.27,0,0,1,316.57,74c2.43-.15,4.44-.21,6-.24ZM268.64,135l6.9-6.91,6.24,6.24-8.6.44Zm3.28,7.72-7.06.36-4.54.24,6.1-6.1Zm-16.71,18.18-8.59.43-4.54.23,6.89-6.9Zm-27.46,27.46-8.6.44-4.56.24,6.92-6.92Zm-15.2,3a2.59,2.59,0,0,0-.4.09l.24-.24Zm-21-3.58-.25-.24.16-.16A4,4,0,0,0,191.51,187.85Zm-2.45-2.44-6.92-6.92,6.24-6.24.44,8.6Zm-11.68-57.27-8.6-.44-8.61-.43.44,8.6.45,8.75h-.15v0l-8.61-.45-4.7-.25-2-2,14.62-14.63,13-13c.57.65,1.14,1.29,1.71,2l.33.43.06.06,1.82,2.18v.47l.46,8.75Zm-15.79,29.79-6.91-6.9,6.24-6.24.42,8.59Zm-17.22-31.49,14.84-14.84.38,7.05.43,8.46.14.15-8.74-.44Zm23.54-16.11-7.07-.36,4.24-4.24.29.29c1.47,1.46,2.88,2.93,4.25,4.4ZM159.59,102l-8.6-.44h-.17l-8.59-.44-8.63-.44.45,8.61.46,8.76-.16,0,0,0-8.59-.44-4.7-.25-2.06-2L133.6,100.7l-8.75-.45-7.86-.4,15.2-15.2c.15.07.32.12.46.2l.37,7.23.43,8.46.15.16L144,90.27c.22.12.44.21.66.34h0c1.46.8,2.92,1.65,4.36,2.56l.12.07.05,0c.45.28.91.6,1.38.89l.37,7.42,4.24-4.24.16.11,0,0,.15.1c1.9,1.41,3.75,3,5.56,4.52Zm-16.26,37.66-6.1-6.1,5.51-5.5.36,7.06Zm-8.3-8.3-6.92-6.92,6.24-6.24.44,8.6Zm52.8,77.13-.23.23-.15-.15Zm-2.44,2.43-6.91,6.92-6.24-6.24,8.6-.44Zm-27.47,27.47-6.9,6.91-6.24-6.24,8.59-.42Zm-29.86,18.85,7.07-.36,4.55-.25-6.11,6.12Zm3.3,7.71-6.91,6.92-6.24-6.24,8.6-.44Zm-12.72-24.56,8.46-.43.15-.14-.44,8.74-.38,7-14.84-14.84Zm-18,43.45,7.87-.39,4.55-.25-6.53,6.53Zm3.68,8.11-6.91,6.9-6.23-6.23,8.58-.43Zm-13.31.52,0,.16h0l-.45,8.61-.24,4.7-2,2.05L76.51,296.18c.1-.6.19-1.14.31-1.73v-.06c0-.08,0-.27.11-.55s.09-.42.13-.63l5.23-.27Zm-9.49,18,4.56-.24L73.77,322.57c0-2.66.2-6.69.69-11.75Zm110-98.34,7.73-7.73c.26.33.49.66.73,1a21,21,0,0,1,2.18,4,25.87,25.87,0,0,1,1.54,5.11h0c.16.82.28,1.67.38,2.55.08.6.13,1.23.17,1.85v0A51.57,51.57,0,0,1,203,232.65a79.85,79.85,0,0,1-2.6,8.95c-.42,1.16-.85,2.32-1.31,3.46-.15.37-.28.7-.37.88l0,.05,0,.07c-.48,1.18-1,2.37-1.55,3.54-.44,1-.89,2-1.39,3v0c-6.65,13.59-17,28-30.4,41.4-17.09,17.1-39.94,25.13-58.52,28.91-4.64,1-9,1.64-13,2.13s-7.5.78-10.43,1c-2.45.14-4.47.21-6,.23Zm17,0,.25.24-.16.16A1.79,1.79,0,0,0,208.49,212.15Zm2.45,2.44,6.92,6.92-6.25,6.25-.44-8.6Zm11.67,57.29,8.59.43,8.61.43-.43-8.6-.46-8.75h.16v0l8.61.45,4.71.23,2,2-14.64,14.64-13,13c-.58-.63-1.14-1.29-1.71-2l-.33-.4,0-.05,0,0c-.62-.72-1.21-1.45-1.82-2.18l0-.46-.46-8.74Zm15.8-29.81,6.91,6.9-6.25,6.25-.43-8.59Zm17.21,31.5-14.84,14.84-.38-7.05L240,272.9l-.14-.15,8.74.44Zm-23.54,16.11,7.06.36-4.23,4.24-.3-.29c-1.46-1.46-2.85-2.92-4.22-4.4ZM240.4,298l8.59.43h.18l8.59.44,8.62.44-.45-8.61-.45-8.75h.17l8.6.43,4.71.24,2.06,2.05-14.64,14.64,8.76.45,7.85.4-15.18,15.19-.48-.18-.36-7.24-.43-8.46-.16-.16L256,309.75l-.65-.36h0c-1.46-.8-2.9-1.65-4.36-2.55l-.11-.09h0l-1.37-.89-.41-7.42-4.22,4.23a.91.91,0,0,1-.16-.11h0l-.13-.11c-1.91-1.4-3.75-2.92-5.56-4.52Zm16.27-37.68,6.1,6.1-5.52,5.52-.36-7.07Zm8.3,8.3,6.92,6.92-6.25,6.25-.44-8.6Zm16.38-109-8.46.43-.15.14.44-8.74.38-7.05,14.84,14.84Zm27.58-52.08v-.16h0l.45-8.61.24-4.7,2.05-2,11.82,11.82c-.09.59-.19,1.15-.3,1.74v0a4.18,4.18,0,0,1-.11.55,6,6,0,0,1-.14.64l-5.23.27Zm9.49-18-4.55.23,12.36-12.36c0,2.66-.19,6.7-.68,11.76Zm7.59-21c-.37,0-1.47,0-3.17,0a171,171,0,0,0-30.73,3.45,145.32,145.32,0,0,0-30.93,9.81A102.83,102.83,0,0,0,231,102.37c-13.49,13.52-24,28-31,42-.09-.2-.19-.38-.28-.57s-.16-.33-.24-.48c-1.15-2.27-2.42-4.59-3.78-6.9-.89-1.5-1.82-3-2.8-4.55l0,0-3.06-4.62,0,0c-1.43-2.07-2.93-4.15-4.54-6.24l0,0-.37-.44q-2.69-3.55-5.65-7l-.34-.44,0-.06,0,0c-.62-.72-1.26-1.45-1.91-2.18l-1.7-1.89q-3-3.27-6.18-6.48l-.33-.33L167,100.42a91.52,91.52,0,0,0-8.38-7h0l-.18-.14c-2.14-1.58-4.35-3.08-6.56-4.44l-.14-.09-.07,0q-2.19-1.35-4.43-2.58h0c-3.3-1.84-6.62-3.46-10-4.92l0,0s0,0,0,0c-.68-.31-1.36-.6-2-.86h0A143.7,143.7,0,0,0,114,73.38l-.12,0-.1,0c-2-.48-3.92-.9-5.81-1.31h0l-.73-.14h0l-.58-.13s0,0,0,0v0c-1.55-.3-3.08-.57-4.58-.82h-.07l0,0h0a171.36,171.36,0,0,0-19.93-2.15c-2.48-.12-4.47-.16-5.84-.17H74a182,182,0,0,1,252,0ZM17.94,200A181.4,181.4,0,0,1,68.6,74c0,.36,0,1.47,0,3.17A169.34,169.34,0,0,0,72,107.89C76,127,84.21,150.85,102.36,169c13.5,13.48,28,24,42,31l-.57.28v0a2.83,2.83,0,0,0-.46.22l0,0c-2.28,1.17-4.59,2.45-6.9,3.81-1.5.89-3,1.81-4.55,2.81h0l-4.61,3.08c-2.1,1.43-4.17,2.94-6.27,4.54l0,0-.44.37c-2.37,1.79-4.69,3.66-7,5.64l-.45.35-.09.08c-.71.63-1.46,1.25-2.17,1.89l-1.9,1.71q-3.27,3-6.48,6.18l-.33.33L100.41,233a91.24,91.24,0,0,0-7,8.39l0,0-.13.18h0c-1.59,2.13-3.07,4.34-4.46,6.55l-.08.14,0,.08c-.9,1.46-1.77,2.92-2.59,4.42h0v0c-1.84,3.3-3.46,6.62-4.92,10v0l0,0c-.31.68-.58,1.36-.85,2h0a142.16,142.16,0,0,0-6.89,21.21l0,.11v.11c-.48,2-.92,3.91-1.31,5.81h0a5.25,5.25,0,0,1-.14.73v.05a4,4,0,0,0-.11.57l0,0v0h0c-.29,1.56-.57,3.08-.81,4.59l0,.06v.07a171.34,171.34,0,0,0-2.14,19.94c-.12,2.49-.16,4.47-.17,5.85,0,.68,0,1.21,0,1.59v.4A181.4,181.4,0,0,1,17.94,200ZM74,331.4c.37,0,1.47,0,3.17,0A169.12,169.12,0,0,0,107.89,328a145.32,145.32,0,0,0,30.93-9.81A102.75,102.75,0,0,0,169,297.64c13.49-13.51,24-28,30.95-42,.1.19.18.38.29.56s.16.35.24.48c1.16,2.28,2.43,4.6,3.79,6.91.89,1.5,1.81,3,2.79,4.54l0,0,3.06,4.62,0,0c1.42,2.08,2.94,4.16,4.54,6.24l0,.05.36.43q2.69,3.56,5.65,7l.35.45.07.08c.62.71,1.26,1.44,1.9,2.19l1.69,1.88q3,3.27,6.19,6.48l.33.33,1.69,1.62a95.73,95.73,0,0,0,8.39,7l0,0,.19.12c2.13,1.59,4.35,3.08,6.55,4.46l.14.08.08,0c1.46.9,2.91,1.76,4.42,2.59h0c3.3,1.84,6.64,3.45,10,4.92v0h0c.67.3,1.34.58,2,.85h0a144.4,144.4,0,0,0,21.22,6.91l.12,0h.09c2,.49,3.91.92,5.81,1.31h0l.71.14h0l0,0,.57.11h.05c1.55.3,3.07.58,4.58.82l.06,0h.06a173.77,173.77,0,0,0,20,2.15c2.47.11,4.46.15,5.83.16h2a182,182,0,0,1-252,0ZM331.39,326c0-.35,0-1.47,0-3.17A170.81,170.81,0,0,0,328,292.11v0c-3.9-19.15-12.16-43-30.32-61.16-13.52-13.49-28-24-42-30.95l.57-.28.47-.23c2.29-1.17,4.61-2.44,6.92-3.8q2.25-1.34,4.54-2.79h0l4.64-3.08c2.08-1.45,4.16-3,6.24-4.55l0,0,.44-.37q3.54-2.67,7-5.64l.45-.35.05,0,0,0c.71-.62,1.44-1.25,2.17-1.91l1.89-1.69q3.27-3,6.48-6.19l.34-.34,1.61-1.68a94.29,94.29,0,0,0,7-8.38l0,0,.13-.18c1.58-2.14,3.08-4.35,4.44-6.56l.09-.14,0-.08c.92-1.46,1.77-2.92,2.59-4.42h0c1.84-3.3,3.46-6.63,4.93-10h0a.06.06,0,0,1,0,0c.3-.67.58-1.34.85-2v0a141.42,141.42,0,0,0,6.89-21.21l0-.11v-.09c.49-2,.9-3.92,1.31-5.81v0c.05-.25.1-.49.13-.72v-.06c0-.09.07-.28.13-.56v0c.3-1.55.58-3.09.81-4.59v-.06l0,0h0a169.36,169.36,0,0,0,2.15-20c.12-2.46.16-4.45.16-5.83,0-.7,0-1.23,0-1.6V74a182,182,0,0,1,0,252Z"/>
    <polygon class="cls-1" points="213.46 208.78 213.47 208.78 213.46 208.78 213.46 208.78"/>
    <path class="cls-1" d="M291.14,175.24l0,0,0,0Z"/>
    <polygon class="cls-1" points="299.58 167.03 299.59 167.01 299.58 167.02 299.58 167.03"/>
    <polygon class="cls-1" points="313.91 147.22 313.92 147.21 313.91 147.21 313.91 147.22"/>
    <polygon class="cls-1" points="186.54 191.23 186.53 191.22 186.54 191.23 186.54 191.23"/>
    <path class="cls-1" d="M80.28,264.82v0h0Z"/>
    <polygon class="cls-1" points="191.22 213.46 191.22 213.48 191.22 213.47 191.22 213.46"/>
    <polygon class="cls-1" points="292.1 327.99 292.11 327.99 292.1 327.99 292.1 327.99"/>
    <path class="cls-1" d="M264.82,319.73h0Z"/>
    <polygon class="cls-1" points="208.78 186.55 208.78 186.53 208.78 186.54 208.78 186.55"/>
    <path class="cls-1" d="M175.23,108.86l0,0,0,0Z"/>
    <polygon class="cls-1" points="107.9 72.02 107.9 72.02 107.9 72.02 107.9 72.02"/>
    <polygon class="cls-1" points="167.02 100.43 167 100.41 167.01 100.42 167.02 100.43"/>
    <polygon class="cls-1" points="147.21 86.09 147.2 86.09 147.22 86.09 147.21 86.09"/>
  </g>
</svg>
