<svg id="Layer_1" data-name="Layer 1" xmlns="http://www.w3.org/2000/svg" viewBox="0 0 800 238.63">
  <defs>
    <style>
      .cls-1 {
        fill: #5b6e7f;
      }
    </style>
  </defs>
  <g>
    <g>
      <path class="cls-1" d="M47.36,178H30.67l-1.31,4.85.56.13c1.82-3.89,3.39-3.89,7.47-3.89l-4.53,16.63c-.56,2.08-1.9,2.2-3.31,2.34v.5h9.09v-.5c-2.35-.16-2.83-.18-2.83-1.49a7,7,0,0,1,.38-1.79l4.36-15.69h1.72c2.32,0,3.68.68,3.17,4l.53.07Z"/>
      <path class="cls-1" d="M46.81,190.61c1.16-2.8,3.3-5.22,5-5.22.78,0,1.09.6,1.09,1.26,0,.25-.15,4-6.61,5.34Zm6.46,4.5c-1.57,1.31-2.88,2.36-4.58,2.36a2.73,2.73,0,0,1-2.94-2.85l.31-1.92.88-.13c5.08-.73,8-3.28,8-5.76,0-1.4-1-2.15-2.57-2.15C48,184.66,43,190,43,194.45c0,2,1,4.45,4.3,4.45,3.12,0,6-2.9,6.33-3.4Z"/>
      <path class="cls-1" d="M68.37,178.49c1.32.17,2.22.26,2.22,1.41l-.53,2.44-3.69,13.38c-.57,2-1,2.07-2.57,2.32v.5h7.67V198c-1.63-.21-2.13-.28-2.13-1.35a5.41,5.41,0,0,1,.38-1.91l1.66-6.1a11.1,11.1,0,0,0,3.32.26c6.27,0,8.06-3.82,8.06-6.17,0-4.74-5.24-4.78-6.61-4.78H68.37Zm5.52,1.33a1.11,1.11,0,0,1,1.26-.87c3.44,0,4.38,1.32,4.38,3.63,0,5.2-4.17,5.2-6.46,5.2l-1.41-.16Z"/>
      <path class="cls-1" d="M90.49,184.66c-4.58,0-9.21,5.07-9.21,9.7,0,2.61,1.41,4.54,4.73,4.54,4.79,0,9.09-5.71,9.09-9.57,0-2.09-1-4.67-4.61-4.67m-.22.67c1.52,0,2.2,1.37,2.2,3,0,3.36-2.48,9.89-6,9.89-1.58,0-2.51-1.14-2.51-2.94,0-3.72,2.85-10,6.36-10"/>
      <path class="cls-1" d="M110.65,195.08c-1.4,1.39-2,2.18-2.51,2.18l-.43-.41c0-1,2.88-11.72,3-12.09l-.23-.1-1.9.23-.1.1-.32,1.37h0a2.37,2.37,0,0,0-2.48-1.7c-4.18,0-9,5.89-9,10.53,0,.9.1,3.72,3.24,3.72,1.87,0,3.54-1,6.14-4.8l.06.07a14.31,14.31,0,0,0-.66,3.32c0,.55,0,1.37,1.33,1.37s2.41-1.14,4.29-3.47Zm-11.38,0c0-2.83,2.82-9.75,6.5-9.75.9,0,1.78.6,1.78,2.11,0,3.08-3.07,9.87-6.4,9.87-.84,0-1.88-.55-1.88-2.23"/>
      <path class="cls-1" d="M115.57,198.54c1.3-4.18,1.73-5.59,2.92-7.86.25-.48,2.13-4,3.11-4,.75,0,.27,1.15,1.62,1.15.34,0,1.48,0,1.48-1.65a1.46,1.46,0,0,0-1.51-1.54c-2,0-4.36,3.69-5.39,5.77l-.24.62-.07-.06,1.54-6.25-.11-.08c-1.4.23-3.25.64-4.85.86v.53l1-.16c1,0,1.13.51,1.13,1a15.35,15.35,0,0,1-.5,2.51l-2.54,9.19Z"/>
      <path class="cls-1" d="M130.92,195c-1.27,1.82-2.19,2.44-2.57,2.44l-.49-.47.49-2.09,2.77-10.12-.09-.07c-1.23.22-3.84.73-5,.79V186c1.73,0,2,.14,2,.82,0,.87-2.48,8.68-2.48,10.16,0,.56,0,2,1.48,2,1.76,0,3.14-1.74,4.36-3.6Zm1.32-15.25a1.7,1.7,0,0,0-1.56-1.73,1.54,1.54,0,0,0-1.48,1.7,1.49,1.49,0,0,0,1.51,1.64,1.59,1.59,0,0,0,1.53-1.61"/>
      <path class="cls-1" d="M164.55,178h-7.74v.49c1.35.18,2.2.27,2.2,1.38l-.35,1.93L157.22,187h-8.94l1.7-6.13c.56-2.08,2.07-2.24,3.16-2.35V178h-8.55v.49c1.55.13,2.41.3,2.41,1.38l-.34,1.93-3.86,13.92c-.53,2-1,2-2.55,2.34v.5H148v-.5c-1.63-.22-2.54-.31-2.14-2.08l2.07-7.7h8.95l-2,7.44c-.58,2-1.73,2.16-3.17,2.34v.5h8.56v-.5c-1.7-.16-2.83-.26-2.36-2.08L162,180.83c.53-2,1-2.05,2.57-2.35Z"/>
      <path class="cls-1" d="M177.68,195.08c-1.42,1.39-2,2.18-2.51,2.18l-.44-.41c0-1,2.89-11.72,3-12.09l-.22-.1-1.91.23-.09.1-.32,1.37h-.06a2.34,2.34,0,0,0-2.48-1.7c-4.16,0-9,5.89-9,10.53,0,.9.1,3.72,3.23,3.72,1.89,0,3.55-1,6.14-4.8l.07.07a13.06,13.06,0,0,0-.65,3.32c0,.55,0,1.37,1.3,1.37s2.42-1.14,4.3-3.47Zm-11.38,0c0-2.83,2.81-9.75,6.5-9.75.9,0,1.78.6,1.78,2.11,0,3.08-3.07,9.87-6.4,9.87-.84,0-1.88-.55-1.88-2.23"/>
      <path class="cls-1" d="M193.26,194.86c-1.1,1.39-2,2.49-2.57,2.49l-.37-.5.59-2.49,2.48-9.41h-2.33a32.65,32.65,0,0,1-3.44,7.68c-1.07,1.64-3,4.59-4.4,4.59l-.64-1.06,2.84-11.43-.1-.07a40.16,40.16,0,0,1-4.69.85V186c1.28,0,1.87,0,1.87.9s-2.38,8.78-2.38,10.18.59,1.86,1.73,1.86c2.82,0,5.15-3.94,7.27-7.5h.09a47,47,0,0,0-1.35,5.8,1.42,1.42,0,0,0,1.48,1.63c1.57,0,2.39-.83,4.36-3.68Z"/>
      <path class="cls-1" d="M204.55,184.66c-4.59,0-9.22,5.07-9.22,9.7,0,2.61,1.4,4.54,4.73,4.54,4.8,0,9.09-5.71,9.09-9.57,0-2.09-1-4.67-4.6-4.67m-.23.67c1.51,0,2.2,1.37,2.2,3,0,3.36-2.47,9.89-6.05,9.89-1.57,0-2.51-1.14-2.51-2.94,0-3.72,2.86-10,6.36-10"/>
      <path class="cls-1" d="M214,198.54a39.39,39.39,0,0,1,2.92-7.86c.25-.48,2.13-4,3.11-4,.75,0,.27,1.15,1.63,1.15.33,0,1.47,0,1.47-1.65a1.45,1.45,0,0,0-1.51-1.54c-2,0-4.36,3.69-5.39,5.77l-.26.62,0-.06,1.53-6.25-.1-.08c-1.41.23-3.25.64-4.84.86v.53l1-.16c1,0,1.13.51,1.13,1a14.67,14.67,0,0,1-.51,2.51l-2.54,9.19Z"/>
      <path class="cls-1" d="M236.42,195.08c-1.41,1.39-2,2.18-2.5,2.18l-.44-.41c0-1,2.88-11.72,3-12.09l-.22-.1-1.91.23-.1.1-.3,1.37h-.06a2.35,2.35,0,0,0-2.48-1.7c-4.18,0-9,5.89-9,10.53,0,.9.1,3.72,3.23,3.72,1.89,0,3.55-1,6.15-4.8l.07.07a13.46,13.46,0,0,0-.67,3.32c0,.55,0,1.37,1.32,1.37s2.42-1.14,4.3-3.47Zm-11.39,0c0-2.83,2.83-9.75,6.49-9.75.92,0,1.79.6,1.79,2.11,0,3.08-3.06,9.87-6.39,9.87-.85,0-1.89-.55-1.89-2.23"/>
      <path class="cls-1" d="M262.5,198.05c-1.81-.16-2-.51-2.38-2.72l-2.95-17.81h-.8l-9.1,15.74c-2.56,4.41-2.86,4.5-4.05,4.79v.49h5.87v-.49c-1.45-.14-1.85-.29-1.85-1.11a3.79,3.79,0,0,1,.62-1.95l1.79-3.56h6.9l.62,4.13.07.91c0,1.26-.82,1.44-2.45,1.58v.49h7.71Zm-12.19-7.75,4.67-8.16h0l1.38,8.16Z"/>
    </g>
    <polygon class="cls-1" points="254.03 171.98 253.59 173.96 260.48 173.96 260.89 171.98 254.03 171.98"/>
    <g>
      <path class="cls-1" d="M288.1,198c-1.7,0-2.2-1.16-2.61-2.26l-2.91-7.7c4.48-.85,6.17-3.07,6.17-5.56,0-4.53-5.38-4.53-6.52-4.53h-7.76v.5c1.46.19,2.22.26,2.22,1.48l-.37,1.82-3.86,13.93c-.57,2-1,2-2.55,2.32v.5h7.65V198c-1.7-.21-2.13-.28-2.13-1.48a6.44,6.44,0,0,1,.38-1.78l1.75-6.58,2,.16,3.85,10.18h4.65ZM280,179.82c.21-.57.35-.87,1.75-.87,1.79,0,3.74.71,3.74,3.41,0,2.38-1.16,4.83-5.68,4.83a7.81,7.81,0,0,1-1.85-.17Z"/>
      <path class="cls-1" d="M299.53,184.66c-4.58,0-9.21,5.07-9.21,9.7,0,2.61,1.4,4.54,4.72,4.54,4.8,0,9.1-5.71,9.1-9.57,0-2.09-1-4.67-4.61-4.67m-.22.67c1.51,0,2.18,1.37,2.18,3,0,3.36-2.47,9.89-6,9.89-1.56,0-2.51-1.14-2.51-2.94,0-3.72,2.86-10,6.37-10"/>
      <path class="cls-1" d="M319.72,194.86c-1.19,1.52-2,2.49-2.57,2.49l-.49-.6c0-.66,2.53-8.72,2.53-9.82a2,2,0,0,0-2.13-2.27c-2.82,0-6,4.85-7,6.43L310,191l3.71-13.82-.16-.16a44.42,44.42,0,0,1-4.92.85v.53l.81,0c1,0,1.29.43,1.29.81a32.45,32.45,0,0,1-.85,3.58l-4.13,15.77h2.35c1-4,1.51-5.71,2.91-7.84.63-.87,3.27-4.44,4.83-4.44l.91.84c0,.41-2.57,9.45-2.57,10.27a1.28,1.28,0,0,0,1.41,1.45c2.06,0,3.41-2,4.55-3.59Z"/>
      <path class="cls-1" d="M325.57,190.61c1.17-2.8,3.3-5.22,5-5.22l1.09,1.26c0,.25-.14,4-6.62,5.34Zm6.47,4.5c-1.57,1.31-2.89,2.36-4.58,2.36a2.74,2.74,0,0,1-2.95-2.85l.32-1.92.88-.13c5.07-.73,8-3.28,8-5.76,0-1.4-1-2.15-2.56-2.15-4.43,0-9.38,5.29-9.38,9.79,0,2,1,4.45,4.3,4.45,3.12,0,6-2.9,6.33-3.4Z"/>
      <path class="cls-1" d="M364.47,185.23c0-5.29-3.5-7.65-7.26-7.65-5.62,0-12.76,6.86-12.76,13.82,0,6,4.19,7.71,6.86,7.71,7,0,13.16-7.55,13.16-13.88m-16.74,7.62c0-4.09,3.15-14.23,9.34-14.23,3,0,4.11,2.2,4.11,5.07,0,3.83-3,14.39-9.38,14.39-4.07,0-4.07-4.51-4.07-5.23"/>
      <path class="cls-1" d="M392.31,178H375.64l-1.33,4.85.57.13c1.81-3.89,3.38-3.89,7.45-3.89l-4.51,16.63c-.55,2.08-1.91,2.2-3.32,2.34v.5h9.09v-.5c-2.36-.16-2.83-.18-2.83-1.49a7,7,0,0,1,.38-1.79l4.36-15.69h1.73c2.32,0,3.66.68,3.18,4l.52.07Z"/>
      <path class="cls-1" d="M391.75,190.61c1.17-2.8,3.31-5.22,5-5.22l1.1,1.26c0,.25-.16,4-6.63,5.34Zm6.47,4.5c-1.56,1.31-2.89,2.36-4.58,2.36a2.73,2.73,0,0,1-2.94-2.85l.31-1.92.88-.13c5.07-.73,8-3.28,8-5.76,0-1.4-1-2.15-2.56-2.15-4.43,0-9.38,5.29-9.38,9.79,0,2,1,4.45,4.3,4.45,3.12,0,6-2.9,6.32-3.4Z"/>
      <path class="cls-1" d="M428,178H411.35L410,182.84l.55.13c1.82-3.89,3.4-3.89,7.47-3.89l-4.52,16.63c-.56,2.08-1.91,2.2-3.33,2.34v.5h9.1v-.5c-2.35-.16-2.83-.18-2.83-1.49a7.17,7.17,0,0,1,.39-1.79l4.34-15.69h1.73c2.34,0,3.68.68,3.18,4l.52.07Z"/>
      <path class="cls-1" d="M437.27,195.08c-1.41,1.39-2,2.18-2.51,2.18l-.44-.41c0-1,2.88-11.72,3-12.09l-.23-.1-1.91.23-.09.1-.31,1.37h-.07a2.34,2.34,0,0,0-2.48-1.7c-4.17,0-9,5.89-9,10.53,0,.9.1,3.72,3.23,3.72,1.89,0,3.56-1,6.15-4.8l.07.07a13.76,13.76,0,0,0-.66,3.32c0,.55,0,1.37,1.32,1.37s2.41-1.14,4.29-3.47Zm-11.39,0c0-2.83,2.82-9.75,6.49-9.75.92,0,1.79.6,1.79,2.11,0,3.08-3.07,9.87-6.39,9.87-.86,0-1.89-.55-1.89-2.23"/>
      <path class="cls-1" d="M445.35,195c-1.29,1.82-2.19,2.44-2.57,2.44l-.51-.47.51-2.09,2.76-10.12-.1-.07c-1.21.22-3.82.73-5,.79V186c1.72,0,2,.14,2,.82,0,.87-2.47,8.68-2.47,10.16,0,.56,0,2,1.47,2,1.76,0,3.14-1.74,4.36-3.6Zm1.32-15.25a1.7,1.7,0,0,0-1.58-1.73,1.54,1.54,0,0,0-1.46,1.7,1.49,1.49,0,0,0,1.5,1.64,1.6,1.6,0,0,0,1.54-1.61"/>
      <path class="cls-1" d="M474.21,178H457.54l-1.32,4.85.57.13c1.81-3.89,3.39-3.89,7.46-3.89l-4.51,16.63c-.57,2.08-1.92,2.2-3.34,2.34v.5h9.1v-.5c-2.35-.16-2.83-.18-2.83-1.49a7.17,7.17,0,0,1,.39-1.79l4.35-15.69h1.72c2.32,0,3.68.68,3.17,4l.53.07Z"/>
      <path class="cls-1" d="M479,184.66c-4.58,0-9.22,5.07-9.22,9.7,0,2.61,1.41,4.54,4.73,4.54,4.8,0,9.1-5.71,9.1-9.57,0-2.09-1-4.67-4.61-4.67m-.22.67c1.51,0,2.2,1.37,2.2,3,0,3.36-2.48,9.89-6.05,9.89-1.57,0-2.52-1.14-2.52-2.94,0-3.72,2.86-10,6.37-10"/>
      <path class="cls-1" d="M497.56,195.11c-.91,1.58-1.23,2.15-1.92,2.15s-1.41-1.45-3.67-6.83c4.33-3.85,5.53-4.8,7.06-4.85v-.51h-5.74v.51c.84,0,1.73,0,1.73.59,0,1-4,4-5.74,5.36l0-.07L493,177.2l-.15-.16a41.87,41.87,0,0,1-4.9.85v.51c.81,0,2.13,0,2.13.79s-.75,3-1,4.15l-4,15.2h2.37l1.5-5.66,1.31-1c.31.94,1.5,3.71,1.89,4.43.93,1.86,1.5,2.6,2.47,2.6,1.38,0,2.29-1.18,3.49-3.45Z"/>
      <path class="cls-1" d="M502.94,190.61c1.16-2.8,3.29-5.22,5-5.22.78,0,1.1.6,1.1,1.26,0,.25-.15,4-6.61,5.34Zm6.46,4.5c-1.57,1.31-2.89,2.36-4.57,2.36a2.73,2.73,0,0,1-2.95-2.85l.3-1.92.89-.13c5.08-.73,8-3.28,8-5.76,0-1.4-1-2.15-2.58-2.15-4.42,0-9.37,5.29-9.37,9.79,0,2,1,4.45,4.3,4.45,3.12,0,6-2.9,6.32-3.4Z"/>
      <path class="cls-1" d="M515.88,198.54a39.5,39.5,0,0,1,2.91-7.86c.26-.48,2.14-4,3.12-4,.75,0,.26,1.15,1.61,1.15.35,0,1.48,0,1.48-1.65a1.46,1.46,0,0,0-1.5-1.54c-2,0-4.36,3.69-5.39,5.77l-.25.62-.08-.06,1.56-6.25-.12-.08c-1.39.23-3.26.64-4.85.86v.53l1-.16c1,0,1.13.51,1.13,1a15.35,15.35,0,0,1-.5,2.51l-2.55,9.19Z"/>
      <path class="cls-1" d="M538.35,195.08c-1.42,1.39-2,2.18-2.51,2.18l-.44-.41c0-1,2.88-11.72,3-12.09l-.23-.1-1.91.23-.08.1-.32,1.37h-.07a2.32,2.32,0,0,0-2.47-1.7c-4.17,0-9,5.89-9,10.53,0,.9.1,3.72,3.23,3.72,1.88,0,3.55-1,6.15-4.8l.06.07a13.46,13.46,0,0,0-.67,3.32c0,.55,0,1.37,1.32,1.37s2.42-1.14,4.3-3.47Zm-11.38,0c0-2.83,2.81-9.75,6.48-9.75.92,0,1.79.6,1.79,2.11,0,3.08-3.06,9.87-6.39,9.87-.86,0-1.88-.55-1.88-2.23"/>
      <path class="cls-1" d="M553.93,194.86c-1.1,1.39-2,2.49-2.57,2.49l-.37-.5.59-2.49,2.47-9.41h-2.32c-1.22,3.36-1.9,5.35-3.45,7.68-1.07,1.64-3,4.59-4.39,4.59l-.66-1.06,2.86-11.43-.1-.07a40.32,40.32,0,0,1-4.7.85V186c1.29,0,1.88,0,1.88.9s-2.37,8.78-2.37,10.18.59,1.86,1.71,1.86c2.83,0,5.15-3.94,7.28-7.5h.09a47,47,0,0,0-1.35,5.8,1.42,1.42,0,0,0,1.48,1.63c1.57,0,2.39-.83,4.35-3.68Z"/>
    </g>
    <polygon class="cls-1" points="30.57 45.39 30.57 76.16 30.45 76.16 19.55 45.39 9.14 45.39 9.14 90.31 17.41 90.31 17.41 58.86 17.53 58.86 28.56 90.31 38.84 90.31 38.84 45.39 30.57 45.39"/>
    <g>
      <path class="cls-1" d="M59.42,84.53c5.33,0,6.2-4.6,6.2-16.68s-.87-16.67-6.2-16.67-6.2,4.66-6.2,16.67.88,16.68,6.2,16.68m0-40c13.54,0,15.23,9.69,15.23,23.34S73,91.2,59.42,91.2,44.2,81.5,44.2,67.85s1.69-23.34,15.22-23.34"/>
      <path class="cls-1" d="M89,65h3.75c4.33,0,6.78-1.88,6.78-6.74,0-4.14-2.19-6.22-6.28-6.22H89ZM80,45.39H96.68c7.38,0,11.89,3.9,11.89,11.58,0,6-2.38,10-7.45,11.08v.12c6.13.81,7.08,4.22,7.2,13.71.07,4.72.31,7.18,2,8.06v.37h-9.78a8.88,8.88,0,0,1-1.13-4.72L99.18,77c-.13-3.53-1.7-5.67-5.34-5.67H89v19H80Z"/>
    </g>
    <polygon class="cls-1" points="140.18 45.39 140.18 52.82 130.4 52.82 130.4 90.31 121.38 90.31 121.38 52.82 111.61 52.82 111.61 45.39 140.18 45.39"/>
    <polygon class="cls-1" points="144.1 45.39 153.12 45.39 153.12 62.57 163.65 62.57 163.65 45.39 172.67 45.39 172.67 90.31 163.65 90.31 163.65 70.37 153.12 70.37 153.12 90.31 144.1 90.31 144.1 45.39"/>
    <polygon class="cls-1" points="178.96 90.31 178.96 45.39 187.99 45.39 187.99 82.89 203.96 82.89 203.96 90.31 178.96 90.31"/>
    <path class="cls-1" d="M217.89,73.39h8.77l-4.32-20.2h-.12Zm-1.18-28h11.15L239.7,90.31h-9.4l-2.07-9.5h-11.9l-2.07,9.5h-9.4Z"/>
    <polygon class="cls-1" points="253.26 45.39 264.16 76.16 264.29 76.16 264.29 45.39 272.55 45.39 272.55 90.31 262.27 90.31 251.25 58.86 251.12 58.86 251.12 90.31 242.86 90.31 242.86 45.39 253.26 45.39"/>
    <g>
      <path class="cls-1" d="M288.31,83.65h4c6.27,0,7.52-4,7.52-16.17,0-10.19-.81-15.42-7.7-15.42h-3.83Zm-9-38.26h14.79c12.53,0,14.78,8.62,14.78,21.83,0,15.92-3.37,23.09-15.34,23.09H279.29Z"/>
      <path class="cls-1" d="M339.36,83.65h4c6.26,0,7.51-4,7.51-16.17,0-10.19-.8-15.42-7.7-15.42h-3.83Zm-9-38.26h14.79c12.53,0,14.78,8.62,14.78,21.83,0,15.92-3.37,23.09-15.34,23.09H330.34Z"/>
    </g>
    <rect class="cls-1" x="366.33" y="45.39" width="9.02" height="44.92"/>
    <path class="cls-1" d="M389.35,76.28V77.6c0,4.22,1.19,6.92,5.95,6.92A5.16,5.16,0,0,0,400.69,79c0-4.09-2.06-5.6-8-7.68-8-2.77-11.72-6.11-11.72-13.58,0-8.75,5.33-13.22,13.85-13.22,8,0,13.84,3.46,13.84,12.08v1.26H400c0-4.22-1.44-6.67-4.88-6.67-4.09,0-5.15,2.58-5.15,5.22s.82,4.47,4.64,6.1l7,3c6.77,3,8.52,6.42,8.52,11.9,0,9.5-5.77,13.77-15.55,13.77-10.2,0-14.21-4.78-14.21-13.08V76.28Z"/>
    <polygon class="cls-1" points="440.82 45.39 440.82 52.82 431.04 52.82 431.04 90.31 422.02 90.31 422.02 52.82 412.25 52.82 412.25 45.39 440.82 45.39"/>
    <path class="cls-1" d="M453.75,65h3.76c4.32,0,6.76-1.88,6.76-6.74,0-4.14-2.18-6.22-6.27-6.22h-4.25Zm-9-19.63H461.4c7.38,0,11.9,3.9,11.9,11.58,0,6-2.38,10-7.46,11.08v.12c6.14.81,7.09,4.22,7.2,13.71.07,4.72.31,7.18,2,8.06v.37h-9.77a8.79,8.79,0,0,1-1.13-4.72L463.9,77c-.13-3.53-1.7-5.67-5.33-5.67h-4.82v19h-9Z"/>
    <rect class="cls-1" x="480.02" y="45.39" width="9.02" height="44.92"/>
    <path class="cls-1" d="M514.89,60.55c0-6.55-1.33-9.37-5.39-9.37-4.58,0-5.65,4.59-5.65,17.3,0,13.59,1.89,16,5.77,16,3.25,0,5.64-1.7,5.64-11.39h9c0,9.69-2.38,18-14.22,18-13.54,0-15.22-9.69-15.22-23.34s1.68-23.34,15.22-23.34c12.9,0,13.85,9.49,13.85,16Z"/>
    <polygon class="cls-1" points="555.64 45.39 555.64 52.82 545.86 52.82 545.86 90.31 536.84 90.31 536.84 52.82 527.07 52.82 527.07 45.39 555.64 45.39"/>
    <polygon class="cls-1" points="183.13 107.96 192.16 107.96 192.16 125.14 202.68 125.14 202.68 107.96 211.7 107.96 211.7 152.89 202.68 152.89 202.68 132.94 192.16 132.94 192.16 152.89 183.13 152.89 183.13 107.96"/>
    <polygon class="cls-1" points="243 107.96 243 115.39 227.03 115.39 227.03 125.95 242.05 125.95 242.05 133.38 227.03 133.38 227.03 145.46 243.63 145.46 243.63 152.89 218 152.89 218 107.96 243 107.96"/>
    <path class="cls-1" d="M258.07,136h8.77l-4.33-20.2h-.12Zm-1.2-28H268l11.84,44.93h-9.39l-2.07-9.51H256.5l-2.07,9.51H245Z"/>
    <polygon class="cls-1" points="283.03 152.89 283.03 107.96 292.05 107.96 292.05 145.46 308.02 145.46 308.02 152.89 283.03 152.89"/>
    <polygon class="cls-1" points="334.55 107.96 334.55 115.39 324.78 115.39 324.78 152.89 315.75 152.89 315.75 115.39 305.98 115.39 305.98 107.96 334.55 107.96"/>
    <polygon class="cls-1" points="338.46 107.96 347.49 107.96 347.49 125.14 358.01 125.14 358.01 107.96 367.03 107.96 367.03 152.89 358.01 152.89 358.01 132.94 347.49 132.94 347.49 152.89 338.46 152.89 338.46 107.96"/>
    <g>
      <path class="cls-1" d="M397.4,146.22h3.51c4.32,0,7.27-1.58,7.27-6.8s-2.95-6.73-6.89-6.73H397.4Zm0-19.83H400c5,0,7.21-1.69,7.21-5.91s-2.07-5.85-6.52-5.85H397.4Zm-9-18.43h15.1c7.4,0,12.72,2.76,12.72,11.39,0,4.85-2.32,8.56-6.77,9.82v.12c4.95.7,8.14,4.47,8.14,10.44,0,7.05-3.44,13.16-14,13.16H388.38Z"/>
      <path class="cls-1" d="M437.54,147.1c5.32,0,6.2-4.6,6.2-16.68s-.88-16.67-6.2-16.67-6.21,4.66-6.21,16.67.88,16.68,6.21,16.68m0-40c13.53,0,15.22,9.69,15.22,23.34s-1.69,23.35-15.22,23.35-15.23-9.69-15.23-23.35,1.69-23.34,15.23-23.34"/>
    </g>
    <path class="cls-1" d="M467.45,136h8.77l-4.32-20.2h-.12Zm-1.18-28h11.15l11.84,44.93h-9.39l-2.08-9.51h-11.9l-2.07,9.51h-9.39Z"/>
    <path class="cls-1" d="M501.44,127.59h3.76c4.32,0,6.77-1.88,6.77-6.73,0-4.15-2.19-6.23-6.27-6.23h-4.26Zm-9-19.63h16.67c7.39,0,11.9,3.9,11.9,11.58,0,6-2.38,10-7.45,11.08v.12c6.13.81,7.07,4.22,7.2,13.72.07,4.72.31,7.17,2,8v.38H513a8.84,8.84,0,0,1-1.13-4.72l-.25-8.62c-.12-3.53-1.69-5.67-5.33-5.67h-4.82v19h-9Z"/>
    <path class="cls-1" d="M536.74,146.22h4c6.27,0,7.52-4,7.52-16.17,0-10.19-.81-15.42-7.71-15.42h-3.82Zm-9-38.26h14.79c12.53,0,14.78,8.62,14.78,21.84,0,15.91-3.37,23.09-15.35,23.09H527.72Z"/>
    <path class="cls-1" d="M759.51,14.64A31.48,31.48,0,0,1,790.86,46c0,29.22-34.69,105.27-70.12,135.88L682,67.72c-38.1,35.2-67.84,100.06-67.84,134.16,0,11.15,7.92,19.82,11.44,22.11H609.71c-7.66,0-10.57-8-10.57-10.61V35c0-8.61,3.05-12.39,12.34-12.39h98.68c1.24,52.6,17.87,105.16,22,114.14,15.06-37.88,11.91-29.76,22-59.29-2.9-1.68-26.43-7.17-26.43-31.84,0-17.36,14.9-31,31.73-31"/>
    <path class="cls-1" d="M672.28,108.93c19.34,50.57,21.94,77.91,21.14,115H664.34c5.2-3.46,10.57-11.52,10.57-23,0-2.83,1.35-21.79-26.43-29.2,0,0,3.22-24.25,23.8-62.82"/>
  </g>
</svg>
