<svg id="Layer_1" data-name="Layer 1" xmlns="http://www.w3.org/2000/svg" viewBox="0 0 269.67 1979.1">
  <defs>
    <style>
      .cls-1 {
        fill: #74598f;
      }
    </style>
  </defs>
  <g>
    <polygon class="cls-1" points="76.06 1803.22 83.87 1811.04 104.74 1790.18 125.6 1811.04 133.42 1803.22 104.74 1774.55 76.06 1803.22"/>
    <polygon class="cls-1" points="76.06 1833.98 83.88 1841.8 104.74 1820.94 125.6 1841.8 133.42 1833.98 104.74 1805.31 76.06 1833.98"/>
    <polygon class="cls-1" points="76.06 1864.75 83.88 1872.56 104.74 1851.7 125.6 1872.56 133.42 1864.75 104.74 1836.07 76.06 1864.75"/>
    <polygon class="cls-1" points="76.06 1895.51 83.88 1903.32 104.74 1882.46 125.6 1903.32 133.42 1895.51 104.74 1866.83 76.06 1895.51"/>
    <polygon class="cls-1" points="76.06 1926.27 83.88 1934.08 104.74 1913.22 125.6 1934.08 133.42 1926.27 104.74 1897.59 76.06 1926.27"/>
    <polygon class="cls-1" points="12.14 1803.22 19.95 1811.04 40.81 1790.18 61.68 1811.04 69.5 1803.22 40.81 1774.55 12.14 1803.22"/>
    <polygon class="cls-1" points="12.14 1833.98 19.95 1841.8 40.81 1820.94 61.68 1841.8 69.49 1833.98 40.81 1805.31 12.14 1833.98"/>
    <polygon class="cls-1" points="12.14 1864.75 19.95 1872.56 40.82 1851.7 61.68 1872.56 69.49 1864.75 40.82 1836.07 12.14 1864.75"/>
    <polygon class="cls-1" points="12.14 1895.51 19.95 1903.32 40.81 1882.46 61.68 1903.32 69.49 1895.51 40.81 1866.83 12.14 1895.51"/>
    <polygon class="cls-1" points="12.14 1926.27 19.95 1934.08 40.81 1913.22 61.68 1934.08 69.49 1926.27 40.81 1897.59 12.14 1926.27"/>
    <polygon class="cls-1" points="76.06 1957.03 83.88 1964.85 104.74 1943.98 125.6 1964.85 133.42 1957.03 104.74 1928.35 76.06 1957.03"/>
    <polygon class="cls-1" points="12.14 1957.03 19.95 1964.85 40.81 1943.98 61.68 1964.85 69.49 1957.03 40.81 1928.35 12.14 1957.03"/>
    <polygon class="cls-1" points="173.96 1837.84 173.7 1837.54 173.68 1837.57 159.54 1821.91 145.49 1806.34 145.49 1837.85 173.42 1837.85 159.3 1853.49 145.49 1868.79 145.49 1869.44 173.7 1869.44 202.47 1869.44 230.77 1869.44 259.45 1869.44 259.45 1869.32 245.17 1853.49 231.06 1837.85 259.45 1837.85 259.45 1806.35 245.41 1821.91 231.03 1837.84 230.77 1837.54 230.75 1837.57 216.61 1821.91 202.47 1806.24 188.33 1821.91 173.96 1837.84"/>
    <polygon class="cls-1" points="230.77 1774.34 216.37 1790.29 202.47 1805.69 202.47 1806.22 188.1 1790.29 173.7 1774.34 159.3 1790.29 145.49 1805.59 145.49 1806.24 173.7 1806.24 202.47 1806.24 230.77 1806.24 259.45 1806.24 259.45 1806.11 245.17 1790.29 230.77 1774.34"/>
    <polygon class="cls-1" points="173.96 1932.94 173.7 1932.65 173.68 1932.67 159.54 1917.02 145.49 1901.44 145.49 1932.96 173.42 1932.96 159.3 1948.6 145.49 1963.9 145.49 1964.55 173.7 1964.55 202.47 1964.55 230.77 1964.55 259.45 1964.55 259.45 1964.42 245.17 1948.6 231.06 1932.96 259.45 1932.96 259.45 1901.45 245.41 1917.02 231.03 1932.94 230.77 1932.65 230.75 1932.67 216.61 1917.02 202.47 1901.35 188.33 1917.02 173.96 1932.94"/>
    <polygon class="cls-1" points="202.47 1900.79 202.47 1901.32 188.1 1885.39 173.7 1869.44 159.3 1885.39 145.49 1900.69 145.49 1901.35 173.7 1901.35 202.47 1901.35 230.77 1901.35 259.45 1901.35 259.45 1901.22 245.17 1885.39 230.77 1869.44 216.37 1885.39 202.47 1900.79"/>
    <polygon class="cls-1" points="198.52 1568.42 212.9 1568.18 227.29 1567.93 227.53 1553.55 227.78 1539.16 213.15 1553.79 198.52 1568.42"/>
    <polygon class="cls-1" points="169.26 1597.68 183.64 1597.44 198.03 1597.19 198.27 1582.81 198.52 1568.42 183.89 1583.05 169.26 1597.68"/>
    <polygon class="cls-1" points="74.11 1685.11 59.72 1685.36 45.34 1685.6 45.09 1699.99 44.85 1714.37 59.48 1699.74 74.11 1685.11"/>
    <path class="cls-1" d="M228.15,1656.66c-13.05-13-27.07-23.2-40.44-29.88.28-.13.57-.27.86-.43,13.11-6.71,26.82-16.71,39.58-29.48,17.31-17.33,25.35-40.28,29.14-58.81a156.19,156.19,0,0,0,3.3-33l-.07-2.54-2.56-.09a157.49,157.49,0,0,0-32.94,3.31c-18.53,3.8-41.48,11.83-58.81,29.14-13,13-23.2,27-29.89,40.41-.15-.27-.27-.56-.42-.83-6.71-13.11-16.72-26.83-29.48-39.58-17.34-17.32-40.28-25.34-58.83-29.14a155.25,155.25,0,0,0-32.93-3.3l-2.54.08-.09,2.55a157,157,0,0,0,3.3,32.93c3.79,18.55,11.83,41.48,29.15,58.82,13,13,27.06,23.21,40.43,29.9-.28.12-.58.27-.86.42-13.1,6.7-26.82,16.71-39.57,29.47-17.32,17.34-25.34,40.28-29.15,58.82a156.19,156.19,0,0,0-3.3,32.93l.09,2.55,2.54.08a155,155,0,0,0,32.94-3.29c18.54-3.81,41.48-11.83,58.82-29.15,13-13,23.2-27,29.9-40.41.14.27.27.56.41.83,6.71,13.11,16.72,26.83,29.48,39.58,17.34,17.32,40.27,25.36,58.81,29.14a156.72,156.72,0,0,0,32.94,3.31l2.56-.09.07-2.54a154.24,154.24,0,0,0-3.31-32.94C253.5,1696.94,245.47,1674,228.15,1656.66Zm26.9-144.77h0l-12.64,12.64-14.63,14.63,14.38-.24,9.39-.16c-3.79,17.6-11.59,38.62-27.25,54.26-14,14-29.12,24.51-43,30.78-1.88-.83-3.74-1.53-5.58-2.19-2.32-.82-4.58-1.52-6.82-2.08l.13-7.46.25-14.39-20.4,20.39h0l106.19-106.18Zm-81.13,114.89h0c-7.85,2.77-15.1,4-21.16,3.63a23.42,23.42,0,0,1-11.53-3.49h0a1.15,1.15,0,0,1-.2-.14,22.76,22.76,0,0,1,11.75-3.65,49.26,49.26,0,0,1,16.06,2C170.48,1625.6,172.19,1626.15,173.92,1626.78ZM141.57,1577c6.42-12.54,16.11-25.83,28.5-38.22,16.17-16.2,38.1-24,56.05-27.64a163,163,0,0,1,22.61-3l2.45-.12L145,1614.22a33.44,33.44,0,0,0,.38-3.53c.52-8.58-1.67-18.48-6.1-28.94C140,1580.2,140.75,1578.59,141.57,1577Zm-5.25,12.15s0,0,0,0c2.78,7.87,4,15.12,3.62,21.17a23.38,23.38,0,0,1-3.48,11.53,1.18,1.18,0,0,1-.17.22,23.23,23.23,0,0,1-3.64-11.74,49,49,0,0,1,2-16.07C135.15,1592.6,135.7,1590.89,136.32,1589.15ZM21.43,1508l12.65,12.64,14.63,14.63-.25-14.38-.16-9.4c17.62,3.8,38.62,11.59,54.27,27.26,14,14,24.5,29.14,30.78,43q-1.24,2.82-2.2,5.59c-.83,2.32-1.52,4.58-2.09,6.82l-7.44-.12-14.39-.24,20.39,20.39h0L21.43,1508Zm110.21,118.74a22.93,22.93,0,0,1-11.74,3.63,48.9,48.9,0,0,1-16.06-2c-1.69-.45-3.4-1-5.14-1.62,0,0,0,0,0,0,7.87-2.77,15.11-4,21.17-3.62a23.35,23.35,0,0,1,11.53,3.48h0A1.73,1.73,0,0,1,131.64,1626.77ZM48.33,1593c-16.19-16.18-24-38.1-27.65-56a164.7,164.7,0,0,1-3-22.61c-.05-.88-.09-1.68-.12-2.45l106.17,106.16a33.13,33.13,0,0,0-3.53-.39c-8.59-.52-18.46,1.67-28.93,6.12-1.57-.72-3.17-1.48-4.77-2.31C74,1615.09,60.72,1605.4,48.33,1593ZM17.58,1741.64,30.22,1729l14.63-14.63-14.39.25-9.39.16c3.8-17.61,11.59-38.62,27.26-54.26,14-14,29.13-24.52,43-30.77,1.89.81,3.74,1.53,5.58,2.18,2.33.81,4.59,1.51,6.82,2.09l-.13,7.45-.25,14.38L89,1656.1l-14.38.25-.25,14.38-.24,14.38,14.63-14.63,14.62-14.62h0l-85.78,85.78ZM131,1676.54c-6.39,12.53-16.08,25.82-28.46,38.21-16.18,16.2-38.11,24-56.06,27.64a160.26,160.26,0,0,1-22.6,3l-2.47.13h0l106.18-106.19h0a31.41,31.41,0,0,0-.39,3.54c-.52,8.59,1.67,18.46,6.1,28.92C132.63,1673.35,131.85,1674.94,131,1676.54Zm5.27-12.19c-2.77-7.87-4-15.12-3.62-21.17a23.15,23.15,0,0,1,3.48-11.53h0a.66.66,0,0,1,.15-.19,23.06,23.06,0,0,1,3.63,11.73,49.5,49.5,0,0,1-2,16.06C137.47,1660.91,136.93,1662.61,136.3,1664.35Zm114.9,81.16-12.65-12.65-14.63-14.63.24,14.39.16,9.39c-17.6-3.79-38.62-11.61-54.25-27.26-14-14-24.52-29.13-30.77-43,.81-1.87,1.53-3.74,2.18-5.58a67.79,67.79,0,0,0,2.07-6.83l7.46.13,14.38.24,85.81,85.81ZM148.86,1635.45h0a33.9,33.9,0,0,0,3.54.4c8.59.51,18.46-1.68,28.92-6.11q2.37,1.07,4.77,2.3c12.52,6.4,25.83,16.08,38.21,28.47,16.2,16.17,24,38.1,27.64,56a162.89,162.89,0,0,1,3,22.62q.08,1.3.12,2.43h0Z"/>
    <polygon class="cls-1" points="194.66 1688.97 194.9 1703.36 195.15 1717.74 209.53 1717.99 223.92 1718.23 209.29 1703.6 194.66 1688.97"/>
    <polygon class="cls-1" points="165.4 1659.71 165.64 1674.1 165.89 1688.48 180.27 1688.73 194.66 1688.97 180.03 1674.34 165.4 1659.71"/>
    <polygon class="cls-1" points="77.97 1564.56 77.72 1550.18 77.48 1535.79 63.09 1535.55 48.71 1535.3 63.34 1549.93 77.97 1564.56"/>
    <polygon class="cls-1" points="107.23 1593.82 106.98 1579.44 106.73 1565.05 92.35 1564.81 77.97 1564.56 92.6 1579.19 107.23 1593.82"/>
    <polygon class="cls-1" points="104.74 1282.91 76.06 1311.58 83.87 1319.4 104.74 1298.54 125.6 1319.4 133.42 1311.58 104.74 1282.91"/>
    <polygon class="cls-1" points="104.74 1313.67 76.06 1342.34 83.88 1350.16 104.74 1329.3 125.6 1350.16 133.42 1342.34 104.74 1313.67"/>
    <polygon class="cls-1" points="104.74 1344.43 76.06 1373.11 83.88 1380.92 104.74 1360.06 125.6 1380.92 133.42 1373.11 104.74 1344.43"/>
    <polygon class="cls-1" points="104.74 1375.19 76.06 1403.86 83.88 1411.68 104.74 1390.82 125.6 1411.68 133.42 1403.86 104.74 1375.19"/>
    <polygon class="cls-1" points="104.74 1405.95 76.06 1434.63 83.88 1442.44 104.74 1421.58 125.6 1442.44 133.42 1434.63 104.74 1405.95"/>
    <polygon class="cls-1" points="40.81 1282.91 12.14 1311.58 19.95 1319.4 40.81 1298.54 61.68 1319.4 69.5 1311.58 40.81 1282.91"/>
    <polygon class="cls-1" points="40.81 1313.67 12.14 1342.34 19.95 1350.16 40.81 1329.3 61.68 1350.16 69.49 1342.34 40.81 1313.67"/>
    <polygon class="cls-1" points="40.82 1344.43 12.14 1373.11 19.95 1380.92 40.82 1360.06 61.68 1380.92 69.49 1373.11 40.82 1344.43"/>
    <polygon class="cls-1" points="40.81 1375.19 12.14 1403.87 19.95 1411.68 40.81 1390.82 61.68 1411.68 69.49 1403.87 40.81 1375.19"/>
    <polygon class="cls-1" points="40.81 1405.95 12.14 1434.63 19.95 1442.44 40.81 1421.58 61.68 1442.44 69.49 1434.63 40.81 1405.95"/>
    <polygon class="cls-1" points="76.06 1465.39 83.88 1473.2 104.74 1452.34 125.6 1473.2 133.42 1465.39 104.74 1436.71 76.06 1465.39"/>
    <polygon class="cls-1" points="12.14 1465.39 19.95 1473.2 40.81 1452.34 61.68 1473.2 69.49 1465.39 40.81 1436.71 12.14 1465.39"/>
    <polygon class="cls-1" points="173.96 1346.2 173.7 1345.9 173.68 1345.92 159.54 1330.27 145.49 1314.7 145.49 1346.21 173.42 1346.21 159.3 1361.85 145.49 1377.15 145.49 1377.8 173.7 1377.8 202.47 1377.8 230.77 1377.8 259.45 1377.8 259.45 1377.67 245.17 1361.85 231.06 1346.21 259.45 1346.21 259.45 1314.71 245.41 1330.27 231.03 1346.2 230.77 1345.9 230.75 1345.92 216.61 1330.27 202.47 1314.6 188.33 1330.27 173.96 1346.2"/>
    <polygon class="cls-1" points="259.45 1314.6 259.45 1314.47 245.17 1298.65 230.77 1282.7 216.37 1298.65 202.47 1314.05 202.47 1314.58 188.1 1298.65 173.7 1282.7 159.3 1298.65 145.49 1313.95 145.49 1314.6 173.7 1314.6 202.47 1314.6 230.77 1314.6 259.45 1314.6"/>
    <polygon class="cls-1" points="173.96 1441.3 173.7 1441.01 173.68 1441.03 159.54 1425.38 145.49 1409.8 145.49 1441.32 173.42 1441.32 159.3 1456.96 145.49 1472.26 145.49 1472.91 173.7 1472.91 202.47 1472.91 230.77 1472.91 259.45 1472.91 259.45 1472.78 245.17 1456.96 231.06 1441.32 259.45 1441.32 259.45 1409.81 245.41 1425.38 231.03 1441.3 230.77 1441.01 230.75 1441.03 216.61 1425.38 202.47 1409.7 188.33 1425.38 173.96 1441.3"/>
    <polygon class="cls-1" points="202.47 1409.15 202.47 1409.68 188.1 1393.76 173.7 1377.8 159.3 1393.76 145.49 1409.05 145.49 1409.7 173.7 1409.7 202.47 1409.7 230.77 1409.7 259.45 1409.7 259.45 1409.58 245.17 1393.76 230.77 1377.8 216.37 1393.76 202.47 1409.15"/>
    <polygon class="cls-1" points="125.81 1097.25 125.81 1097.25 125.81 1097.24 125.81 1097.25"/>
    <path class="cls-1" d="M242.38,1079h0Z"/>
    <polygon class="cls-1" points="214.2 1064.15 220.03 1064.15 220.03 1042.74 198.63 1042.74 198.63 1048.58 214.2 1048.58 214.2 1064.15"/>
    <polygon class="cls-1" points="202.72 1075.63 208.55 1075.63 208.55 1054.22 187.15 1054.22 187.15 1060.06 202.72 1060.06 202.72 1075.63"/>
    <polygon class="cls-1" points="191.24 1087.11 197.07 1087.11 197.07 1065.71 175.67 1065.7 175.67 1071.54 191.24 1071.54 191.24 1087.11"/>
    <polygon class="cls-1" points="179.76 1098.59 185.59 1098.59 185.59 1077.18 164.19 1077.18 164.19 1083.02 179.76 1083.02 179.76 1098.59"/>
    <polygon class="cls-1" points="168.28 1110.07 174.11 1110.07 174.11 1088.66 152.71 1088.66 152.71 1094.5 168.28 1094.5 168.28 1110.07"/>
    <polygon class="cls-1" points="236.97 1041.38 242.81 1041.38 242.81 1019.97 221.4 1019.97 221.4 1025.81 236.97 1025.81 236.97 1041.38"/>
    <polygon class="cls-1" points="225.49 1052.86 231.33 1052.86 231.33 1031.45 209.92 1031.45 209.92 1037.29 225.49 1037.29 225.49 1052.86"/>
    <polygon class="cls-1" points="25.78 1178.84 25.78 1178.83 25.79 1178.83 25.78 1178.84"/>
    <path class="cls-1" d="M143.65,1146.14h0Z"/>
    <polygon class="cls-1" points="116.85 1119.36 116.86 1119.36 116.86 1119.36 116.85 1119.36"/>
    <polygon class="cls-1" points="25.74 1178.91 25.78 1178.84 25.78 1178.84 25.74 1178.91"/>
    <path class="cls-1" d="M20.22,1190.35v0h0Z"/>
    <polygon class="cls-1" points="69.54 1215.14 69.54 1209.31 53.97 1209.31 53.97 1193.74 48.13 1193.74 48.13 1215.14 69.54 1215.14"/>
    <polygon class="cls-1" points="81.02 1203.66 81.02 1197.83 65.45 1197.83 65.45 1182.26 59.61 1182.26 59.61 1203.66 81.02 1203.66"/>
    <polygon class="cls-1" points="92.5 1186.35 76.93 1186.35 76.93 1170.78 71.09 1170.78 71.09 1192.18 92.5 1192.18 92.5 1186.35"/>
    <polygon class="cls-1" points="103.98 1180.7 103.98 1174.87 88.41 1174.87 88.41 1159.3 82.57 1159.3 82.57 1180.7 103.98 1180.7"/>
    <polygon class="cls-1" points="115.46 1163.39 99.89 1163.39 99.89 1147.82 94.05 1147.82 94.05 1169.22 115.46 1169.22 115.46 1163.39"/>
    <polygon class="cls-1" points="46.77 1232.08 31.2 1232.08 31.19 1216.51 25.36 1216.51 25.36 1237.92 46.77 1237.92 46.77 1232.08"/>
    <polygon class="cls-1" points="58.25 1220.6 42.67 1220.6 42.67 1205.03 36.84 1205.03 36.84 1226.44 58.25 1226.44 58.25 1220.6"/>
    <path class="cls-1" d="M14.18,1254c.33,0,1.4,0,3.07,0a162,162,0,0,0,29.37-3.29h0c18.3-3.73,41.06-11.63,58.44-29,12.54-12.56,22.36-26,29-39,1.1,2.14,2.29,4.31,3.57,6.48.85,1.44,1.73,2.89,2.67,4.35v0l2.93,4.4v0c1.37,2,2.82,4,4.34,6l0,0,.34.41c1.71,2.27,3.51,4.49,5.4,6.7l.33.42,0,0,0,0,1.82,2.08,1.6,1.78h0q2.85,3.13,5.92,6.21l.28.28,0,0,1.61,1.54h0a88.25,88.25,0,0,0,8,6.71l0,0,.18.13h0c2,1.51,4.15,2.93,6.26,4.24l.11.07.08,0c1.4.87,2.81,1.7,4.25,2.49,3.16,1.76,6.34,3.31,9.54,4.72h0c.64.3,1.3.57,1.92.83a140.05,140.05,0,0,0,20.29,6.6l.14,0h.1c1.89.46,3.72.87,5.51,1.24h0l.69.14h.06l.54.11h0c1.48.29,2.95.55,4.39.79h.12a166.64,166.64,0,0,0,19.07,2.06c2.37.11,4.26.14,5.58.15h2l4.94-.16.07-2.31.09-2.61v0c0-.29,0-1.33,0-3a161.61,161.61,0,0,0-3.29-29.49h0c-3.73-18.29-11.63-41.05-29-58.43-12.56-12.54-26-22.37-39-29,2.14-1.09,4.33-2.27,6.51-3.58h0c1.44-.85,2.88-1.72,4.34-2.66l0,0,4.42-2.94h0c2-1.37,4-2.81,6-4.34h0l.42-.35c2.27-1.71,4.49-3.51,6.72-5.39l.42-.33.06,0,.06,0c.65-.59,1.34-1.18,2-1.81l1.78-1.59h0c2.11-1.91,4.17-3.89,6.21-5.94l.28-.28h0l0,0,1.53-1.6h0a87.47,87.47,0,0,0,6.72-8l0,0,.14-.21c1.5-2,2.92-4.14,4.23-6.26l.06-.09,0-.09c.87-1.4,1.71-2.81,2.5-4.25,1.77-3.16,3.31-6.36,4.71-9.54h0v0h0c.27-.59.56-1.23.82-1.91h0l0-.06h0a138.36,138.36,0,0,0,6.57-20.23l0-.11v-.09c.47-1.9.87-3.74,1.25-5.55h0l.15-.71v0h0a2.42,2.42,0,0,1,.09-.38v-.08l0-.06c.29-1.51.54-3,.77-4.43h0v-.12a164,164,0,0,0,2.06-19.06c.11-2.37.15-4.26.15-5.58,0-.66,0-1.17,0-1.53V1009l-.16-4.93-4.92-.16h0c-.29,0-1.32,0-3,0a160.8,160.8,0,0,0-29.48,3.3c-18.31,3.71-41.07,11.62-58.45,29-12.53,12.56-22.35,26-29,39-1.1-2.15-2.29-4.32-3.58-6.49-.84-1.43-1.72-2.88-2.66-4.34v0l-2.93-4.4,0,0c-1.37-2-2.81-4-4.34-6l0,0-.34-.41c-1.7-2.27-3.51-4.49-5.39-6.7l-.34-.42,0,0,0,0c-.59-.68-1.19-1.38-1.82-2.08l-1.59-1.78h0q-2.85-3.14-5.93-6.21l-.28-.28h0l-1.62-1.55h0a89.64,89.64,0,0,0-8-6.71l0,0-.18-.13h0c-2-1.51-4.15-2.93-6.26-4.24l-.09-.06-.09,0q-2.1-1.32-4.26-2.5c-3.15-1.76-6.34-3.31-9.53-4.71h0c-.64-.3-1.3-.57-1.92-.83h0a139.27,139.27,0,0,0-20.29-6.6l-.12,0h-.09c-1.9-.46-3.74-.86-5.54-1.24h0l-.69-.14h-.06l-.53-.11h-.05c-1.48-.29-2.94-.56-4.37-.79h-.13a166.74,166.74,0,0,0-19.06-2.06c-2.37-.11-4.27-.15-5.58-.15h-2l-4.94.16L9.08,1009v0c0,.29,0,1.32,0,3a161.7,161.7,0,0,0,3.29,29.49h0c3.73,18.29,11.64,41,29,58.43,12.56,12.54,26,22.37,39,29-2.15,1.1-4.32,2.29-6.49,3.57-1.43.85-2.88,1.73-4.35,2.67l0,0-4.37,2.91,0,0c-2,1.38-4,2.82-6,4.34l0,0-.4.34c-2.27,1.7-4.49,3.51-6.71,5.4l-.42.33,0,0,0,0-2.08,1.82-1.78,1.6h0q-3.12,2.85-6.2,5.92l-.28.28,0,0,0,0-1.52,1.6h0a86.64,86.64,0,0,0-6.71,8l0,0-.13.19c-1.51,2-2.93,4.13-4.24,6.25l-.07.11,0,.08q-1.31,2.1-2.49,4.24c-1.75,3.16-3.3,6.34-4.71,9.54h0v0l0,0h0c-.29.65-.56,1.3-.82,1.92a138.84,138.84,0,0,0-6.6,20.29l0,.11,0,.1c-.46,1.9-.87,3.74-1.25,5.54v0c-.05.23-.09.47-.14.7v0c0,.09-.06.28-.11.55h0v0h0c-.28,1.48-.55,3-.78,4.38v.14a164,164,0,0,0-2.06,19.06c-.11,2.37-.15,4.26-.15,5.58,0,.66,0,1.17,0,1.52v.41h0v0l.17,5,4.93.16Zm119.9-83.21-.27-.67a68.28,68.28,0,0,1-4.06-15.59v0a44,44,0,0,1-.32-8h0v-.19h0s0-.09,0-.13h9.12v-.25h.09c0,.18,0,.37.05.56v0a48.64,48.64,0,0,1-1.18,13.14,73.69,73.69,0,0,1-2.47,8.56C134.75,1169,134.42,1169.88,134.08,1170.74Zm89.26-9.27c16.33,16.34,24,38.17,27.62,55.93h0c.75,3.65,1.32,7.12,1.76,10.34h-4v15.57H233.13v4.32c-1.59-.22-3.21-.45-4.91-.73h0l-.05,0h0c-1.41-.23-2.86-.49-4.34-.78h0l-.54-.1h0l-.68-.14c-1.81-.38-3.63-.78-5.5-1.24l-.14,0h-.06a133.12,133.12,0,0,1-19.45-6.33h0c-.61-.25-1.22-.51-1.77-.76h0l0,0c-3.1-1.36-6.16-2.85-9.18-4.53h0c-1.4-.77-2.78-1.58-4.16-2.45l-.11-.06,0,0c-2-1.24-4-2.58-5.9-4l0,0-.14-.09a81.26,81.26,0,0,1-7.55-6.32l-1.57-1.49-.26-.26q-3-3-5.76-6l-1.58-1.77c-.58-.64-1.15-1.3-1.73-2l-.31-.39,0,0,0,0c-1.87-2.19-3.64-4.38-5.31-6.59l0,0-.33-.4q-2.19-2.88-4.17-5.74l-2.87-4.32c-.9-1.4-1.74-2.79-2.57-4.19-1.25-2.12-2.42-4.24-3.49-6.34v0l0,0-.12-.24,0-.08,0-.08c-.21-.42-.41-.81-.58-1.19v0l0,0c-.26-.54-.51-1.07-.76-1.61.42-.93.82-1.86,1.19-2.78h0c.17-.36.29-.7.4-1,.48-1.19.92-2.37,1.33-3.51v0l0,0,0,0a78.61,78.61,0,0,0,2.64-9.12h0c.23-1.06.41-2.11.58-3.15h19.93v-19.76a74.77,74.77,0,0,0,14.08-3.91h0l2.42-.94,0,0h0c.88-.38,1.79-.79,2.69-1.2.54.25,1.07.49,1.61.76h0C196.76,1138.77,210.53,1148.68,223.34,1161.47Zm-72.06-42.09h0l-.27,0v-7.63h-7.34v0h0a46.11,46.11,0,0,0,0-5.75H156.8v13.44A46.34,46.34,0,0,0,151.28,1119.38Zm13.44,6.1a75.68,75.68,0,0,1,8.55,2.48c.88.32,1.74.65,2.6,1l-.66.25a67.77,67.77,0,0,1-15.59,4.06h0a42.21,42.21,0,0,1-8,.32h-.34v-9.11H151v-.1h.16l.42,0A48.62,48.62,0,0,1,164.72,1125.48Zm-21.07,20.67c0-.1,0-.19,0-.29h7.61v-7.35h.06a44.27,44.27,0,0,0,5.75,0v13.2H143.61A46.16,46.16,0,0,0,143.65,1146.15Zm-6.1-66.89v0c6.37-13,16.26-26.75,29-39.56,16.34-16.33,38.17-24,55.94-27.61h0c3.65-.75,7.11-1.32,10.33-1.76v4h15.57v15.57h4.32c-.22,1.58-.45,3.19-.73,4.89l0,0v.06c-.22,1.43-.48,2.89-.76,4.36h0c0,.16-.08.34-.12.56h0c0,.23-.09.45-.13.68-.38,1.8-.78,3.63-1.24,5.5l0,.1v.06a133.18,133.18,0,0,1-6.33,19.49l0,0v0c-.21.55-.47,1.13-.74,1.72l0,0c-1.36,3.1-2.84,6.17-4.52,9.16v0c-.77,1.4-1.59,2.78-2.45,4.17l-.06.1,0,0c-1.24,2-2.58,4-4,5.93l0,0-.09.13a83.27,83.27,0,0,1-6.32,7.54h0l-1.51,1.58-.26.25c-2,2-4,3.93-6,5.75h0l-1.78,1.6-2,1.74-.39.31,0,0,0,0c-2.21,1.87-4.4,3.64-6.61,5.3l0,0-.39.33c-1.93,1.47-3.84,2.85-5.75,4.18l-4.32,2.87c-1.4.89-2.79,1.74-4.19,2.56l0,0c-2.09,1.25-4.21,2.4-6.32,3.47h0l-.28.13-.08,0-.08,0-1.23.62c-.56.27-1.1.51-1.64.76-.92-.41-1.85-.82-2.73-1.19h0c-.38-.17-.72-.3-1-.4h0c-1.19-.49-2.37-.92-3.51-1.33h0a83.55,83.55,0,0,0-9.13-2.64h0c-1.06-.23-2.11-.41-3.15-.59v-19.92H142.88a75.07,75.07,0,0,0-3.91-14.09h0c-.31-.81-.63-1.63-1-2.44h0c-.38-.91-.8-1.83-1.21-2.75C137,1080.33,137.28,1079.8,137.55,1079.26Zm-3.47,7.88c.09.23.19.45.27.68h0a67.77,67.77,0,0,1,4.06,15.59h0a42.31,42.31,0,0,1,.32,8v.19h0s0,.09,0,.14H129.6l0,.24h-.1a1,1,0,0,0,0-.17l0-.4h0a48.57,48.57,0,0,1,1.19-13.14h0a73.69,73.69,0,0,1,2.47-8.56C133.42,1088.86,133.75,1088,134.08,1087.14Zm-89.25,9.28c-16.34-16.34-24-38.17-27.63-55.93h0c-.75-3.65-1.32-7.12-1.76-10.34h4v-15.57H35v-4.32c1.58.22,3.2.45,4.91.73h0l.06,0h0q2.12.35,4.35.78h0l.52.1h0l.68.14c1.82.38,3.64.78,5.51,1.24l.11,0h.06a134.25,134.25,0,0,1,19.47,6.34h0c.62.25,1.23.5,1.77.76h0c3.09,1.36,6.15,2.85,9.17,4.52h0c1.4.77,2.78,1.58,4.17,2.45l.09,0,0,0c2,1.24,4,2.59,5.91,4l0,0,.14.09a84.24,84.24,0,0,1,7.55,6.32l1.56,1.49.26.26c2,2,3.91,4,5.76,6l1.58,1.77c.58.64,1.15,1.3,1.74,2l.31.39,0,0,0,0c1.87,2.19,3.64,4.38,5.3,6.59l0,0,.32.39c1.47,1.93,2.85,3.84,4.17,5.75l2.88,4.32q1.34,2.09,2.56,4.19c1.26,2.12,2.42,4.24,3.49,6.33v0l0,0,.12.26,0,.08,0,.07c.21.42.4.8.58,1.19v0l0,0c.27.53.51,1.06.76,1.6-.4.88-.79,1.76-1.16,2.66h0c-.18.4-.32.77-.43,1-.49,1.19-.92,2.36-1.33,3.5v0a77.29,77.29,0,0,0-2.63,9.15c-.23,1.06-.42,2.1-.59,3.14H105.28v19.75a75.8,75.8,0,0,0-14.08,3.92h0c-.81.31-1.63.63-2.45,1h0c-.92.38-1.84.78-2.76,1.19-.53-.24-1.06-.48-1.58-.75h0C71.41,1119.11,57.64,1109.21,44.83,1096.42ZM93,1128.67a68.15,68.15,0,0,1,15.59-4.06h0a44,44,0,0,1,8-.32h0c.11,0,.21,0,.32,0v9.12h.25v.1H117l-.41,0a49.08,49.08,0,0,1-13.14-1.19,74.12,74.12,0,0,1-8.55-2.47c-.88-.32-1.74-.65-2.61-1l.68-.27Zm23.92,9.84h0l.25,0v7.62h7.34v.05h0a48.12,48.12,0,0,0,0,5.75H111.37v-13.44A46.16,46.16,0,0,0,116.88,1138.51Zm7.63-26.78v0l0,.32h-7.61v7.34h-.06a48,48,0,0,0-5.74.05v-13.18h13.44A48.24,48.24,0,0,0,124.51,1111.73ZM16.13,1223.08v-.1q.34-2.13.78-4.35v0c0-.09.06-.27.11-.54h0c.05-.23.09-.46.14-.68.38-1.81.78-3.63,1.23-5.5l0-.1v-.06a132.06,132.06,0,0,1,6.34-19.49l0,0v0c.25-.61.5-1.22.75-1.77l0,0v0c1.36-3.1,2.85-6.16,4.53-9.17v0c.77-1.39,1.58-2.77,2.44-4.16l.08-.12v0c1.24-2,2.58-4,4-5.89l0,0,.1-.14a81.26,81.26,0,0,1,6.32-7.55l1.5-1.57.25-.26q3-3,6-5.76l1.76-1.58,2-1.73.4-.31,0,0,0,0c2.19-1.87,4.38-3.64,6.59-5.31l0,0,.4-.33c1.92-1.47,3.83-2.85,5.74-4.17l4.33-2.88c1.4-.9,2.79-1.74,4.18-2.57,2.13-1.25,4.25-2.41,6.34-3.49l0,0,.26-.13.07,0,.08,0c.41-.21.8-.4,1.19-.58h0l0,0c.55-.27,1.08-.51,1.62-.76.89.39,1.77.79,2.66,1.15h0l0,0,.07,0h0l.94.39h0c1.2.49,2.37.92,3.51,1.33h0a80.28,80.28,0,0,0,9.13,2.65h0c1.06.23,2.1.41,3.14.59v19.92h19.75a75.9,75.9,0,0,0,3.92,14.09h0c.31.81.63,1.63,1,2.44h0c.37.91.79,1.82,1.2,2.74-.25.53-.49,1.06-.76,1.6l0,.05,0,0c-6.35,13-16.25,26.75-29,39.56-16.34,16.33-38.17,24-55.93,27.62h0c-3.66.74-7.12,1.31-10.34,1.75v-4H19.71V1228H15.4C15.61,1226.41,15.85,1224.78,16.13,1223.08Z"/>
    <polygon class="cls-1" points="183.98 1237.25 183.97 1237.24 183.96 1237.24 183.98 1237.25"/>
    <path class="cls-1" d="M195.48,1242.8h0Z"/>
    <polygon class="cls-1" points="198.88 1214.9 220.28 1214.89 220.28 1193.49 214.45 1193.49 214.45 1209.06 198.88 1209.06 198.88 1214.9"/>
    <polygon class="cls-1" points="187.4 1203.41 208.8 1203.41 208.8 1182.01 202.97 1182.01 202.97 1197.58 187.4 1197.58 187.4 1203.41"/>
    <polygon class="cls-1" points="175.92 1191.93 197.32 1191.93 197.32 1170.53 191.49 1170.53 191.49 1186.1 175.92 1186.1 175.92 1191.93"/>
    <polygon class="cls-1" points="180.01 1174.62 164.44 1174.62 164.44 1180.45 185.84 1180.45 185.84 1159.05 180.01 1159.05 180.01 1174.62"/>
    <polygon class="cls-1" points="174.36 1147.57 168.53 1147.57 168.53 1163.14 152.96 1163.14 152.96 1168.97 174.36 1168.97 174.36 1147.57"/>
    <polygon class="cls-1" points="221.65 1237.67 243.06 1237.67 243.06 1216.26 237.22 1216.26 237.22 1231.83 221.65 1231.83 221.65 1237.67"/>
    <polygon class="cls-1" points="210.17 1226.19 231.57 1226.19 231.57 1204.78 225.74 1204.78 225.74 1220.35 210.17 1220.35 210.17 1226.19"/>
    <polygon class="cls-1" points="102.4 1137.23 102.39 1137.23 102.39 1137.23 102.4 1137.23"/>
    <polygon class="cls-1" points="84.19 1020.64 84.19 1020.64 84.2 1020.65 84.19 1020.64"/>
    <polygon class="cls-1" points="69.29 1042.99 47.88 1042.99 47.88 1064.4 53.72 1064.4 53.72 1048.83 69.29 1048.83 69.29 1042.99"/>
    <polygon class="cls-1" points="80.77 1054.47 59.36 1054.47 59.36 1075.88 65.2 1075.88 65.2 1060.31 80.77 1060.31 80.77 1054.47"/>
    <polygon class="cls-1" points="92.25 1065.95 70.84 1065.95 70.84 1087.36 76.68 1087.36 76.68 1071.79 92.25 1071.79 92.25 1065.95"/>
    <polygon class="cls-1" points="88.16 1083.27 103.73 1083.27 103.73 1077.43 82.32 1077.44 82.32 1098.84 88.16 1098.84 88.16 1083.27"/>
    <polygon class="cls-1" points="93.8 1110.32 99.64 1110.32 99.64 1094.75 115.21 1094.75 115.21 1088.91 93.8 1088.91 93.8 1110.32"/>
    <polygon class="cls-1" points="46.52 1020.22 25.11 1020.22 25.11 1041.63 30.95 1041.63 30.95 1026.06 46.52 1026.06 46.52 1020.22"/>
    <polygon class="cls-1" points="58 1031.7 36.59 1031.7 36.59 1053.11 42.42 1053.11 42.42 1037.54 58 1037.54 58 1031.7"/>
    <polygon class="cls-1" points="104.74 784.89 76.06 813.57 83.87 821.39 104.74 800.53 125.6 821.39 133.42 813.57 104.74 784.89"/>
    <polygon class="cls-1" points="104.74 815.65 76.06 844.33 83.88 852.14 104.74 831.29 125.6 852.14 133.42 844.33 104.74 815.65"/>
    <polygon class="cls-1" points="104.74 846.41 76.06 875.09 83.88 882.91 104.74 862.05 125.6 882.91 133.42 875.09 104.74 846.41"/>
    <polygon class="cls-1" points="104.74 877.17 76.06 905.85 83.88 913.66 104.74 892.81 125.6 913.66 133.42 905.85 104.74 877.17"/>
    <polygon class="cls-1" points="104.74 907.93 76.06 936.61 83.88 944.43 104.74 923.57 125.6 944.43 133.42 936.61 104.74 907.93"/>
    <polygon class="cls-1" points="40.81 784.89 12.14 813.57 19.95 821.39 40.81 800.53 61.68 821.39 69.5 813.57 40.81 784.89"/>
    <polygon class="cls-1" points="40.81 815.65 12.14 844.33 19.95 852.15 40.81 831.29 61.68 852.15 69.49 844.33 40.81 815.65"/>
    <polygon class="cls-1" points="40.82 846.41 12.14 875.09 19.95 882.91 40.82 862.05 61.68 882.91 69.49 875.09 40.82 846.41"/>
    <polygon class="cls-1" points="40.81 877.17 12.14 905.85 19.95 913.67 40.81 892.81 61.68 913.67 69.49 905.85 40.81 877.17"/>
    <polygon class="cls-1" points="40.81 907.93 12.14 936.61 19.95 944.43 40.81 923.57 61.68 944.43 69.49 936.61 40.81 907.93"/>
    <polygon class="cls-1" points="76.06 967.37 83.88 975.19 104.74 954.33 125.6 975.19 133.42 967.37 104.74 938.69 76.06 967.37"/>
    <polygon class="cls-1" points="12.14 967.37 19.95 975.19 40.81 954.33 61.68 975.19 69.49 967.37 40.81 938.69 12.14 967.37"/>
    <polygon class="cls-1" points="173.96 848.18 173.7 847.89 173.68 847.91 159.54 832.25 145.49 816.68 145.49 848.2 173.42 848.2 159.3 863.84 145.49 879.13 145.49 879.79 173.7 879.79 202.47 879.79 230.77 879.79 259.45 879.79 259.45 879.66 245.17 863.84 231.06 848.2 259.45 848.2 259.45 816.69 245.41 832.25 231.03 848.18 230.77 847.89 230.75 847.91 216.61 832.25 202.47 816.58 188.33 832.25 173.96 848.18"/>
    <polygon class="cls-1" points="259.45 816.58 259.45 816.46 245.17 800.63 230.77 784.68 216.37 800.63 202.47 816.03 202.47 816.56 188.1 800.63 173.7 784.68 159.3 800.63 145.49 815.93 145.49 816.58 173.7 816.58 202.47 816.58 230.77 816.58 259.45 816.58"/>
    <polygon class="cls-1" points="173.96 943.29 173.7 942.99 173.68 943.01 159.54 927.36 145.49 911.79 145.49 943.3 173.42 943.3 159.3 958.94 145.49 974.24 145.49 974.89 173.7 974.89 202.47 974.89 230.77 974.89 259.45 974.89 259.45 974.76 245.17 958.94 231.06 943.3 259.45 943.3 259.45 911.79 245.41 927.36 231.03 943.29 230.77 942.99 230.75 943.01 216.61 927.36 202.47 911.69 188.33 927.36 173.96 943.29"/>
    <polygon class="cls-1" points="202.47 911.14 202.47 911.66 188.1 895.74 173.7 879.79 159.3 895.74 145.49 911.04 145.49 911.69 173.7 911.69 202.47 911.69 230.77 911.69 259.45 911.69 259.45 911.56 245.17 895.74 230.77 879.79 216.37 895.74 202.47 911.14"/>
    <polygon class="cls-1" points="198.52 578.77 212.9 578.52 227.29 578.27 227.53 563.89 227.78 549.51 213.15 564.14 198.52 578.77"/>
    <polygon class="cls-1" points="169.26 608.03 183.64 607.78 198.03 607.53 198.27 593.15 198.52 578.77 183.89 593.4 169.26 608.03"/>
    <polygon class="cls-1" points="74.11 695.46 59.72 695.7 45.34 695.95 45.09 710.33 44.85 724.72 59.48 710.09 74.11 695.46"/>
    <path class="cls-1" d="M225,516.14c-18.53,3.79-41.48,11.82-58.81,29.13-13,13-23.2,27-29.89,40.41-.15-.27-.27-.55-.42-.82-6.71-13.12-16.72-26.84-29.48-39.59C89.08,528,66.14,519.93,47.59,516.14a155.71,155.71,0,0,0-32.93-3.31l-2.54.08L12,515.47a156.88,156.88,0,0,0,3.3,32.92c3.79,18.56,11.83,41.48,29.15,58.83,13,13,27.06,23.2,40.43,29.89-.28.13-.58.27-.86.42C71,644.23,57.23,654.25,44.48,667c-17.32,17.35-25.34,40.28-29.15,58.82A156.23,156.23,0,0,0,12,758.75l.09,2.56,2.54.07a154.16,154.16,0,0,0,32.94-3.29c18.54-3.8,41.48-11.82,58.82-29.14,13-13,23.2-27.05,29.9-40.41.14.27.27.55.41.82,6.71,13.11,16.72,26.83,29.48,39.59,17.34,17.32,40.27,25.35,58.81,29.13A157.19,157.19,0,0,0,258,761.4l2.56-.09.07-2.55a154.24,154.24,0,0,0-3.31-32.94c-3.78-18.54-11.81-41.47-29.13-58.82-13.05-13-27.07-23.19-40.44-29.88l.86-.42c13.11-6.71,26.82-16.72,39.58-29.48,17.31-17.34,25.35-40.29,29.14-58.81a156.3,156.3,0,0,0,3.3-33l-.07-2.54-2.56-.09A158,158,0,0,0,225,516.14Zm-83.45,71.2c6.42-12.54,16.11-25.83,28.5-38.21,16.17-16.2,38.1-24,56.05-27.65a164.57,164.57,0,0,1,22.61-3c.87,0,1.68-.09,2.45-.11L145,624.56a33,33,0,0,0,.38-3.52c.52-8.59-1.67-18.49-6.1-28.94C140,590.54,140.75,588.93,141.57,587.34Zm11.16,46.13a49.53,49.53,0,0,1,16.06,2c1.69.45,3.4,1,5.13,1.63h0c-7.85,2.77-15.1,4-21.16,3.63a23.42,23.42,0,0,1-11.53-3.48v0a1.15,1.15,0,0,1-.2-.14A22.76,22.76,0,0,1,152.73,633.47Zm-16.41-34s0,0,0,0c2.78,7.87,4,15.12,3.62,21.16a23.35,23.35,0,0,1-3.48,11.53.92.92,0,0,1-.17.22,23.16,23.16,0,0,1-3.64-11.74,49,49,0,0,1,2-16.07C135.15,603,135.7,601.24,136.32,599.49ZM21.43,518.37,34.08,531l14.63,14.63-.25-14.39-.16-9.4c17.62,3.81,38.62,11.6,54.27,27.27,14,14,24.5,29.13,30.78,43q-1.24,2.82-2.2,5.59c-.83,2.32-1.52,4.58-2.09,6.82l-7.44-.12-14.39-.24,20.39,20.39h0L21.43,518.37ZM131.64,637.11a22.94,22.94,0,0,1-11.74,3.64,48.93,48.93,0,0,1-16.06-2c-1.69-.45-3.4-1-5.14-1.62h0c7.87-2.78,15.11-4,21.17-3.63A23.45,23.45,0,0,1,131.43,637v0ZM48.33,603.36c-16.19-16.18-24-38.1-27.65-56.05a164.7,164.7,0,0,1-3-22.61c-.05-.87-.09-1.68-.12-2.45L123.76,628.42a33.11,33.11,0,0,0-3.53-.4c-8.59-.52-18.46,1.67-28.93,6.12-1.57-.72-3.17-1.48-4.77-2.3C74,625.43,60.72,615.74,48.33,603.36ZM17.58,752l12.64-12.63,14.63-14.63L30.46,725l-9.39.16c3.8-17.61,11.59-38.62,27.26-54.26,14-14,29.13-24.52,43-30.77,1.89.81,3.74,1.53,5.58,2.19,2.33.81,4.59,1.5,6.82,2.08l-.13,7.46-.25,14.38L89,666.44l-14.38.25-.25,14.38-.24,14.39,14.63-14.63,14.62-14.63h0L17.58,752ZM131,686.88c-6.39,12.53-16.08,25.83-28.46,38.21-16.18,16.2-38.11,24-56.06,27.64a160.26,160.26,0,0,1-22.6,3c-.88.06-1.71.09-2.47.13h0L127.62,649.66h0a31,31,0,0,0-.39,3.53c-.52,8.59,1.67,18.47,6.1,28.92C132.63,683.69,131.85,685.28,131,686.88Zm5.27-12.19c-2.77-7.87-4-15.12-3.62-21.16A23.15,23.15,0,0,1,136.16,642h0a.83.83,0,0,1,.15-.19A23.06,23.06,0,0,1,140,653.53a49.53,49.53,0,0,1-2,16.06C137.47,671.26,136.93,673,136.3,674.69Zm114.9,81.17-12.65-12.65-14.63-14.63.24,14.38.16,9.4c-17.6-3.8-38.62-11.61-54.25-27.27-14-14-24.52-29.12-30.77-43,.81-1.86,1.53-3.74,2.18-5.58a67.63,67.63,0,0,0,2.07-6.82l7.46.12,14.38.25,85.81,85.81Zm-26.9-85c16.2,16.17,24,38.11,27.64,56a163.08,163.08,0,0,1,3,22.62q.08,1.31.12,2.43h0L148.86,645.8h0a31.41,31.41,0,0,0,3.54.4c8.59.51,18.46-1.67,28.92-6.11q2.37,1.06,4.77,2.3C198.61,648.8,211.92,658.48,224.3,670.86Zm30.75-148.63h0l-12.64,12.65-14.63,14.63,14.38-.25,9.39-.16c-3.79,17.6-11.59,38.62-27.25,54.26-14,14-29.12,24.52-43,30.78-1.88-.82-3.74-1.53-5.58-2.19-2.32-.82-4.58-1.51-6.82-2.08l.13-7.46.25-14.38-20.4,20.39h0L255.05,522.23Z"/>
    <polygon class="cls-1" points="194.66 699.32 194.9 713.7 195.15 728.09 209.53 728.33 223.92 728.58 209.29 713.95 194.66 699.32"/>
    <polygon class="cls-1" points="165.4 670.06 165.64 684.44 165.89 698.83 180.27 699.07 194.66 699.32 180.03 684.69 165.4 670.06"/>
    <polygon class="cls-1" points="77.97 574.91 77.72 560.52 77.48 546.14 63.09 545.89 48.71 545.65 63.34 560.28 77.97 574.91"/>
    <polygon class="cls-1" points="107.23 604.17 106.98 589.78 106.73 575.4 92.35 575.15 77.97 574.91 92.6 589.54 107.23 604.17"/>
    <polygon class="cls-1" points="125.6 329.75 133.42 321.93 104.74 293.25 76.06 321.93 83.87 329.75 104.74 308.88 125.6 329.75"/>
    <polygon class="cls-1" points="83.88 360.5 104.74 339.64 125.6 360.5 133.42 352.69 104.74 324.01 76.06 352.69 83.88 360.5"/>
    <polygon class="cls-1" points="83.88 391.27 104.74 370.41 125.6 391.27 133.42 383.45 104.74 354.77 76.06 383.45 83.88 391.27"/>
    <polygon class="cls-1" points="83.88 422.02 104.74 401.17 125.6 422.02 133.42 414.21 104.74 385.53 76.06 414.21 83.88 422.02"/>
    <polygon class="cls-1" points="83.88 452.79 104.74 431.93 125.6 452.79 133.42 444.97 104.74 416.29 76.06 444.97 83.88 452.79"/>
    <polygon class="cls-1" points="61.68 329.75 69.5 321.93 40.81 293.25 12.14 321.93 19.95 329.75 40.81 308.88 61.68 329.75"/>
    <polygon class="cls-1" points="19.95 360.51 40.81 339.64 61.68 360.51 69.49 352.69 40.81 324.01 12.14 352.69 19.95 360.51"/>
    <polygon class="cls-1" points="19.95 391.27 40.82 370.4 61.68 391.27 69.49 383.45 40.82 354.77 12.14 383.45 19.95 391.27"/>
    <polygon class="cls-1" points="19.95 422.03 40.81 401.17 61.68 422.03 69.49 414.21 40.81 385.53 12.14 414.21 19.95 422.03"/>
    <polygon class="cls-1" points="19.95 452.79 40.81 431.93 61.68 452.79 69.49 444.97 40.81 416.29 12.14 444.97 19.95 452.79"/>
    <polygon class="cls-1" points="83.88 483.55 104.74 462.69 125.6 483.55 133.42 475.73 104.74 447.05 76.06 475.73 83.88 483.55"/>
    <polygon class="cls-1" points="19.95 483.55 40.81 462.69 61.68 483.55 69.49 475.73 40.81 447.05 12.14 475.73 19.95 483.55"/>
    <polygon class="cls-1" points="173.96 356.54 173.7 356.25 173.68 356.27 159.54 340.61 145.49 325.04 145.49 356.56 173.42 356.56 159.3 372.2 145.49 387.49 145.49 388.15 173.7 388.15 202.47 388.15 230.77 388.15 259.45 388.15 259.45 388.02 245.17 372.2 231.06 356.56 259.45 356.56 259.45 325.05 245.41 340.61 231.03 356.54 230.77 356.25 230.75 356.27 216.61 340.61 202.47 324.94 188.33 340.61 173.96 356.54"/>
    <polygon class="cls-1" points="230.77 293.04 216.37 308.99 202.47 324.39 202.47 324.92 188.1 308.99 173.7 293.04 159.3 308.99 145.49 324.29 145.49 324.94 173.7 324.94 202.47 324.94 230.77 324.94 259.45 324.94 259.45 324.81 245.17 308.99 230.77 293.04"/>
    <polygon class="cls-1" points="173.96 451.65 173.7 451.35 173.68 451.37 159.54 435.72 145.49 420.15 145.49 451.66 173.42 451.66 159.3 467.3 145.49 482.6 145.49 483.25 173.7 483.25 202.47 483.25 230.77 483.25 259.45 483.25 259.45 483.12 245.17 467.3 231.06 451.66 259.45 451.66 259.45 420.15 245.41 435.72 231.03 451.65 230.77 451.35 230.75 451.37 216.61 435.72 202.47 420.05 188.33 435.72 173.96 451.65"/>
    <polygon class="cls-1" points="202.47 419.5 202.47 420.02 188.1 404.1 173.7 388.15 159.3 404.1 145.49 419.4 145.49 420.05 173.7 420.05 202.47 420.05 230.77 420.05 259.45 420.05 259.45 419.92 245.17 404.1 230.77 388.15 216.37 404.1 202.47 419.5"/>
    <polygon class="cls-1" points="125.81 107.59 125.81 107.59 125.81 107.59 125.81 107.59"/>
    <path class="cls-1" d="M242.38,89.38h0v0Z"/>
    <polygon class="cls-1" points="214.2 74.5 220.03 74.5 220.03 53.09 198.63 53.09 198.63 58.92 214.2 58.92 214.2 74.5"/>
    <polygon class="cls-1" points="202.72 85.97 208.55 85.97 208.55 64.57 187.15 64.57 187.15 70.4 202.72 70.4 202.72 85.97"/>
    <polygon class="cls-1" points="191.24 97.45 197.07 97.45 197.07 76.05 175.67 76.05 175.67 81.88 191.24 81.88 191.24 97.45"/>
    <polygon class="cls-1" points="179.76 108.93 185.59 108.93 185.59 87.53 164.19 87.53 164.19 93.36 179.76 93.36 179.76 108.93"/>
    <polygon class="cls-1" points="168.28 120.42 174.11 120.42 174.11 99.01 152.71 99.01 152.71 104.84 168.28 104.84 168.28 120.42"/>
    <polygon class="cls-1" points="236.97 51.72 242.81 51.72 242.81 30.32 221.4 30.32 221.4 36.15 236.97 36.15 236.97 51.72"/>
    <polygon class="cls-1" points="225.49 63.2 231.33 63.2 231.33 41.8 209.92 41.8 209.92 47.63 225.49 47.63 225.49 63.2"/>
    <polygon class="cls-1" points="25.78 189.18 25.78 189.18 25.79 189.17 25.78 189.18"/>
    <path class="cls-1" d="M143.65,156.49h0v0Z"/>
    <polygon class="cls-1" points="116.85 129.71 116.86 129.71 116.86 129.71 116.85 129.71"/>
    <polygon class="cls-1" points="25.74 189.26 25.78 189.18 25.78 189.18 25.74 189.26"/>
    <path class="cls-1" d="M20.22,200.69h0Z"/>
    <polygon class="cls-1" points="69.54 225.49 69.54 219.65 53.97 219.65 53.97 204.08 48.13 204.08 48.13 225.49 69.54 225.49"/>
    <polygon class="cls-1" points="81.02 214.01 81.02 208.17 65.45 208.17 65.45 192.6 59.61 192.6 59.61 214.01 81.02 214.01"/>
    <polygon class="cls-1" points="92.5 196.69 76.93 196.69 76.93 181.12 71.09 181.12 71.09 202.53 92.5 202.53 92.5 196.69"/>
    <polygon class="cls-1" points="103.98 191.05 103.98 185.21 88.41 185.21 88.41 169.64 82.57 169.64 82.57 191.05 103.98 191.05"/>
    <polygon class="cls-1" points="115.46 173.73 99.89 173.73 99.89 158.16 94.05 158.16 94.05 179.57 115.46 179.57 115.46 173.73"/>
    <polygon class="cls-1" points="46.77 242.43 31.2 242.42 31.19 226.85 25.36 226.85 25.36 248.26 46.77 248.26 46.77 242.43"/>
    <polygon class="cls-1" points="58.25 230.94 42.67 230.94 42.67 215.37 36.84 215.37 36.84 236.78 58.25 236.78 58.25 230.94"/>
    <path class="cls-1" d="M9.07,259.15h0v0l.17,4.94,4.93.16h0c.33,0,1.4,0,3.07,0A161.08,161.08,0,0,0,46.62,261h0c18.3-3.73,41.06-11.64,58.44-29,12.54-12.56,22.36-26,29-39,1.1,2.15,2.29,4.32,3.57,6.49.85,1.43,1.73,2.88,2.67,4.35h0l2.93,4.41v0q2.06,3,4.34,6l0,0,.34.42c1.71,2.26,3.51,4.48,5.4,6.69l.33.43,0,0,0,0c.59.69,1.2,1.38,1.82,2.08l1.6,1.78v0Q160,229,163.11,232l.28.28,0,0,1.61,1.53h0a85.09,85.09,0,0,0,8,6.71l0,0,.18.13h0c2,1.52,4.15,2.94,6.26,4.25l.11.06.08,0c1.4.87,2.81,1.71,4.25,2.5,3.16,1.75,6.34,3.3,9.54,4.71h0c.64.29,1.3.56,1.92.82a137.64,137.64,0,0,0,20.29,6.6l.14,0,.1,0c1.89.46,3.72.86,5.51,1.24h0l.69.14h.06l.54.11h0c1.48.28,2.95.55,4.39.78h.12a164.39,164.39,0,0,0,19.07,2.06c2.37.11,4.26.15,5.58.15h2l4.94-.16.07-2.31.09-2.6v0c0-.28,0-1.32,0-2.95a161.69,161.69,0,0,0-3.29-29.5h0c-3.73-18.3-11.63-41.06-29-58.44-12.56-12.54-26-22.37-39-29,2.14-1.1,4.33-2.28,6.5-3.58h0c1.43-.85,2.88-1.73,4.34-2.67l0,0,4.42-2.93h0c2-1.38,4-2.82,6-4.34l0,0,.42-.34c2.27-1.72,4.49-3.52,6.72-5.4l.42-.33.06-.05.06,0c.65-.59,1.34-1.18,2-1.8l1.78-1.6h0c2.11-1.9,4.17-3.89,6.21-5.93l.28-.28,0,0,0,0,1.53-1.59h0a86.14,86.14,0,0,0,6.72-8l0,0,.14-.2c1.5-2,2.92-4.15,4.23-6.27l.06-.09,0-.08c.87-1.41,1.71-2.82,2.5-4.26,1.77-3.15,3.31-6.35,4.71-9.54h0v0h0c.27-.6.56-1.24.82-1.92h0l0-.06h0a138.64,138.64,0,0,0,6.57-20.22l0-.11v-.1c.47-1.9.87-3.74,1.25-5.54h0l.15-.72v0h0a2.48,2.48,0,0,1,.09-.39v-.07l0-.07c.29-1.5.54-3,.77-4.42V46A164.17,164.17,0,0,0,259,26.92c.11-2.36.15-4.26.15-5.58,0-.66,0-1.17,0-1.53v-.45l-.16-4.93L254,14.27h0c-.29,0-1.32,0-3,0a160.8,160.8,0,0,0-29.48,3.3c-18.31,3.72-41.07,11.62-58.45,29a159.38,159.38,0,0,0-29,39c-1.1-2.14-2.29-4.31-3.58-6.48-.84-1.44-1.72-2.88-2.66-4.35v0l-2.93-4.4,0,0c-1.37-2-2.81-4-4.34-6l0,0-.34-.42c-1.7-2.26-3.51-4.48-5.39-6.7l-.34-.42,0,0,0,0c-.59-.69-1.19-1.39-1.82-2.09L111,52.77v0q-2.85-3.14-5.93-6.2l-.28-.28v0l-1.62-1.55h0a89.64,89.64,0,0,0-8-6.71l0,0-.18-.13h0c-2-1.51-4.15-2.93-6.26-4.24l-.09-.06-.09,0c-1.4-.87-2.82-1.71-4.26-2.5-3.15-1.76-6.34-3.31-9.53-4.71h0c-.64-.3-1.3-.57-1.92-.83h0A138,138,0,0,0,52.4,18.84l-.12,0-.09,0c-1.9-.46-3.74-.86-5.54-1.24h0l-.69-.13h-.06l-.53-.1h-.05c-1.48-.29-2.94-.55-4.37-.78h-.13a164.11,164.11,0,0,0-19.06-2c-2.37-.12-4.27-.15-5.58-.16h-2l-4.94.16-.16,4.92v0c0,.29,0,1.33,0,2.95a161.61,161.61,0,0,0,3.29,29.49h0c3.73,18.29,11.64,41.05,29,58.44,12.56,12.53,26,22.36,39,29-2.15,1.1-4.32,2.29-6.49,3.58-1.43.84-2.88,1.72-4.35,2.66l0,0-4.37,2.91,0,0c-2,1.37-4,2.81-6,4.34l0,0-.4.34c-2.27,1.71-4.49,3.51-6.71,5.4l-.42.34,0,0,0,0c-.69.59-1.38,1.19-2.08,1.82l-1.78,1.59h0q-3.12,2.85-6.2,5.93l-.28.28h0l0,0-1.52,1.6h0a88,88,0,0,0-6.71,8l0,0-.13.19c-1.51,2-2.93,4.14-4.24,6.25l-.07.11,0,.09c-.87,1.4-1.7,2.8-2.49,4.24-1.75,3.15-3.3,6.34-4.71,9.53h0v0l0,0h0c-.29.64-.56,1.29-.82,1.92A138.06,138.06,0,0,0,13.63,221l0,.11,0,.09c-.46,1.9-.87,3.74-1.25,5.55v0c-.05.24-.09.47-.14.7v0h0c0,.1-.06.28-.11.55h0v0h0c-.28,1.48-.55,2.94-.78,4.38v.13a164.26,164.26,0,0,0-2.06,19.06c-.11,2.37-.15,4.27-.15,5.58,0,.66,0,1.17,0,1.53Zm125-78.06-.27-.68a68,68,0,0,1-4.06-15.59v0a44,44,0,0,1-.32-8h0v-.2h0s0-.09,0-.13h9.12v-.25h.09c0,.19,0,.37.05.56v0a48.75,48.75,0,0,1-1.18,13.15,74.12,74.12,0,0,1-2.47,8.55Q134.59,179.8,134.08,181.09Zm89.26-9.28c16.33,16.34,24,38.17,27.62,55.93h0c.75,3.66,1.32,7.12,1.76,10.34h-4v15.58H233.13V258c-1.59-.21-3.21-.45-4.91-.73h-.11c-1.41-.23-2.86-.49-4.34-.78h0l-.54-.11h0l-.68-.14c-1.81-.38-3.63-.78-5.5-1.24l-.14,0h-.06a133.12,133.12,0,0,1-19.45-6.33h0c-.61-.25-1.22-.5-1.77-.76h0c-3.1-1.36-6.16-2.85-9.18-4.53h0c-1.4-.77-2.78-1.58-4.16-2.44l-.11-.07h0c-2-1.25-4-2.59-5.9-4l0,0-.14-.1a82.74,82.74,0,0,1-7.55-6.31l-1.57-1.5-.26-.26q-3-3-5.76-6l-1.58-1.77c-.58-.65-1.15-1.31-1.73-2l-.31-.4,0,0,0,0c-1.87-2.19-3.64-4.37-5.31-6.58l0-.05-.33-.39q-2.19-2.88-4.17-5.74l-2.87-4.33c-.9-1.39-1.74-2.78-2.57-4.18-1.25-2.12-2.42-4.25-3.49-6.34v0l0,0-.12-.24,0-.08,0-.08c-.21-.42-.41-.8-.58-1.18v0l0,0-.76-1.61c.42-.93.82-1.86,1.19-2.78h0c.17-.37.29-.7.4-1,.48-1.19.92-2.36,1.33-3.5v0l0-.05,0,0a78,78,0,0,0,2.64-9.12h0c.23-1.06.41-2.1.58-3.14h19.93V148.08A75.59,75.59,0,0,0,177,144.16h0l2.42-.94h0l0,0c.88-.37,1.79-.78,2.69-1.19.54.24,1.07.48,1.61.75l0,0h0C196.76,149.12,210.53,159,223.34,171.81Zm-72.06-42.09h0l-.27,0v-7.62h-7.34v-.06h0a46.11,46.11,0,0,0,0-5.75H156.8v13.44A46.34,46.34,0,0,0,151.28,129.72Zm13.44,6.11a75.57,75.57,0,0,1,8.55,2.47c.88.32,1.74.65,2.6,1l-.66.26a68.28,68.28,0,0,1-15.59,4.06h0a43.92,43.92,0,0,1-8,.32h-.21l-.13,0v-9.11H151v-.09l.16,0,.42,0A48.64,48.64,0,0,1,164.72,135.83Zm-21.07,20.66c0-.1,0-.19,0-.29h7.61v-7.35h.06a48.12,48.12,0,0,0,5.75-.05V162H143.61A46.16,46.16,0,0,0,143.65,156.49Zm-6.1-66.89v0c6.37-13,16.26-26.75,29-39.56,16.34-16.33,38.17-24,55.94-27.61h0c3.65-.75,7.11-1.32,10.33-1.77v4h15.57V40.24h4.32c-.22,1.58-.45,3.2-.73,4.89l0,.06v.06c-.22,1.42-.48,2.88-.76,4.35h0c0,.16-.08.34-.12.56h0c0,.23-.09.46-.13.68-.38,1.81-.78,3.63-1.24,5.5l0,.1v.07A133.45,133.45,0,0,1,243.38,76l0,0v0c-.21.56-.47,1.13-.74,1.72l0,0c-1.36,3.1-2.84,6.17-4.52,9.17v0q-1.16,2.08-2.45,4.16l-.06.1,0,0c-1.24,2-2.58,4-4,5.93l0,0-.09.13a83.15,83.15,0,0,1-6.32,7.53h0l-1.51,1.58-.26.26c-2,2-4,3.93-6,5.75h0l-1.78,1.6c-.63.56-1.3,1.14-2,1.75l-.39.3,0,0,0,0c-2.21,1.87-4.4,3.64-6.61,5.31l0,0-.39.32c-1.93,1.47-3.84,2.86-5.75,4.18L196,128.91c-1.4.9-2.79,1.74-4.19,2.57h0c-2.09,1.25-4.21,2.4-6.32,3.48h0l-.28.13-.08,0-.08,0-1.23.62-1.64.77c-.92-.42-1.85-.83-2.73-1.2h0l-1-.4h0c-1.19-.48-2.37-.91-3.51-1.33h0a79.33,79.33,0,0,0-9.13-2.64h0c-1.06-.23-2.11-.41-3.15-.58V110.49H142.88A75,75,0,0,0,139,96.41h0c-.31-.8-.63-1.62-1-2.44h0c-.38-.91-.8-1.83-1.21-2.75C137,90.67,137.28,90.14,137.55,89.6Zm-3.47,7.88c.09.23.19.46.27.68h0a67.77,67.77,0,0,1,4.06,15.59v0a42.21,42.21,0,0,1,.32,8v.2h0s0,.08,0,.13H129.6l0,.24h-.1a1.11,1.11,0,0,0,0-.17l0-.39v0a48.61,48.61,0,0,1,1.19-13.14h0a74.26,74.26,0,0,1,2.47-8.56C133.42,99.21,133.75,98.34,134.08,97.48Zm-89.25,9.29c-16.34-16.34-24-38.18-27.63-55.93h0c-.75-3.65-1.32-7.12-1.76-10.34h4V24.92H35V20.6c1.58.22,3.2.45,4.91.74h.1c1.41.22,2.86.49,4.35.77h0l.52.11h0l.68.13c1.82.38,3.64.78,5.51,1.24l.11,0h.06A133,133,0,0,1,70.79,30h0c.62.25,1.23.51,1.77.76h0c3.09,1.36,6.15,2.85,9.17,4.53h0c1.4.77,2.78,1.59,4.17,2.45l.09.06h0c2,1.25,4,2.59,5.91,4l0,0,.14.1a84.12,84.12,0,0,1,7.55,6.31l1.56,1.5.26.26c2,2,3.91,4,5.76,6l1.58,1.77c.58.64,1.15,1.3,1.74,2l.31.39,0,0,0,0c1.87,2.2,3.64,4.38,5.3,6.59l0,0,.32.39c1.47,1.92,2.85,3.83,4.17,5.74l2.88,4.32c.89,1.4,1.74,2.79,2.56,4.19,1.26,2.12,2.42,4.24,3.49,6.34v0l0,0,.12.27,0,.07,0,.08c.21.41.4.8.58,1.18v0l0,0c.27.54.51,1.07.76,1.6-.4.88-.79,1.76-1.16,2.66h0c-.18.41-.32.77-.43,1-.49,1.19-.92,2.37-1.33,3.5v0a78.39,78.39,0,0,0-2.63,9.15c-.23,1.06-.42,2.11-.59,3.15H105.28v19.75A75,75,0,0,0,91.2,134.4h0c-.81.31-1.63.63-2.45,1h0c-.92.38-1.84.79-2.76,1.2-.53-.25-1.06-.49-1.58-.75h0C71.41,129.46,57.64,119.56,44.83,106.77ZM93,139A67.64,67.64,0,0,1,108.55,135h0a42.31,42.31,0,0,1,8-.32h0c.11,0,.21,0,.32,0v9.11h.25v.1H117l-.41,0a48.64,48.64,0,0,1-13.14-1.18,76.28,76.28,0,0,1-8.55-2.48c-.88-.32-1.74-.65-2.61-1L93,139Zm23.92,9.84h0l.25,0v7.62h7.34v.05h0a48,48,0,0,0,0,5.74H111.37V148.81A46.19,46.19,0,0,0,116.88,148.86Zm7.63-26.79h0l0,.31h-7.61v7.34h-.06a46,46,0,0,0-5.74,0V116.57h13.44A48.24,48.24,0,0,0,124.51,122.07ZM16.13,233.43v-.11q.34-2.12.78-4.35v0c0-.09.06-.27.11-.53h0c.05-.24.09-.46.14-.69.38-1.81.78-3.63,1.23-5.5l0-.1v-.06a131.57,131.57,0,0,1,6.34-19.48v0c.25-.61.5-1.22.75-1.77l0,0v0c1.36-3.09,2.85-6.15,4.53-9.17h0c.77-1.4,1.58-2.78,2.44-4.17l.08-.11v0c1.24-2,2.58-4,4-5.88l0,0,.1-.14a81.26,81.26,0,0,1,6.32-7.55l1.5-1.57.25-.25q3-3,6-5.76l1.76-1.59,2-1.73.4-.31,0,0,0,0c2.19-1.87,4.38-3.64,6.59-5.3l0,0,.4-.33q2.88-2.19,5.74-4.17l4.33-2.88c1.4-.9,2.79-1.74,4.18-2.56,2.13-1.26,4.25-2.42,6.34-3.49l0,0,.26-.13.07,0,.08,0c.41-.21.8-.4,1.19-.58h0l0,0L86,142c.89.39,1.77.79,2.66,1.15h0l0,0,.07,0h0c.37.17.7.29.94.39h0c1.2.49,2.37.92,3.51,1.33h0a80.19,80.19,0,0,0,9.13,2.64h0c1.06.23,2.1.42,3.14.59v19.93h19.75a75.8,75.8,0,0,0,3.92,14.08h0c.31.8.63,1.62,1,2.44h0c.37.91.79,1.82,1.2,2.74-.25.53-.49,1.07-.76,1.6l0,.06,0,0c-6.35,13-16.25,26.75-29,39.56-16.34,16.33-38.17,24-55.93,27.63h0c-3.66.75-7.12,1.32-10.34,1.76v-4H19.71V238.33H15.4C15.61,236.75,15.85,235.13,16.13,233.43Z"/>
    <polygon class="cls-1" points="24.81 202.53 24.8 202.55 24.8 202.55 24.81 202.53"/>
    <polygon class="cls-1" points="183.98 247.59 183.97 247.59 183.96 247.58 183.98 247.59"/>
    <path class="cls-1" d="M195.48,253.15h0Z"/>
    <polygon class="cls-1" points="198.88 225.24 220.28 225.24 220.28 203.83 214.45 203.83 214.45 219.4 198.88 219.4 198.88 225.24"/>
    <polygon class="cls-1" points="187.4 213.76 208.8 213.76 208.8 192.35 202.97 192.35 202.97 207.92 187.4 207.92 187.4 213.76"/>
    <polygon class="cls-1" points="175.92 202.28 197.32 202.28 197.32 180.87 191.49 180.87 191.49 196.44 175.92 196.44 175.92 202.28"/>
    <polygon class="cls-1" points="180.01 184.96 164.44 184.96 164.44 190.8 185.84 190.79 185.84 169.39 180.01 169.39 180.01 184.96"/>
    <polygon class="cls-1" points="174.36 157.91 168.53 157.91 168.53 173.48 152.96 173.48 152.96 179.32 174.36 179.32 174.36 157.91"/>
    <polygon class="cls-1" points="221.65 248.01 243.06 248.01 243.06 226.6 237.22 226.6 237.22 242.18 221.65 242.18 221.65 248.01"/>
    <polygon class="cls-1" points="210.17 236.53 231.57 236.53 231.57 215.12 225.74 215.12 225.74 230.69 210.17 230.69 210.17 236.53"/>
    <polygon class="cls-1" points="102.4 147.57 102.39 147.57 102.39 147.57 102.4 147.57"/>
    <polygon class="cls-1" points="84.19 30.98 84.19 30.99 84.2 30.99 84.19 30.98"/>
    <polygon class="cls-1" points="69.29 53.34 47.88 53.34 47.88 74.74 53.72 74.74 53.72 59.17 69.29 59.17 69.29 53.34"/>
    <polygon class="cls-1" points="80.77 64.82 59.36 64.82 59.36 86.22 65.2 86.22 65.2 70.65 80.77 70.65 80.77 64.82"/>
    <polygon class="cls-1" points="92.25 76.3 70.84 76.3 70.84 97.7 76.68 97.7 76.68 82.13 92.25 82.13 92.25 76.3"/>
    <polygon class="cls-1" points="88.16 93.61 103.73 93.61 103.73 87.78 82.32 87.78 82.32 109.18 88.16 109.18 88.16 93.61"/>
    <polygon class="cls-1" points="93.8 120.66 99.64 120.66 99.64 105.09 115.21 105.09 115.21 99.26 93.8 99.26 93.8 120.66"/>
    <polygon class="cls-1" points="46.52 30.57 25.11 30.57 25.11 51.97 30.95 51.97 30.95 36.4 46.52 36.4 46.52 30.57"/>
    <polygon class="cls-1" points="58 42.05 36.59 42.05 36.59 63.45 42.42 63.45 42.42 47.88 58 47.88 58 42.05"/>
  </g>
</svg>
