<svg id="Layer_1" data-name="Layer 1" xmlns="http://www.w3.org/2000/svg" viewBox="0 0 400 400">
  <defs>
    <style>
      .cls-1 {
        fill: #ff9e18;
      }
    </style>
  </defs>
  <g>
    <path class="cls-1" d="M40.38,244.14l1.35-.39-1-3.33,3.4-.91-.4-1.31-3.41.88a27.74,27.74,0,0,1-.77-3.39l-1.37.32a28.8,28.8,0,0,0,.77,3.43l-3.41.88.42,1.37,3.4-.91Z"/>
    <polygon class="cls-1" points="31.87 241.26 32.3 242.67 34.12 242.18 33.69 240.79 31.87 241.26"/>
    <polygon class="cls-1" points="45.7 239.08 47.52 238.59 47.13 237.32 45.31 237.79 45.7 239.08"/>
    <polygon class="cls-1" points="37.7 234.31 39.08 234 38.71 232.18 37.33 232.47 37.7 234.31"/>
    <polygon class="cls-1" points="40.78 245.86 41.33 247.65 42.67 247.23 42.13 245.45 40.78 245.86"/>
    <polygon class="cls-1" points="35.96 213.47 39.47 213.13 39.34 211.77 35.83 212.08 35.49 208.61 34.08 208.71 34.42 212.21 30.91 212.52 31.05 213.94 34.56 213.6 34.9 217.1 36.3 216.94 35.96 213.47"/>
    <polygon class="cls-1" points="27.16 212.85 27.3 214.31 29.18 214.13 29.04 212.68 27.16 212.85"/>
    <polygon class="cls-1" points="42.98 212.79 42.85 211.46 40.98 211.63 41.11 212.97 42.98 212.79"/>
    <polygon class="cls-1" points="33.8 206.96 35.21 206.88 35.03 205.03 33.62 205.09 33.8 206.96"/>
    <polygon class="cls-1" points="36.35 218.69 34.95 218.87 35.13 220.74 36.53 220.54 36.35 218.69"/>
    <path class="cls-1" d="M33.81,189.52l1.41.06a22.38,22.38,0,0,1,.21-3.47l3.52.24L39.1,185l-3.52-.27.36-3.47-1.4-.13-.37,3.49-3.52-.26-.15,1.43L34,186A22.9,22.9,0,0,0,33.81,189.52Z"/>
    <polygon class="cls-1" points="28.78 184.21 26.9 184.06 26.75 185.52 28.63 185.65 28.78 184.21"/>
    <polygon class="cls-1" points="40.74 185.11 40.59 186.46 42.47 186.58 42.61 185.25 40.74 185.11"/>
    <polygon class="cls-1" points="36.21 177.66 34.81 177.49 34.61 179.36 36.01 179.51 36.21 177.66"/>
    <polygon class="cls-1" points="35.09 191.32 33.68 191.27 33.67 193.15 35.09 193.18 35.09 191.32"/>
    <path class="cls-1" d="M37.49,162.16l1.38.3.71-3.41,3.43.81.28-1.33-3.43-.85a26.45,26.45,0,0,1,.83-3.38l-1.36-.37a25.1,25.1,0,0,0-.84,3.42l-3.42-.85-.3,1.41,3.43.81Z"/>
    <polygon class="cls-1" points="33.24 156.05 31.41 155.6 31.11 157.04 32.94 157.47 33.24 156.05"/>
    <polygon class="cls-1" points="46.71 159.37 44.88 158.92 44.61 160.24 46.44 160.68 46.71 159.37"/>
    <polygon class="cls-1" points="41.66 150.83 40.3 150.43 39.74 152.22 41.1 152.61 41.66 150.83"/>
    <polygon class="cls-1" points="36.63 165.7 38.01 165.97 38.39 164.15 37.01 163.86 36.63 165.7"/>
    <path class="cls-1" d="M158.62,39.15l.92,3.41,1.3-.41L160,38.74a29.89,29.89,0,0,1,3.4-.77L163,36.6a30.9,30.9,0,0,0-3.43.77L158.72,34l-1.37.42.91,3.41-3.36,1,.39,1.35Z"/>
    <polygon class="cls-1" points="158.25 32.14 157.78 30.32 156.38 30.74 156.86 32.56 158.25 32.14"/>
    <polygon class="cls-1" points="159.96 44.15 160.45 45.96 161.72 45.57 161.25 43.75 159.96 44.15"/>
    <polygon class="cls-1" points="166.86 37.15 166.57 35.77 164.73 36.14 165.04 37.52 166.86 37.15"/>
    <polygon class="cls-1" points="153.59 40.57 153.18 39.22 151.39 39.77 151.81 41.12 153.59 40.57"/>
    <polygon class="cls-1" points="185.57 34.4 185.91 37.92 187.27 37.78 186.96 34.27 190.43 33.94 190.34 32.53 186.84 32.87 186.53 29.35 185.1 29.49 185.44 33 181.94 33.34 182.1 34.74 185.57 34.4"/>
    <polygon class="cls-1" points="186.36 27.48 186.19 25.61 184.74 25.75 184.92 27.62 186.36 27.48"/>
    <polygon class="cls-1" points="186.07 39.55 186.25 41.43 187.58 41.3 187.42 39.42 186.07 39.55"/>
    <polygon class="cls-1" points="194.01 33.47 193.95 32.06 192.08 32.24 192.16 33.65 194.01 33.47"/>
    <polygon class="cls-1" points="180.35 34.79 180.17 33.39 178.31 33.57 178.5 34.97 180.35 34.79"/>
    <path class="cls-1" d="M212.7,37.39l1.35.15.27-3.52,3.47.37.13-1.41-3.49-.37.26-3.52L213.27,29,213,32.47a21.71,21.71,0,0,0-3.51-.22l-.06,1.41a22.38,22.38,0,0,1,3.47.21Z"/>
    <polygon class="cls-1" points="214.98 25.34 213.52 25.19 213.39 27.07 214.84 27.22 214.98 25.34"/>
    <polygon class="cls-1" points="212.46 40.91 213.79 41.06 213.93 39.18 212.59 39.03 212.46 40.91"/>
    <polygon class="cls-1" points="221.55 33.25 219.69 33.05 219.53 34.45 221.38 34.65 221.55 33.25"/>
    <polygon class="cls-1" points="207.77 32.13 205.89 32.12 205.86 33.53 207.72 33.53 207.77 32.13"/>
    <path class="cls-1" d="M239.18,41.45l1.33.28.85-3.43a26,26,0,0,1,3.38.83l.37-1.36a26.89,26.89,0,0,0-3.41-.83l.84-3.43-1.41-.29-.81,3.43-3.44-.72-.3,1.38L240,38Z"/>
    <polygon class="cls-1" points="243.44 29.86 242 29.55 241.57 31.39 242.99 31.68 243.44 29.86"/>
    <polygon class="cls-1" points="238.36 44.88 239.67 45.16 240.12 43.33 238.8 43.05 238.36 44.88"/>
    <polygon class="cls-1" points="248.61 38.75 246.82 38.18 246.44 39.54 248.21 40.1 248.61 38.75"/>
    <polygon class="cls-1" points="235.18 35.45 233.34 35.07 233.08 36.45 234.9 36.83 235.18 35.45"/>
    <path class="cls-1" d="M362.48,236.68l-1.37-.33a32.78,32.78,0,0,1-.77,3.4l-3.42-.88-.4,1.3,3.41.91-1,3.34,1.35.39,1-3.36,3.41.91.42-1.37-3.41-.89A30.23,30.23,0,0,0,362.48,236.68Z"/>
    <polygon class="cls-1" points="366.52 242.85 368.33 243.33 368.76 241.93 366.94 241.46 366.52 242.85"/>
    <polygon class="cls-1" points="353.12 239.26 354.93 239.75 355.33 238.46 353.51 237.99 353.12 239.26"/>
    <polygon class="cls-1" points="363.31 233.14 361.93 232.84 361.56 234.67 362.94 234.98 363.31 233.14"/>
    <polygon class="cls-1" points="357.96 247.9 359.31 248.32 359.86 246.53 358.51 246.12 357.96 247.9"/>
    <polygon class="cls-1" points="366.55 209.37 365.14 209.28 364.81 212.75 361.29 212.44 361.16 213.79 364.68 214.13 364.34 217.6 365.74 217.77 366.08 214.27 369.59 214.61 369.73 213.18 366.21 212.87 366.55 209.37"/>
    <polygon class="cls-1" points="373.47 213.51 371.6 213.35 371.46 214.79 373.33 214.97 373.47 213.51"/>
    <polygon class="cls-1" points="357.65 213.46 359.52 213.64 359.66 212.29 357.78 212.13 357.65 213.46"/>
    <polygon class="cls-1" points="366.84 207.63 367.02 205.76 365.61 205.69 365.43 207.55 366.84 207.63"/>
    <polygon class="cls-1" points="364.11 221.21 365.51 221.4 365.69 219.54 364.29 219.35 364.11 221.21"/>
    <path class="cls-1" d="M365.06,185.39l-3.52.26.15,1.36,3.52-.24a22.51,22.51,0,0,1,.21,3.48l1.41-.07a21.58,21.58,0,0,0-.22-3.5l3.52-.24L370,185l-3.51.27-.38-3.5-1.4.14Z"/>
    <polygon class="cls-1" points="373.89 186.19 373.74 184.73 371.86 184.87 372.01 186.32 373.89 186.19"/>
    <polygon class="cls-1" points="359.9 185.78 358.02 185.92 358.17 187.25 360.04 187.12 359.9 185.78"/>
    <polygon class="cls-1" points="364.43 178.32 364.62 180.17 366.02 180.02 365.83 178.16 364.43 178.32"/>
    <polygon class="cls-1" points="366.95 191.94 365.55 191.99 365.55 193.85 366.96 193.81 366.95 191.94"/>
    <path class="cls-1" d="M361.31,154.6,360,155a24.14,24.14,0,0,1,.82,3.38l-3.42.84.28,1.34,3.43-.81.71,3.41,1.38-.3-.72-3.44,3.43-.82-.29-1.4-3.43.84A26.48,26.48,0,0,0,361.31,154.6Z"/>
    <polygon class="cls-1" points="369.52 157.7 369.22 156.27 367.4 156.72 367.69 158.14 369.52 157.7"/>
    <polygon class="cls-1" points="353.92 160.04 354.2 161.34 356.02 160.91 355.75 159.59 353.92 160.04"/>
    <polygon class="cls-1" points="360.9 152.89 360.33 151.1 358.98 151.5 359.54 153.27 360.9 152.89"/>
    <polygon class="cls-1" points="363.63 164.53 362.24 164.81 362.62 166.63 364.01 166.37 363.63 164.53"/>
    <path class="cls-1" d="M160.84,356.16l-1.3-.4-.92,3.4-3.33-1-.39,1.36,3.36,1-.91,3.4,1.37.43.88-3.42a30.94,30.94,0,0,0,3.43.78l.33-1.38a27.89,27.89,0,0,1-3.4-.77Z"/>
    <polygon class="cls-1" points="156.38 367.57 157.78 368 158.25 366.18 156.86 365.75 156.38 367.57"/>
    <polygon class="cls-1" points="161.72 352.74 160.45 352.35 159.96 354.17 161.25 354.56 161.72 352.74"/>
    <polygon class="cls-1" points="164.73 362.17 166.57 362.54 166.86 361.16 165.04 360.8 164.73 362.17"/>
    <polygon class="cls-1" points="151.39 358.55 153.18 359.1 153.59 357.74 151.81 357.2 151.39 358.55"/>
    <polygon class="cls-1" points="187.27 360.53 185.91 360.4 185.57 363.91 182.1 363.57 181.94 364.97 185.44 365.31 185.1 368.82 186.53 368.96 186.84 365.45 190.34 365.79 190.43 364.38 186.96 364.04 187.27 360.53"/>
    <polygon class="cls-1" points="184.74 372.57 186.19 372.71 186.36 370.83 184.92 370.7 184.74 372.57"/>
    <polygon class="cls-1" points="187.58 357.02 186.25 356.89 186.07 358.76 187.42 358.89 187.58 357.02"/>
    <polygon class="cls-1" points="192.08 366.07 193.95 366.25 194.01 364.85 192.16 364.67 192.08 366.07"/>
    <polygon class="cls-1" points="178.31 364.74 180.17 364.92 180.35 363.52 178.5 363.35 178.31 364.74"/>
    <path class="cls-1" d="M214.32,364.29l-.27-3.51-1.35.14.23,3.52a22.38,22.38,0,0,1-3.47.21l.06,1.41a22.9,22.9,0,0,0,3.51-.21l.24,3.52,1.42-.15-.26-3.52,3.49-.37-.13-1.4Z"/>
    <polygon class="cls-1" points="213.39 371.24 213.52 373.12 214.98 372.97 214.84 371.1 213.39 371.24"/>
    <polygon class="cls-1" points="213.93 359.13 213.79 357.26 212.46 357.4 212.59 359.28 213.93 359.13"/>
    <polygon class="cls-1" points="219.53 363.86 219.69 365.26 221.55 365.06 221.38 363.67 219.53 363.86"/>
    <polygon class="cls-1" points="205.86 364.79 205.89 366.2 207.77 366.19 207.72 364.78 205.86 364.79"/>
    <path class="cls-1" d="M241.36,360l-.85-3.43-1.33.28.81,3.44-3.41.71.3,1.38,3.44-.72.81,3.43,1.41-.3-.84-3.42a26.89,26.89,0,0,0,3.41-.83l-.37-1.37A26,26,0,0,1,241.36,360Z"/>
    <polygon class="cls-1" points="241.57 366.93 242 368.76 243.44 368.46 242.99 366.63 241.57 366.93"/>
    <polygon class="cls-1" points="240.12 354.99 239.67 353.16 238.36 353.43 238.8 355.26 240.12 354.99"/>
    <polygon class="cls-1" points="246.44 358.78 246.82 360.13 248.61 359.57 248.21 358.21 246.44 358.78"/>
    <polygon class="cls-1" points="233.08 361.86 233.34 363.24 235.18 362.86 234.9 361.48 233.08 361.86"/>
    <path class="cls-1" d="M367,290.74a190.28,190.28,0,0,0,0-181.48l0,0c10.1-26.28,15-56.71,12.88-89.13C347.43,18.08,317,22.94,290.74,33a190.28,190.28,0,0,0-181.48,0C83,22.94,52.57,18.08,20.17,20.17,18.08,52.57,22.94,83,33,109.27h0a190.28,190.28,0,0,0,0,181.48c-10.09,26.27-15,56.69-12.85,89.09C52.57,381.92,83,377.06,109.26,367a190.28,190.28,0,0,0,181.48,0c26.27,10.09,56.69,14.95,89.09,12.85,2.09-32.4-2.77-62.82-12.87-89.09ZM382.16,200A181.31,181.31,0,0,1,363,281.26h0a170.78,170.78,0,0,0-9.08-17.5,159.75,159.75,0,0,0-10.07-15,151.91,151.91,0,0,0,0-97.59,159.52,159.52,0,0,0,10.06-15A170.36,170.36,0,0,0,363,118.7v0A181.28,181.28,0,0,1,382.16,200Zm-41.09,45.21a148.73,148.73,0,0,0-27.58-26.6c.49.36,1,.7,1.47,1.07a115.43,115.43,0,0,0,0-39.36l-1.18.86h0a148.7,148.7,0,0,0,27.33-26.43l-.12.15a148.25,148.25,0,0,1,0,90.22ZM218.71,313.63h0a148.44,148.44,0,0,0,26.5,27.45l-.11-.09a148.25,148.25,0,0,1-90.22,0l-.09.07a149.24,149.24,0,0,0,26.49-27.43h0c-.33.44-.64.89-1,1.33a115.43,115.43,0,0,0,39.36,0C219.35,314.52,219,314.07,218.71,313.63ZM200,272.87a72.89,72.89,0,1,1,51.52-21.35A72.65,72.65,0,0,1,200,272.87ZM52,200a148.11,148.11,0,0,1,7-45.11l-.06-.07a149.15,149.15,0,0,0,27.53,26.55c-.48-.36-1-.69-1.44-1.05a115.43,115.43,0,0,0,0,39.36c.47-.36,1-.69,1.43-1.05a149.51,149.51,0,0,0-27.53,26.56l.07-.08A148.16,148.16,0,0,1,52,200ZM113,208.7a87.39,87.39,0,0,0,3.86,18.38c-18.09,14.77-32.78,35.25-42.33,60.07a186.69,186.69,0,0,1-30-2.19c2.4-5.56,5.12-11,7.86-16C67.46,241.55,89.05,220.93,113,208.7Zm33.55-89.26c-3.12-2.1-6.16-3.78-9.45-5.58a131.37,131.37,0,0,0-20.85-9.21,137.47,137.47,0,0,1-3-22A150.08,150.08,0,0,1,143.9,98.15a144.72,144.72,0,0,1,13.2,10.13q3.08,2.64,5.91,5.34c1.65,1.59,3.3,3.37,4.87,5.1a87.3,87.3,0,0,0-13.21,6.55C152.09,123.28,149.41,121.33,146.59,119.44Zm3.75,8.66a88.26,88.26,0,0,0-10.67,8.7,117.35,117.35,0,0,0-15.08-5.88q-1.92-4.47-3.63-9.21c-1.1-3.13-1.95-6.16-2.82-9.37a136.85,136.85,0,0,1,17.29,7.11A155.08,155.08,0,0,1,150.34,128.1Zm-52.14,128a144.83,144.83,0,0,1,10.07-13.24c1.76-2.06,3.53-4,5.32-5.93,1.59-1.66,3.37-3.32,5.1-4.9a86.69,86.69,0,0,0,6.55,13.24c-2,2.58-3.9,5.25-5.77,8.06-2.08,3.13-3.75,6.17-5.54,9.47a131.75,131.75,0,0,0-9.13,20.88,136.22,136.22,0,0,1-22,3.06A149.47,149.47,0,0,1,98.2,256.11Zm21.25,8.46a153.87,153.87,0,0,1,8.65-14.91,88.26,88.26,0,0,0,8.7,10.67,117.35,117.35,0,0,0-5.88,15.08q-4.47,1.92-9.21,3.63c-3.12,1.1-6.16,1.95-9.37,2.82A136.85,136.85,0,0,1,119.45,264.57ZM181.38,86.49a149.22,149.22,0,0,0-26.59-27.56l.1.08a148.25,148.25,0,0,1,90.22,0l.06,0A149.25,149.25,0,0,0,218.61,86.5c.36-.48.7-1,1.07-1.46a115.43,115.43,0,0,0-39.36,0C180.68,85.52,181,86,181.38,86.49ZM281.31,168a86.69,86.69,0,0,0-6.55-13.24c2-2.58,3.9-5.25,5.77-8.06,2.08-3.13,3.75-6.17,5.54-9.48a131.24,131.24,0,0,0,9.13-20.87,137.36,137.36,0,0,1,22-3.07,149,149,0,0,1-15.41,30.64,143.62,143.62,0,0,1-10.07,13.25c-1.75,2.06-3.53,4-5.32,5.93C284.82,164.72,283,166.38,281.31,168Zm.55,119.7a137.46,137.46,0,0,1-17.29-7.11,153.87,153.87,0,0,1-14.91-8.65,88.26,88.26,0,0,0,10.67-8.7,117.35,117.35,0,0,0,15.08,5.88c1.28,3,2.49,6.05,3.63,9.21S281,284.45,281.86,287.66Zm-1.31-152.23a155.08,155.08,0,0,1-8.65,14.91,88.26,88.26,0,0,0-8.7-10.67,117.35,117.35,0,0,0,5.88-15.08q4.47-1.92,9.21-3.63c3.13-1.1,6.15-1.95,9.37-2.82A137.46,137.46,0,0,1,280.55,135.43ZM245.28,274.76c2.58,2,5.25,3.9,8.06,5.77,3.13,2.08,6.17,3.75,9.48,5.54a131.24,131.24,0,0,0,20.87,9.13,136.22,136.22,0,0,1,3.06,22,149.14,149.14,0,0,1-30.63-15.41,142,142,0,0,1-13.25-10.08c-2.06-1.75-4-3.52-5.93-5.31-1.66-1.59-3.32-3.37-4.9-5.1A86.69,86.69,0,0,0,245.28,274.76Zm80.15-161.91a186.48,186.48,0,0,1,30,2.19c-2.39,5.56-5.11,10.95-7.86,16-15,27.38-36.63,48-60.62,60.23a87.39,87.39,0,0,0-3.86-18.38C301.19,158.15,315.87,137.67,325.43,112.85Zm44.85-83.13a277.83,277.83,0,0,1-1.12,31.61C338.24,58.74,309.28,63.2,284.62,73s-44.81,25.28-59.13,43.4A87,87,0,0,0,208.7,113c12.23-24,32.85-45.58,60.23-60.63C297,36.89,332.12,28.35,370.28,29.72ZM200,17.84A181.31,181.31,0,0,1,281.26,37a171.57,171.57,0,0,0-17.49,9.08,161.07,161.07,0,0,0-15,10.07,151.73,151.73,0,0,0-97.59,0,159.52,159.52,0,0,0-15-10.06A170.67,170.67,0,0,0,118.74,37,181.28,181.28,0,0,1,200,17.84ZM115,44.56c5.56,2.39,10.95,5.11,16,7.85,27.38,15,48,36.64,60.23,60.63a87.39,87.39,0,0,0-18.38,3.86c-14.77-18.09-35.25-32.77-60.07-42.33A186.48,186.48,0,0,1,115,44.56ZM29.72,29.72a277.83,277.83,0,0,1,31.61,1.12C58.74,61.76,63.2,90.72,73,115.38s25.28,44.81,43.4,59.13A87,87,0,0,0,113,191.3c-24-12.23-45.58-32.85-60.63-60.23C36.89,103,28.35,67.88,29.72,29.72ZM17.84,200A181.28,181.28,0,0,1,37,118.74h0a168.87,168.87,0,0,0,9.09,17.5,161,161,0,0,0,10.06,15,151.88,151.88,0,0,0,0,97.58,161,161,0,0,0-10.06,15A170.67,170.67,0,0,0,37,281.26h0A181.31,181.31,0,0,1,17.84,200ZM29.72,370.28a277.83,277.83,0,0,1,1.12-31.61c30.92,2.59,59.88-1.88,84.54-11.66s44.81-25.28,59.13-43.41A86.27,86.27,0,0,0,191.3,287c-12.23,24-32.85,45.58-60.23,60.63C103,363.11,67.88,371.66,29.72,370.28ZM200,382.16A181.31,181.31,0,0,1,118.74,363a169.64,169.64,0,0,0,17.49-9.09,159.52,159.52,0,0,0,15-10.06,151.76,151.76,0,0,0,97.6,0,159.52,159.52,0,0,0,15,10.06A169.64,169.64,0,0,0,281.26,363,181.31,181.31,0,0,1,200,382.16Zm85-26.72c-5.56-2.39-10.95-5.11-16-7.85-27.38-15-48-36.64-60.23-60.63a87.16,87.16,0,0,0,18.37-3.86c14.78,18.09,35.26,32.78,60.08,42.33A186.48,186.48,0,0,1,285,355.44Zm85.32,14.84a277.83,277.83,0,0,1-31.61-1.12c2.59-30.92-1.87-59.88-11.66-84.54s-25.28-44.81-43.4-59.13A87,87,0,0,0,287,208.7c24,12.23,45.58,32.85,60.62,60.23C363.11,297,371.65,332.12,370.28,370.28Z"/>
    <path class="cls-1" d="M325.2,215.57c.93,1.79,1.93,3.63,2.81,5.5l2.55,5.74,3.8-5.14c1.25-1.76,2.38-3.58,3.58-5.43l-6.48,1.24Z"/>
    <path class="cls-1" d="M223.49,336.16c-.9-2-1.78-4-2.64-6,.19-2.17.35-4.34.49-6.54-1.54,1.35-3.13,2.6-4.75,3.92s-3.31,2.51-5,3.74c1.91.89,3.87,1.83,5.85,2.59S221.43,335.44,223.49,336.16Z"/>
    <path class="cls-1" d="M197.39,328.53c-1.8,1.08-3.65,2-5.53,3,1.75,1.19,3.56,2.36,5.41,3.41s3.73,2.23,5.67,3.2c-.6-2.11-1.17-4.2-1.72-6.34.51-2.11,1-4.28,1.45-6.42C201,326.5,199.19,327.46,197.39,328.53Z"/>
    <path class="cls-1" d="M178.26,326.73c-1.95.79-3.91,1.48-5.92,2.11,1.56,1.45,3.17,2.85,4.85,4.17s3.36,2.78,5.14,4l-.76-6.51,2.37-6.15C182.08,325.26,180.2,325.94,178.26,326.73Z"/>
    <path class="cls-1" d="M69,212.35c-.75,2-1.42,4-2.12,6s-1.24,4.12-1.84,6.24l5.82-3.08h6.56c-1.42-1.43-2.95-2.89-4.29-4.43S70.31,214,69,212.35Z"/>
    <path class="cls-1" d="M67.24,192.72l-3,5.65c-1,1.93-1.82,3.88-2.74,5.89l6.21-2.18,6.49,1c-1.18-1.63-2.5-3.3-3.59-5Z"/>
    <path class="cls-1" d="M73.82,184.3c-.94-1.79-1.94-3.63-2.82-5.5l-2.55-5.74-3.8,5.14c-1.25,1.76-2.38,3.58-3.57,5.43l6.47-1.24Z"/>
    <path class="cls-1" d="M176.51,63.84c.9,2,1.78,4,2.64,6-.19,2.17-.35,4.34-.49,6.54,1.54-1.35,3.13-2.6,4.75-3.92s3.32-2.51,5-3.74c-1.91-.89-3.87-1.83-5.85-2.59S178.57,64.56,176.51,63.84Z"/>
    <path class="cls-1" d="M202.61,71.47c1.8-1.08,3.65-2,5.53-3-1.75-1.19-3.56-2.36-5.4-3.41s-3.75-2.23-5.68-3.2c.6,2.11,1.17,4.2,1.72,6.34-.51,2.11-1,4.28-1.45,6.42C199.05,73.5,200.81,72.54,202.61,71.47Z"/>
    <path class="cls-1" d="M221.74,73.27c1.95-.79,3.91-1.48,5.91-2.11-1.55-1.45-3.16-2.85-4.84-4.18s-3.36-2.77-5.14-4l.76,6.51-2.37,6.15C217.92,74.74,219.8,74.06,221.74,73.27Z"/>
    <path class="cls-1" d="M330.05,187.52c.75-2,1.42-4,2.12-6s1.24-4.12,1.84-6.24l-5.82,3.08h-6.56c1.42,1.44,2.95,2.89,4.29,4.43S328.7,185.89,330.05,187.52Z"/>
    <path class="cls-1" d="M331.77,207.15l3-5.65c1-1.93,1.83-3.88,2.74-5.89l-6.21,2.18-6.49-1c1.19,1.63,2.5,3.3,3.59,5Z"/>
  </g>
</svg>
