<svg id="Layer_1" data-name="Layer 1" xmlns="http://www.w3.org/2000/svg" viewBox="0 0 400 303.09">
  <defs>
    <style>
      .cls-1 {
        fill: #5b6e7f;
      }
    </style>
  </defs>
  <g>
    <g>
      <path class="cls-1" d="M100.85,10.47,100,9.75l-.89.67c-13,9.83-20.72,24.19-21.14,39.4s6.48,30,18.94,40.5l.85.73.89-.68a58.71,58.71,0,0,0,4.87-4.11c10-9.52,15.9-22.08,16.27-35.29.42-15.21-6.49-30-18.94-40.5"/>
      <path class="cls-1" d="M186.26,101.85c-10-12.91-24.41-20.46-39.63-20.71s-29.9,6.79-40.3,19.36l-.71.86.68.89a58.86,58.86,0,0,0,4.17,4.82c9.62,10,22.25,15.68,35.46,15.89,15.21.27,29.9-6.8,40.29-19.36l.72-.86Z"/>
      <path class="cls-1" d="M96.41,110.15l-.88-.69-.86.71a58.61,58.61,0,0,0-4.71,4.3c-9.68,9.89-15,22.67-14.91,35.88.17,15.22,7.63,29.7,20.48,39.75l.88.69.86-.71c12.64-10.32,19.78-25,19.62-40.18s-7.63-29.7-20.48-39.75"/>
      <path class="cls-1" d="M86.58,98.26a58.53,58.53,0,0,0-4.19-4.8c-9.65-9.91-22.3-15.59-35.51-15.76C31.67,77.49,17,84.61,6.65,97.21l-.71.86.69.88c10,12.88,24.49,20.38,39.7,20.58S76.2,112.62,86.55,100l.72-.86Z"/>
      <path class="cls-1" d="M53.92,55.42c2.63-2.4,5.24-4.8,7.88-7.17a1.94,1.94,0,0,1,2.73.19A4.94,4.94,0,0,1,66.07,51c.65,3.58,2.51,6.9,2,10.72a10.76,10.76,0,0,1,1,4.14c0,.61-.06,1.23-.11,1.84a1.63,1.63,0,0,1-1.49,1.66c-1.86,0-3.71-.1-5.56-.08a5.37,5.37,0,0,1-2.3-.7A6.93,6.93,0,0,0,57.24,68c-1.83-.16-3.83.58-5.47-.41s-3.64-.45-5.38-1c-.2,0-.36-.17-.55-.23a1.6,1.6,0,0,1-.68-2.07c.8-1,1.59-1.93,2.47-2.8,2.08-2,4.22-4,6.34-6.07Z"/>
      <path class="cls-1" d="M142.29,58.15c2.29,2.72,4.59,5.42,6.85,8.16a2,2,0,0,1-.31,2.73,4.9,4.9,0,0,1-2.63,1.42c-3.6.51-7,2.23-10.79,1.55a11.06,11.06,0,0,1-4.18.84c-.61,0-1.22-.12-1.84-.2a1.61,1.61,0,0,1-1.59-1.55c.08-1.85.25-3.7.3-5.56a5.16,5.16,0,0,1,.8-2.26,7.1,7.1,0,0,0,.66-2.33c.23-1.82-.43-3.85.62-5.45s.61-3.61,1.2-5.34c.06-.19.19-.35.25-.53a1.6,1.6,0,0,1,2.1-.59,36.56,36.56,0,0,1,2.7,2.58c2,2.16,3.88,4.38,5.81,6.58Z"/>
      <path class="cls-1" d="M141.1,146.05c-2.57,2.45-5.11,4.92-7.7,7.36a2,2,0,0,1-2.74-.14,4.82,4.82,0,0,1-1.59-2.54c-.74-3.55-2.68-6.83-2.25-10.66a11.06,11.06,0,0,1-1.1-4.11c0-.62,0-1.23.07-1.85a1.63,1.63,0,0,1,1.46-1.7c1.85,0,3.7,0,5.56,0a5.3,5.3,0,0,1,2.31.65,7.22,7.22,0,0,0,2.36.51c1.83.12,3.82-.68,5.48.27s3.65.37,5.41.85c.19.05.36.16.55.22a1.6,1.6,0,0,1,.72,2.06,34.44,34.44,0,0,1-2.4,2.85c-2,2.1-4.12,4.15-6.19,6.22Z"/>
      <path class="cls-1" d="M51.93,143.05c-2.37-2.64-4.75-5.27-7.1-7.93a2,2,0,0,1,.22-2.74,4.8,4.8,0,0,1,2.59-1.5c3.58-.63,6.92-2.46,10.74-1.9a11.1,11.1,0,0,1,4.14-1c.61,0,1.23.08,1.85.14a1.62,1.62,0,0,1,1.64,1.5c0,1.85-.13,3.71-.13,5.56a5.18,5.18,0,0,1-.72,2.29,7.13,7.13,0,0,0-.59,2.35c-.18,1.82.55,3.83-.45,5.47s-.49,3.63-1,5.37c-.06.19-.17.36-.23.54a1.6,1.6,0,0,1-2.08.66c-1-.81-1.92-1.6-2.78-2.49-2-2.1-4-4.26-6-6.39Z"/>
    </g>
    <g>
      <path class="cls-1" d="M209.35,120.85l-.16-.17a9.85,9.85,0,0,0-13.88-.16l-16,15.6-59.68,58.29a15.79,15.79,0,1,0,23.47,4.85l5-4.87,61.07-59.66a9.83,9.83,0,0,0,.16-13.88"/>
      <path class="cls-1" d="M143.08,240.6l.17.17a9.84,9.84,0,0,0,13.88.16l16-15.6L232.78,167a15.78,15.78,0,1,0-25.44-12.65,15.59,15.59,0,0,0,2,7.8l-5,4.87h0l-61.07,59.66a9.84,9.84,0,0,0-.17,13.88"/>
      <path class="cls-1" d="M259.74,171.64l-.16-.17a9.85,9.85,0,0,0-13.88-.16l-16,15.6-59.68,58.3a15.79,15.79,0,1,0,23.47,4.85l5-4.87,61.08-59.67a9.84,9.84,0,0,0,.16-13.88"/>
      <path class="cls-1" d="M193.1,290.23l.16.16a9.83,9.83,0,0,0,13.88.16l16-15.59,59.68-58.3a15.79,15.79,0,1,0-23.47-4.85l-5,4.87-61.08,59.67a9.84,9.84,0,0,0-.16,13.88"/>
    </g>
    <path class="cls-1" d="M305.87,156.85c-3.43,2.67-7.69,2.35-11.81-1.53s-4.54-8.16-2-11.67c3.65-5.15,9.82-5.26,17.17-4.25,1.78,7.55,1.65,13.58-3.32,17.45M294.14,74.44c1-4.83,1.33-10,3.1-14.4,1.5-3.75,5.47-5.84,10.18-3.67,2.69,1.25,6.72,4.92,6.75,6.86.06,3.69-1.26,8.32-3.93,10-3.7,2.33-9.18,2.29-13.89,3.26l-2.21-2m5.54,99-26.51-26.59c16-16.63,32.71-32.46,24.29-62.32,5.62-1,11.05-1.2,15.68-2.89,8.25-3,11.42-10.55,9-18.91a20.7,20.7,0,0,0-16.05-14.6c-8.52-1.61-15.69,2.32-17.9,10.75-1.22,4.65-1.17,9.85-1.77,15.51-12.9-3-23-1.57-31.62,2.36C273.18,59.49,294,39.66,303.38,30c6.4,6.69,20.3,21.22,34.85,36.24-10.25,9-20.36,18-27.09,30.14-5.41,9.77-5.28,21.68-2.46,33.24-6.9,1.65-13.34,2.2-18.52,4.67-7.3,3.48-7.89,14.24-2.3,22.14s16.18,12.06,23,8.48c6.26-3.27,8.78-9.34,8.66-17.09,0-2-.09-4.08-.15-6.29,10.48,2.42,20.21,3.44,28.83.72l-40,38.88c-2.76-3.76-8.56-7.67-8.56-7.67M275.44,92.51a7.22,7.22,0,0,1,7.32,6.67c.62,4.76-3.88,6.83-11.62,5.37-2.05-7.64-.42-12.22,4.3-12m-8.93,47.68c7.42-7.31,10.18-16.37,7-27.9,12.34-.25,17.38-4.29,16.51-12.77-.67-6.65-6-12.89-12.6-13.91-3.08-.47-7.41-.55-8.84,1.2-3.3,4-5.18,9.33-8,14.9-9.45-2.07-17.71,1-24.38,8.06l-3.28-3.28c4.8-5.12,9.47-10.15,14.44-14.85,9.05-8.56,20.61-12.22,34.8-10.57,5.47.64,8,2.65,8.91,8.43,2.5,15.19-1.88,27-10.62,36.82-4.35,4.88-8.94,9.53-13.55,14.26Zm-5.35-5.38-19.35-19.4a53.88,53.88,0,0,1,7.3-4.76c4.61-2.25,11.11-3.91,15.1.45,2.79,3,2.17,10,1.52,14.66-.47,3.36-2.78,6.11-4.57,9m75.47-12.48c-1.68.67-5.37-.31-6.81-1.82s-2.31-5.28-1.58-6.93c1.94-4.36,6.42-3.87,11.19-2.32,1.57,5,1.58,9.35-2.8,11.07m9.86-47.58c-7.45,6.83-12.16,15.18-9.25,28.37-12.33-.22-17.57,3.57-17.28,12,.22,6.48,5.26,13.12,11.83,14.64a16.46,16.46,0,0,0,9.09-.48c6.24-2.39,6.76-8.87,6.68-15.44,13.68,4,22.41-.71,29.83-8,.61.59,1.17,1.13,1.72,1.64-6.36,6.34-12.55,12.62-19,18.62-9.74,9-22.2,12.38-38,8.67-4-.94-6.24-2.78-6.24-6.49,0-7.77-1.2-16.32,1-22.93,2.42-7.19,7.7-13,12.58-18.59C334,81.6,339,76.94,344,72.16l2.52,2.59m5.94,6.09c7,7.13,13.57,13.8,19,19.15-2,1.6-3.92,3.16-6,4.55-5.56,3.81-16.41,3.94-19.55.42s-2.26-13.45,2-18.85c1.42-1.83,3-3.55,4.58-5.27m39,24.54c-.06-.17-.11-.34-.18-.52-1.74-4.2-9.66-9.53-9.66-9.53L307.42,20.89c-1-2.41-2.81-4.68-6.32-3.28-4.22,1.68-9.64,9.53-9.64,9.53l-77,74.9,6.83,6.14a.74.74,0,0,0,.13-.12c14.36,15,67.14,70.17,79.13,80.59l-.44.43,6.84,6.15s87.74-81.47,87.15-84c-.34-1.52-1-4.26-2.58-5.81"/>
  </g>
</svg>
