<svg id="Layer_1" data-name="Layer 1" xmlns="http://www.w3.org/2000/svg" viewBox="0 0 400 400">
  <defs>
    <style>
      .cls-1 {
        fill: #ff9e18;
      }
    </style>
  </defs>
  <g>
    <path class="cls-1" d="M388.53,200h-6.47A182,182,0,1,1,328.74,71.26,181.48,181.48,0,0,1,382.06,200H395a195,195,0,1,0-57.11,137.89A194.47,194.47,0,0,0,395,200Z"/>
    <g>
      <polygon class="cls-1" points="265.77 138.31 280.98 138.06 296.18 137.8 296.44 122.59 296.7 107.38 281.23 122.85 265.77 138.31"/>
      <polygon class="cls-1" points="234.83 169.25 250.04 168.99 265.25 168.73 265.51 153.52 265.77 138.31 250.3 153.78 234.83 169.25"/>
      <polygon class="cls-1" points="134.23 261.69 119.02 261.94 103.82 262.2 103.56 277.41 103.3 292.62 118.77 277.15 134.23 261.69"/>
      <path class="cls-1" d="M327.89,293.79c-4-19.6-12.48-43.85-30.79-62.19-13.8-13.77-28.63-24.52-42.76-31.59a9.59,9.59,0,0,0,.91-.45c13.86-7.09,28.35-17.67,41.85-31.17,18.3-18.32,26.79-42.58,30.8-62.17a165.45,165.45,0,0,0,3.5-34.84l-.08-2.69-2.71-.1a167.54,167.54,0,0,0-34.83,3.51c-19.58,4-43.85,12.5-62.17,30.8-13.79,13.78-24.52,28.57-31.61,42.72-.14-.28-.28-.58-.43-.87-7.1-13.86-17.69-28.36-31.17-41.85-18.34-18.31-42.59-26.79-62.2-30.8a163.15,163.15,0,0,0-34.81-3.49l-2.7.08-.09,2.7a166.41,166.41,0,0,0,3.49,34.81c4,19.62,12.51,43.86,30.82,62.19,13.78,13.79,28.61,24.54,42.75,31.61a9.59,9.59,0,0,0-.91.45c-13.85,7.08-28.36,17.67-41.84,31.15-18.31,18.34-26.79,42.59-30.82,62.19A165.73,165.73,0,0,0,68.6,328.6l.09,2.71,2.7.08a163.69,163.69,0,0,0,34.82-3.48c19.6-4,43.85-12.51,62.19-30.82,13.77-13.77,24.52-28.6,31.6-42.72l.44.87c7.09,13.87,17.68,28.37,31.17,41.85C250,315.4,274.18,323.9,293.78,327.9a166.29,166.29,0,0,0,34.83,3.5l2.7-.09.09-2.69A164.24,164.24,0,0,0,327.89,293.79ZM325.54,78.54h0L312.17,91.91,296.7,107.38l15.21-.26,9.93-.17c-4,18.61-12.26,40.84-28.82,57.37-14.77,14.77-30.79,25.92-45.48,32.54-2-.87-4-1.62-5.9-2.31-2.45-.87-4.84-1.61-7.2-2.21l.13-7.88.26-15.21-21.56,21.56h0L325.54,78.54ZM239.76,200h0c-8.3,2.93-16,4.23-22.37,3.84a24.67,24.67,0,0,1-12.19-3.69h0a.8.8,0,0,1-.2-.15,24.09,24.09,0,0,1,12.42-3.86,52.65,52.65,0,0,1,17,2.13Q237,199,239.76,200Zm-34.2-52.63c6.79-13.26,17-27.31,30.13-40.4C252.79,89.85,276,81.61,295,77.75a173.36,173.36,0,0,1,23.9-3.15c.92,0,1.78-.1,2.6-.12L209.19,186.73a34.41,34.41,0,0,0,.41-3.72c.54-9.08-1.77-19.55-6.46-30.6C203.89,150.76,204.69,149.06,205.56,147.38ZM200,160.22s0,0,0,0c2.93,8.32,4.24,16,3.83,22.38a24.7,24.7,0,0,1-3.68,12.19,1.41,1.41,0,0,1-.18.23,24.55,24.55,0,0,1-3.85-12.41,51.89,51.89,0,0,1,2.15-17C198.77,163.88,199.35,162.07,200,160.22ZM78.54,74.46,91.91,87.83l15.47,15.47-.26-15.21L107,78.15c18.62,4,40.83,12.26,57.37,28.83,14.78,14.77,25.91,30.8,32.54,45.45q-1.31,3-2.32,5.92-1.31,3.66-2.2,7.2l-7.87-.12-15.21-.26,21.56,21.56h0L78.54,74.46ZM195.06,200a24.2,24.2,0,0,1-12.41,3.84,51.44,51.44,0,0,1-17-2.13c-1.78-.48-3.59-1.06-5.44-1.71,0,0,0,0,0,0,8.32-2.93,16-4.22,22.38-3.83a24.77,24.77,0,0,1,12.19,3.68v0A1.13,1.13,0,0,1,195.06,200ZM107,164.31C89.86,147.21,81.61,124,77.75,105.06a173.42,173.42,0,0,1-3.14-23.91c-.06-.92-.1-1.77-.13-2.59L186.73,190.81a34.58,34.58,0,0,0-3.73-.42c-9.08-.55-19.52,1.76-30.59,6.47-1.65-.76-3.35-1.57-5-2.44C134.13,187.65,120.08,177.41,107,164.31ZM74.47,321.45l13.36-13.36,15.47-15.47-15.21.26-9.93.17c4-18.62,12.26-40.83,28.83-57.37,14.77-14.78,30.78-25.92,45.46-32.53,2,.86,4,1.62,5.9,2.31q3.69,1.29,7.21,2.2l-.14,7.89-.25,15.2L150,231l-15.21.26-.26,15.21-.26,15.21,15.47-15.47,15.47-15.47h0L74.47,321.45Zm120-68.83c-6.76,13.25-17,27.31-30.1,40.4-17.1,17.12-40.29,25.36-59.26,29.22a169,169,0,0,1-23.9,3.15c-.93.06-1.81.1-2.61.14h0L190.82,213.26h0a35.05,35.05,0,0,0-.43,3.74c-.54,9.08,1.77,19.52,6.46,30.57Q195.73,250.09,194.42,252.62ZM200,239.73c-2.94-8.32-4.24-16-3.83-22.37a24.51,24.51,0,0,1,3.68-12.2h0a.9.9,0,0,1,.14-.2,24.33,24.33,0,0,1,3.85,12.41,52.62,52.62,0,0,1-2.13,17C201.23,236.1,200.66,237.9,200,239.73Zm121.47,85.81-13.37-13.37L292.62,296.7l.26,15.21.17,9.93c-18.61-4-40.84-12.27-57.36-28.82-14.79-14.77-25.93-30.79-32.53-45.47.85-2,1.62-4,2.31-5.9.87-2.45,1.6-4.84,2.19-7.22l7.88.13,15.2.26,90.73,90.72ZM213.26,209.18h0a34.77,34.77,0,0,0,3.74.42c9.08.54,19.52-1.77,30.57-6.46,1.67.75,3.36,1.56,5,2.43,13.24,6.77,27.31,17,40.4,30.1,17.13,17.1,25.37,40.29,29.23,59.27a173,173,0,0,1,3.14,23.91c.05.92.09,1.78.12,2.57h0Z"/>
      <polygon class="cls-1" points="261.69 265.77 261.94 280.98 262.2 296.18 277.41 296.44 292.62 296.7 277.15 281.24 261.69 265.77"/>
      <polygon class="cls-1" points="230.75 234.83 231.01 250.04 231.27 265.25 246.48 265.51 261.69 265.77 246.22 250.3 230.75 234.83"/>
      <polygon class="cls-1" points="138.31 134.23 138.06 119.03 137.79 103.82 122.59 103.56 107.38 103.3 122.85 118.77 138.31 134.23"/>
      <polygon class="cls-1" points="169.25 165.17 168.99 149.96 168.73 134.75 153.52 134.49 138.31 134.23 153.78 149.7 169.25 165.17"/>
    </g>
  </g>
</svg>
