<svg id="Layer_1" data-name="Layer 1" xmlns="http://www.w3.org/2000/svg" viewBox="0 0 800 313.37">
  <defs>
    <style>
      .cls-1 {
        fill: #5b6e7f;
      }
    </style>
  </defs>
  <g>
    <path class="cls-1" d="M141.73,154.73C124.54,162,76.4,169,49.49,195.56c0,0,2.58-53.27,57.24-73.62,52.18-19.42,83.47-37.26,97.83-76.33,0,0,13,77-62.83,109.12m-24,74.63c-18.07,7.27-50.91,6.8-81.87,34.73,0,0-6.13-50.94,73.42-74.39,64.5-19,65.44-35.67,70.61-42.48,0,0-4,58.7-62.16,82.14m3.12-180.6A22.23,22.23,0,1,1,98.65,71a22.22,22.22,0,0,1,22.22-22.22M12.57,290.85H228.1V12.92H12.57Z"/>
    <path class="cls-1" d="M294,99.31l-5.53-66.7a58.62,58.62,0,0,0-.69-5.93,8.32,8.32,0,0,0-2.92-5.23c-1.52-1.17-4-1.81-7.37-1.88l.26-2.13h30l-.25,2.13c-4-.05-6.64.68-7.82,2.15s-1.54,5.11-1,10.89l3.57,43.14,21.48-46.87-.32-2a8.06,8.06,0,0,0-2.89-5.1c-1.52-1.18-4.45-1.92-8.78-2.19l.07-2.13H344l-.25,2.13c-3.73,0-6.19.36-7.38.95a4.43,4.43,0,0,0-2,2.1,12,12,0,0,0-.64,5c0,.67.37,5.22,1.11,13.69s1.61,20.1,2.69,34.92l18.25-38.87a54.72,54.72,0,0,0,3.53-8.88,10.82,10.82,0,0,0,.26-4.32,4.81,4.81,0,0,0-2-2.93,10.2,10.2,0,0,0-5.14-1.63l.08-2.13h23.62L376,19.57a11.87,11.87,0,0,0-5.26,1.53,17.89,17.89,0,0,0-4.79,5c-1,1.41-2.89,5.17-5.68,11.25l-28.56,62h-2.22l-5.07-62-28.4,62Z"/>
    <path class="cls-1" d="M446.91,20.44a5.84,5.84,0,0,1,5.9,5.9,5.93,5.93,0,1,1-5.9-5.9"/>
    <path class="cls-1" d="M392,46.63c-2.82,0-5.8,1.19-9,3.59q-6.72,5.07-12,15t-5.25,18a8.76,8.76,0,0,0,2.34,6.43,7.33,7.33,0,0,0,5.35,2.36q7.47,0,16.26-9.62,10.69-12.78,10.36-26.23c0-3.37-.73-5.83-2.18-7.35A7.84,7.84,0,0,0,392,46.63m22.34-3L402.67,84.86l-1.33,5.52-.28,1.34.43,1.51.86.48,1.44-.86c1.12-1.08,2.6-3.45,4.45-7.15l2.07,1.46a31.46,31.46,0,0,1-7.26,9.07c-2.49,2-4.79,2.94-6.9,2.94a4.42,4.42,0,0,1-3.4-1.3,5.27,5.27,0,0,1-1.2-3.78,30.94,30.94,0,0,1,1.33-7.8l1.35-4.57c-5.84,6.91-11.18,11.73-16.08,14.48a21,21,0,0,1-10.33,3,11.35,11.35,0,0,1-8.4-3.62q-3.53-3.61-3.53-10,0-9.5,6.28-20a51,51,0,0,1,15.92-16.89c5-3.33,9.79-5,14.25-5A11.69,11.69,0,0,1,399,45.42a11,11,0,0,1,4,5.9L405,45.13Z"/>
    <path class="cls-1" d="M445.68,42.54,432.88,85.6a31.39,31.39,0,0,0-1.3,5.22l.53,1.52,1.26.58,2-.93a34.72,34.72,0,0,0,6.41-7.73l2.12,1.4a39.88,39.88,0,0,1-9.3,10.41c-2.63,2.07-5.14,3.09-7.55,3.09a5.33,5.33,0,0,1-3.88-1.46,5,5,0,0,1-1.51-3.7,29.36,29.36,0,0,1,1.63-7.51l8.41-27.4q1.95-6.69,1.95-8.4a2.85,2.85,0,0,0-.94-2.19,3.71,3.71,0,0,0-2.58-.84,44.83,44.83,0,0,0-5.51.65V45.94Z"/>
    <path class="cls-1" d="M483.47,27.78l-4.93,16.46h8.27l-1,3.89h-8.43l-11,35.75c-1.38,4.07-2.05,6.71-2.05,7.91l.42,1.49,1,.51c.9,0,2.08-.66,3.55-2a71,71,0,0,0,5.77-7.47l2,1.52q-5.28,8-10,11.16a11.45,11.45,0,0,1-6.48,2.17,5.48,5.48,0,0,1-4.14-1.65,5.86,5.86,0,0,1-1.61-4.24q0-3.27,2.05-10l10.66-35.14h-9.27l.61-2.41a32.31,32.31,0,0,0,11.33-5.46q4.67-3.61,10.54-12.48Z"/>
    <path class="cls-1" d="M499,71.85a53.4,53.4,0,0,0,14.93-3.52c5.07-2.21,8.89-4.87,11.42-8s3.81-6,3.81-8.83a5.48,5.48,0,0,0-1.64-4.13,6.51,6.51,0,0,0-4.68-1.57q-6.32,0-13.4,6.58T499,71.85m-.43,3a39.72,39.72,0,0,0-.41,5,12.41,12.41,0,0,0,3.89,9.2,13,13,0,0,0,9.46,3.79A21.08,21.08,0,0,0,520,91.09q4.1-1.77,12.19-7.92l1.27,1.75q-14.4,14.25-27.45,14.25-8.88,0-13.37-5.58a19.1,19.1,0,0,1-4.5-12.31q0-9,5.6-18.49a42,42,0,0,1,14-14.71,32.57,32.57,0,0,1,17.37-5.24q6.45,0,9.54,2.6a7.88,7.88,0,0,1,3.09,6.18,14.34,14.34,0,0,1-4.06,9.64q-5.36,6-15.78,9.7-6.9,2.49-19.41,3.88"/>
    <path class="cls-1" d="M566.53,42.84l-7.9,27.4a120.51,120.51,0,0,1,9.2-14.53q5.91-7.51,11.5-10.92a13.4,13.4,0,0,1,6.91-1.95,7.11,7.11,0,0,1,5.16,2A6.85,6.85,0,0,1,593.45,50a26.94,26.94,0,0,1-1.49,7.7L587.37,73q10.47-18.53,19.85-26,5.21-4.11,10.28-4.12a6.28,6.28,0,0,1,4.85,2.08c1.25,1.39,1.89,3.55,1.89,6.46A24.84,24.84,0,0,1,623,58.77l-7.58,23.38A69.7,69.7,0,0,0,613,90.62l.49,1.39.87.42a4.16,4.16,0,0,0,1.89-1.11,29.54,29.54,0,0,0,5.8-7l2,1.28a47.79,47.79,0,0,1-5.16,6.55,27.23,27.23,0,0,1-6.32,5.59,10.09,10.09,0,0,1-4.84,1.45,4.5,4.5,0,0,1-3.4-1.44,5,5,0,0,1-1.37-3.55q0-2.9,2.88-11.69L612.16,63q2.18-6.73,2.32-7.46l.2-2.24A3.62,3.62,0,0,0,614,51l-1.77-.84q-2.75,0-5.82,2.6-9,7.7-16.89,21.59a124,124,0,0,0-9.69,23.47h-9.21l11-36.71q1.82-5.93,1.81-7.94a3.59,3.59,0,0,0-.69-2.42l-1.68-.79a8.29,8.29,0,0,0-4.35,1.45Q573,53.74,567.12,61.5A79.17,79.17,0,0,0,558,76.36q-1.56,3.33-7.41,21.42h-9l11.33-39.37,1.46-5.1.43-1.73a3.17,3.17,0,0,0-1.22-2.42,4.54,4.54,0,0,0-3.11-1.07,35.49,35.49,0,0,0-4.4.73l-.46-2.19Z"/>
    <path class="cls-1" d="M668.35,46.63c-2.81,0-5.81,1.19-9,3.59q-6.72,5.07-12,15t-5.25,18a8.72,8.72,0,0,0,2.34,6.43,7.3,7.3,0,0,0,5.34,2.36q7.49,0,16.26-9.62,10.71-12.78,10.36-26.23c0-3.37-.72-5.83-2.18-7.35a7.81,7.81,0,0,0-5.93-2.26m22.34-3L679,84.86l-1.33,5.52-.27,1.34.43,1.51.85.48,1.45-.86c1.11-1.08,2.59-3.45,4.43-7.15l2.07,1.46a31.3,31.3,0,0,1-7.26,9.07c-2.49,2-4.78,2.94-6.9,2.94a4.41,4.41,0,0,1-3.39-1.3,5.32,5.32,0,0,1-1.21-3.78,30.94,30.94,0,0,1,1.33-7.8l1.35-4.57Q661.8,92.09,654.47,96.2a21.13,21.13,0,0,1-10.34,3,11.33,11.33,0,0,1-8.39-3.62q-3.54-3.61-3.54-10,0-9.5,6.27-20A51.05,51.05,0,0,1,654.4,48.65c5-3.33,9.78-5,14.25-5a11.74,11.74,0,0,1,6.67,1.79,11,11,0,0,1,4,5.9l1.92-6.19Z"/>
    <path class="cls-1" d="M725.22,27.78,720.3,44.24h8.27l-1,3.89h-8.44l-11,35.75c-1.36,4.07-2,6.71-2,7.91l.43,1.49,1,.51c.9,0,2.08-.66,3.56-2a72.44,72.44,0,0,0,5.77-7.47l2,1.52q-5.29,8-10,11.16a11.51,11.51,0,0,1-6.49,2.17,5.5,5.5,0,0,1-4.14-1.65,5.86,5.86,0,0,1-1.61-4.24q0-3.27,2-10l10.66-35.14h-9.27l.61-2.41A32.36,32.36,0,0,0,712,40.26q4.65-3.61,10.54-12.48Z"/>
    <path class="cls-1" d="M765.09,46.63c-2.81,0-5.81,1.19-9,3.59q-6.72,5.07-12,15t-5.25,18a8.72,8.72,0,0,0,2.34,6.43,7.29,7.29,0,0,0,5.34,2.36q7.49,0,16.26-9.62,10.71-12.78,10.36-26.23c0-3.37-.73-5.83-2.18-7.35a7.81,7.81,0,0,0-5.93-2.26m22.34-3L775.7,84.86l-1.31,5.52-.27,1.34.42,1.51.86.48,1.45-.86c1.11-1.08,2.59-3.45,4.43-7.15l2.07,1.46a31.46,31.46,0,0,1-7.26,9.07c-2.49,2-4.78,2.94-6.9,2.94a4.39,4.39,0,0,1-3.39-1.3,5.27,5.27,0,0,1-1.21-3.78,30.94,30.94,0,0,1,1.33-7.8l1.34-4.57Q758.55,92.09,751.2,96.2a21.07,21.07,0,0,1-10.33,3,11.35,11.35,0,0,1-8.4-3.62c-2.35-2.41-3.54-5.73-3.54-10q0-9.5,6.28-20a51.05,51.05,0,0,1,15.93-16.89c5-3.33,9.78-5,14.25-5a11.68,11.68,0,0,1,6.66,1.79,10.89,10.89,0,0,1,4,5.9L778,45.13Z"/>
    <path class="cls-1" d="M286.49,157.11a29.88,29.88,0,0,0,6.19.69c10.18,0,15.59-7.25,15.59-15.86,0-8.81-5.47-15.85-15.82-15.85a24.58,24.58,0,0,0-6,.75ZM280.9,131c0-4.52,0-5.86-5.6-5.86v-1h15.24c5.41,0,11.85.16,16.48,3a16.72,16.72,0,0,1,7.92,14.67c0,9.73-7,18-21.32,18H275.3v-1c5.6,0,5.6-1.35,5.6-5.86Z"/>
    <path class="cls-1" d="M325.65,122.43a2.65,2.65,0,1,1-2.91,2.63,2.8,2.8,0,0,1,2.91-2.63m2.44,32.74c0,3.18,1.36,3.55,4.11,3.61v1h-13v-1c2.72-.06,4.1-.43,4.1-3.61V142.06c0-3.65-1.25-3.65-2.09-3.65l-2,.42-.42-.92,8-2.94h1.31Z"/>
    <path class="cls-1" d="M352.9,143.18h-1.06c-.9-3.59-2.51-6.61-7.15-6.61-2.14,0-4.52,1.08-4.52,3.28,0,5.86,14.7,5.1,14.7,13.44,0,4.41-4.58,7.2-9.11,7.2a22.59,22.59,0,0,1-5.36-.81l-1.48-.26-1.07.7h-1.08v-8.61h1.08a8.41,8.41,0,0,0,8.14,7.37c2.45,0,4.59-1.29,4.59-3.66,0-6.29-13.86-5.42-13.86-13.06,0-4.4,3.51-7.21,8.26-7.21a12.2,12.2,0,0,1,3.4.6l2.2.43,1.26-1h1.06Z"/>
    <path class="cls-1" d="M372.54,135.71v1.94h-6.25v14.78c0,2.2,0,4.62,2.8,4.62a3.57,3.57,0,0,0,3.09-2.14h1.19c-1.07,2.63-3.51,5.16-6.84,5.16-1.9,0-5.06-1.13-5.06-5.77V137.65h-4.16v-1.08c3.27-1.24,5.89-3.82,8.08-8.76h.9v7.9Z"/>
    <path class="cls-1" d="M383,140.12h.11c1.33-1.94,3.58-5.16,6.73-5.16,1.8,0,3.76,1.18,3.76,2.95a2.54,2.54,0,0,1-2.57,2.42c-1.9,0-2.91-1.77-4.22-1.77s-3.27,3-3.81,4v10.1c0,4.36,0,6.07,4.94,6.07v1H374.09v-1c2.73-.06,4.1-.43,4.1-3.6V142.06c0-3.66-1.24-3.66-2.08-3.66l-2,.43-.42-.92,8-2.95H383Z"/>
    <path class="cls-1" d="M401.7,122.43a2.65,2.65,0,1,1-2.92,2.63,2.79,2.79,0,0,1,2.92-2.63m2.44,32.74c0,3.18,1.37,3.55,4.1,3.61v1h-13v-1c2.73-.06,4.1-.43,4.1-3.61V142.06c0-3.65-1.24-3.65-2.07-3.65l-2,.42-.41-.92,8-2.94h1.31Z"/>
    <path class="cls-1" d="M434.19,150.6c-1,5-5.07,9.9-11.07,9.9-6.73,0-11.37-5.5-11.37-12.86A12.49,12.49,0,0,1,424.49,135c3.5,0,8.93,2.1,8.93,5.81,0,1.4-1.14,2.21-2.62,2.21-2.45,0-3.1-1.13-3.34-3.06-.17-2.1-1.6-3.13-3.92-3.13-5.12,0-7.15,4.68-7.15,8.67,0,4.61,2.62,11,8.69,11,4.29,0,6.91-2.85,8.28-6.18Z"/>
    <path class="cls-1" d="M451.86,135.71v1.94h-6.24v14.78c0,2.2,0,4.62,2.79,4.62a3.57,3.57,0,0,0,3.09-2.14h1.2c-1.08,2.63-3.51,5.16-6.85,5.16-1.91,0-5.06-1.13-5.06-5.77V137.65h-4.16v-1.08c3.26-1.24,5.89-3.82,8.08-8.76h.91v7.9Z"/>
    <path class="cls-1" d="M498.22,140.66V131c0-4.53,0-5.87-5.6-5.87v-1H509.4v1c-5.59,0-5.59,1.34-5.59,5.87v21.93c0,4.5,0,5.85,5.59,5.85v1H492.62v-1c5.6,0,5.6-1.35,5.6-5.85V142.6H479.89v10.32c0,4.5,0,5.85,5.6,5.85v1h-16.8v-1c5.61,0,5.61-1.35,5.61-5.85V131c0-4.53,0-5.87-5.61-5.87v-1h16.8v1c-5.6,0-5.6,1.34-5.6,5.87v9.67Z"/>
    <path class="cls-1" d="M529,143.18c0-3.33-1.85-6.29-6.07-6.29-3.51,0-6,3.18-6.24,6.29Zm-12.37,1.62c0,5.38,3.09,11.4,9.57,11.4,4.28,0,6.61-2.26,8-5.76l.89.54c-1,5-4.88,9.52-10.89,9.52-6.49,0-11.6-5-11.6-12.37,0-6.93,3.87-13.18,12.32-13.18,6.13,0,10.17,4,10.17,9.85Z"/>
    <path class="cls-1" d="M553.73,145.66c-4,1.44-9.93,3.33-9.93,7.41a4.3,4.3,0,0,0,4.22,4.41c1.85,0,4.34-1.61,5.71-2.63Zm4.83,7.36c0,2.42,0,4.14,1.48,4.14,1,0,2.33-1.39,3.1-2.1v1.51c-1.37,1.61-3.69,3.93-6.2,3.93s-3.21-1.94-3.21-3.93c-2.67,1.77-4.76,3.93-8.39,3.93a6,6,0,0,1-6.36-6.29c0-6,9.88-8.17,14.75-10.11,0-4-.29-7.54-4.87-7.54-2,0-4,1-4,3.18,0,2.59-.59,3.82-2.44,3.82A2.34,2.34,0,0,1,540,141c0-1.46,1.72-6,9.81-6,8.76,0,8.76,5,8.76,6.51Z"/>
    <path class="cls-1" d="M574.32,155.17c0,3.18,1.38,3.55,4.11,3.6v1h-13v-1c2.73-.05,4.1-.42,4.1-3.6V129.53c0-3.66-1.24-3.66-2.08-3.66l-2,.43-.42-.91,8-3h1.3Z"/>
    <path class="cls-1" d="M595.63,135.71v1.94h-6.25v14.78c0,2.2,0,4.62,2.8,4.62a3.57,3.57,0,0,0,3.09-2.14h1.2c-1.08,2.63-3.52,5.16-6.86,5.16-1.9,0-5.05-1.13-5.05-5.77V137.65H580.4v-1.08c3.26-1.24,5.89-3.82,8.09-8.76h.89v7.9Z"/>
    <path class="cls-1" d="M621.87,155.17c0,3.18,1.37,3.55,4.1,3.6v1H613v-1c2.73-.05,4.1-.42,4.1-3.6V144c0-5.32-2.44-5.86-4.22-5.86-2.74,0-4.76,1.62-6.73,3.44v13.55c0,3.18,1.36,3.55,4.11,3.6v1h-13v-1c2.73-.05,4.11-.42,4.11-3.6V129.53c0-3.66-1.26-3.66-2.09-3.66l-2,.43-.42-.91,8-3h1.31V140c3.33-3.34,5.66-5,9-5,4.83,0,6.73,4.07,6.73,8.1Z"/>
    <path class="cls-1" d="M653.41,157.11a30.85,30.85,0,0,0,6.73.69c5.05,0,10.77-2,10.77-7.36,0-6.29-6.61-8.12-12.5-8.12a30.62,30.62,0,0,0-5,.27Zm0-16.94a36.74,36.74,0,0,0,6.56.38c8.56,0,9.68-5,9.68-7.05,0-5.53-5.83-7.58-11.13-7.58a20.41,20.41,0,0,0-5.11.6ZM647.82,131c0-4.52,0-5.86-5.6-5.86v-1h18.21c11.14,0,15.3,4.57,15.3,9.57,0,3.93-3.1,6.77-7,7.8v.11c4.57.54,8.8,3.65,8.8,8.22,0,3.16-2,9.89-15.18,9.89H642.22v-1c5.6,0,5.6-1.35,5.6-5.86Z"/>
    <path class="cls-1" d="M688.22,145.66c0,4.62,1.85,13,8.45,13,5.42,0,6.42-5.49,6.42-9.25,0-4.68-1.77-12.64-8.38-12.64-2.91,0-6.49,2-6.49,8.88m20.29,1.5c0,5.54-3.81,13.34-13.21,13.34A12.4,12.4,0,0,1,682.8,148a12.9,12.9,0,0,1,12.92-13c7.44,0,12.79,5.65,12.79,12.2"/>
    <path class="cls-1" d="M727.31,145.66c-4,1.44-9.93,3.33-9.93,7.41a4.31,4.31,0,0,0,4.23,4.41c1.84,0,4.34-1.61,5.7-2.63Zm4.83,7.36c0,2.42,0,4.14,1.48,4.14,1,0,2.33-1.39,3.1-2.1v1.51c-1.37,1.61-3.69,3.93-6.19,3.93s-3.22-1.94-3.22-3.93c-2.67,1.77-4.75,3.93-8.39,3.93a6,6,0,0,1-6.37-6.29c0-6,9.89-8.17,14.76-10.11,0-4-.29-7.54-4.87-7.54-2,0-4,1-4,3.18,0,2.59-.6,3.82-2.46,3.82a2.34,2.34,0,0,1-2.42-2.58c0-1.46,1.71-6,9.81-6,8.75,0,8.75,5,8.75,6.51Z"/>
    <path class="cls-1" d="M746.6,140.12h.11c1.32-1.94,3.58-5.16,6.73-5.16,1.79,0,3.75,1.18,3.75,2.95a2.54,2.54,0,0,1-2.56,2.42c-1.91,0-2.91-1.77-4.22-1.77s-3.28,3-3.81,4v10.1c0,4.36,0,6.07,4.93,6.07v1H737.67v-1c2.73-.06,4.11-.43,4.11-3.6V142.06c0-3.66-1.25-3.66-2.09-3.66l-2,.43-.42-.92,8-2.95h1.31Z"/>
    <path class="cls-1" d="M777.48,143.45c0-3.23-2.14-6.89-6.19-6.89-2.13,0-7.08,1.78-7.08,10.17,0,6.56,3.63,10.87,8.16,10.87a7.34,7.34,0,0,0,5.11-2.42Zm0-13.92c0-3.66-1.25-3.66-2.08-3.66l-2,.43-.41-.91,8-3h1.31v31c0,3.67,1.25,3.67,2.08,3.67l2-.43.43.91-8,3h-1.31v-3.44a11,11,0,0,1-7.91,3.44c-7,0-10.78-6.24-10.78-11.88,0-6.4,5.06-13.67,12.8-13.67a8.55,8.55,0,0,1,5.89,2.05Z"/>
    <path class="cls-1" d="M298.75,280.82l-.39-2.14-1.17-1.57-1.95-1a11.46,11.46,0,0,0-3.1-.34H288v9.73h5a8.54,8.54,0,0,0,2.44-.29l1.73-.9,1.14-1.48ZM297,266.16l-.32-1.85-1-1.36-1.59-.84a9.48,9.48,0,0,0-2.59-.3H288v8.9h3.88a6.61,6.61,0,0,0,2.41-.36l1.49-1,.9-1.46Zm9,14.42a10.41,10.41,0,0,1-.5,3.31,9.2,9.2,0,0,1-1.38,2.62l-2.13,2a12.62,12.62,0,0,1-2.7,1.35,17.18,17.18,0,0,1-3.16.78,25.26,25.26,0,0,1-3.75.25h-9.1l-1.46-.52-.6-1.68V258.8l.6-1.68,1.46-.52h8.59a23.18,23.18,0,0,1,5.34.53,10.71,10.71,0,0,1,3.68,1.6,7.19,7.19,0,0,1,2.28,2.71,8.83,8.83,0,0,1,.79,3.87l-.31,2.34-.92,2-1.5,1.58-2,1.11a8.93,8.93,0,0,1,2.69.93L304,275a7.74,7.74,0,0,1,1.44,2.45,8.84,8.84,0,0,1,.53,3.14"/>
    <path class="cls-1" d="M326.51,275.55a6.91,6.91,0,0,0-1.13-4.4,4.4,4.4,0,0,0-3.73-1.6l-2.19.47-1.57,1.28-.95,1.91-.38,2.34Zm6.44,1.91-.54,1.8-1.49.58H316.56a10.11,10.11,0,0,0,.35,2.74l1.15,2.09,2,1.32a9,9,0,0,0,2.95.43,16.31,16.31,0,0,0,3.06-.24,20.27,20.27,0,0,0,2.29-.56l1.6-.56,1.05-.25.38.1.27.33.14.67,0,1.11,0,1-.09.7-.15.5-.28.38-.94.5-2,.63a27.38,27.38,0,0,1-2.71.52,22.9,22.9,0,0,1-3.29.22,17.1,17.1,0,0,1-5.52-.79,9.73,9.73,0,0,1-3.95-2.41,9.88,9.88,0,0,1-2.36-4.07,18.81,18.81,0,0,1-.79-5.77,18.13,18.13,0,0,1,.83-5.67,11.75,11.75,0,0,1,2.38-4.29,10.09,10.09,0,0,1,3.79-2.69,13.2,13.2,0,0,1,5-.93,13.46,13.46,0,0,1,5.07.87,9.36,9.36,0,0,1,3.45,2.43,9.76,9.76,0,0,1,2,3.66,15.81,15.81,0,0,1,.63,4.61Z"/>
    <path class="cls-1" d="M355,283.28a7.79,7.79,0,0,1-.76,3.54,7,7,0,0,1-2.12,2.57,9.56,9.56,0,0,1-3.26,1.55,15.08,15.08,0,0,1-4.07.51,15.62,15.62,0,0,1-2.52-.19l-2.16-.51-1.59-.61-.92-.6-.46-.87-.16-1.76.06-1.24.16-.74.26-.37.4-.1.86.34,1.42.73,2,.74a8.75,8.75,0,0,0,2.55.34l1.61-.17,1.21-.54.78-.88.27-1.21-.5-1.36-1.29-1-1.82-.8-2.09-.81-2.09-1L339,277.38l-1.3-2a7.44,7.44,0,0,1-.49-2.86,7.07,7.07,0,0,1,.67-3.1,6.57,6.57,0,0,1,1.89-2.43,9.22,9.22,0,0,1,3-1.56,13.84,13.84,0,0,1,4-.55l2.15.15,1.9.4,1.43.51.83.48.36.4.15.48.09.69.05,1-.05,1.15-.12.72-.25.37-.38.08-.74-.27-1.26-.59-1.74-.61-2.26-.28-1.56.19-1.09.52-.63.81-.21,1,.5,1.38,1.33,1,1.85.79,2.13.81,2.11,1,1.86,1.44,1.32,2a7,7,0,0,1,.51,2.79"/>
    <path class="cls-1" d="M373.46,287.62l-.14,1.79-.39.87-.7.44-1.09.35-1.33.23-1.49.08a10.41,10.41,0,0,1-3.43-.51,5.66,5.66,0,0,1-2.4-1.54,6.2,6.2,0,0,1-1.4-2.64,13.42,13.42,0,0,1-.46-3.76v-12.1H357.8l-.76-.61a5.69,5.69,0,0,1-.27-2.08l.07-1.29.2-.84.33-.43.46-.14h2.8v-5.26l.15-.48.52-.36,1-.21,1.61-.06,1.61.06,1,.21.54.36.15.48v5.26h5.14l.46.14.33.43.19.84.07,1.29a5.74,5.74,0,0,1-.26,2.08l-.77.61h-5.16v11.1a5.57,5.57,0,0,0,.61,2.9,2.38,2.38,0,0,0,2.17,1l1-.09.74-.22.56-.21.4-.08.31.08.24.37.13.76Z"/>
    <path class="cls-1" d="M414.59,285.66l0,1.12-.12.8-.21.57-.42.54-1.12.78-2.05.91a17,17,0,0,1-2.75.74,18.41,18.41,0,0,1-3.34.28,17.73,17.73,0,0,1-6.35-1.08,12.71,12.71,0,0,1-4.82-3.24,14.65,14.65,0,0,1-3-5.39,27.06,27.06,0,0,1,.1-15.27,16.55,16.55,0,0,1,3.26-5.69,13.73,13.73,0,0,1,5-3.49,16.78,16.78,0,0,1,6.44-1.19,16.46,16.46,0,0,1,2.75.23,17.85,17.85,0,0,1,2.45.63l2,.89,1.26.86.48.59.21.62.12.86.05,1.25-.06,1.34-.18.91-.32.49-.43.16-1-.45-1.57-1a12.67,12.67,0,0,0-2.3-1,9.75,9.75,0,0,0-3.19-.47,7.72,7.72,0,0,0-3.64.84,7.85,7.85,0,0,0-2.72,2.39,10.73,10.73,0,0,0-1.7,3.74,18.75,18.75,0,0,0-.59,4.94,19.18,19.18,0,0,0,.62,5.23,9.83,9.83,0,0,0,1.78,3.64A7.11,7.11,0,0,0,402,284.8a9.12,9.12,0,0,0,3.66.71,10.8,10.8,0,0,0,3.2-.44,14.75,14.75,0,0,0,2.32-1l1.58-1,1-.43.41.11.27.42.17.89Z"/>
    <path class="cls-1" d="M432.75,279.92h-2.53a13.51,13.51,0,0,0-2.75.24l-1.85.71-1,1.15-.34,1.56a3,3,0,0,0,.95,2.32,3.68,3.68,0,0,0,2.6.84,4.93,4.93,0,0,0,2.58-.71,10.3,10.3,0,0,0,2.38-2.09ZM439.29,290l-.26.58-.84.31-1.68.09-1.72-.09-.77-.31-.23-.58v-1.88a10.65,10.65,0,0,1-3.32,2.44,9.65,9.65,0,0,1-4.14.86,11.41,11.41,0,0,1-3.45-.49,7.43,7.43,0,0,1-2.72-1.46,6.35,6.35,0,0,1-1.79-2.38,8.09,8.09,0,0,1-.63-3.34,7.55,7.55,0,0,1,.8-3.59,6.46,6.46,0,0,1,2.42-2.51,12,12,0,0,1,4-1.47,29,29,0,0,1,5.53-.48h2.29v-1.42l-.21-1.94-.75-1.39-1.38-.83-2.12-.26a10.85,10.85,0,0,0-3,.37,18.33,18.33,0,0,0-2.3.82l-1.69.83-1.1.36-.51-.18-.38-.53-.21-.86-.09-1.09.13-1.31.51-.86,1.29-.85,2.18-.85a23.21,23.21,0,0,1,2.7-.66,18.9,18.9,0,0,1,3-.25,18,18,0,0,1,4.73.55,7.93,7.93,0,0,1,3.25,1.66,6.52,6.52,0,0,1,1.85,2.91,13.33,13.33,0,0,1,.58,4.19Z"/>
    <path class="cls-1" d="M461.09,268.54,461,270.1l-.15.95-.28.48-.44.12-.47-.08-.6-.2-.73-.2-.88-.09-1.09.22-1.16.71L454,273.28l-1.38,2V290l-.16.46-.54.33-1,.2-1.62.06-1.6-.06-1-.2-.54-.33-.17-.46V266.34l.13-.46.48-.33.89-.2,1.36-.06,1.4.06.86.2.44.33.12.46v3a20.34,20.34,0,0,1,1.75-2.2l1.57-1.36,1.48-.7,1.48-.19.74,0,.82.12.74.22.46.25.21.29.12.43.08.84Z"/>
    <path class="cls-1" d="M479.93,275.55a6.85,6.85,0,0,0-1.12-4.4,4.38,4.38,0,0,0-3.72-1.6l-2.2.47-1.56,1.28-1,1.91-.38,2.34Zm6.45,1.91-.54,1.8-1.5.58H470a10.11,10.11,0,0,0,.35,2.74l1.13,2.09,2,1.32a8.91,8.91,0,0,0,2.95.43,16.31,16.31,0,0,0,3.06-.24,19.75,19.75,0,0,0,2.29-.56l1.6-.56,1-.25.39.1.27.33.14.67,0,1.11,0,1-.08.7-.16.5-.28.38-.94.5-2,.63a27.38,27.38,0,0,1-2.71.52,22.9,22.9,0,0,1-3.29.22,17.14,17.14,0,0,1-5.52-.79,9.73,9.73,0,0,1-3.95-2.41,9.88,9.88,0,0,1-2.36-4.07,18.82,18.82,0,0,1-.78-5.77,17.85,17.85,0,0,1,.82-5.67,11.75,11.75,0,0,1,2.38-4.29,10.25,10.25,0,0,1,3.79-2.69,13.2,13.2,0,0,1,5-.93,13.46,13.46,0,0,1,5.07.87,9.28,9.28,0,0,1,3.45,2.43,9.9,9.9,0,0,1,2,3.66,15.81,15.81,0,0,1,.63,4.61Z"/>
    <path class="cls-1" d="M518.34,257.35l-.06,1.23-.15.71-.24.35-.3.09-.4-.09-.56-.21-.78-.19-1.06-.09-1.23.22-.85.71-.51,1.27-.16,1.92v2.18h4.31l.44.12.33.44.19.83.07,1.3a5.74,5.74,0,0,1-.26,2.08l-.77.62H512V290l-.16.47-.53.32-1,.2-1.61.07-1.6-.07-1-.2-.52-.32-.15-.47V270.84h-3l-.75-.62a6.64,6.64,0,0,1-.24-2.08l.06-1.3.18-.83.33-.44.45-.12h2.94v-2a16.48,16.48,0,0,1,.48-4.21,7.45,7.45,0,0,1,1.49-3A6.28,6.28,0,0,1,510,254.4a10.67,10.67,0,0,1,3.72-.6l2,.17,1.46.37.7.37.31.5.17.86Z"/>
    <path class="cls-1" d="M537.44,278.17a17.91,17.91,0,0,0-.27-3.22,7.89,7.89,0,0,0-.95-2.54l-1.76-1.7a5.6,5.6,0,0,0-2.77-.6,5.7,5.7,0,0,0-2.58.54l-1.83,1.58a7.6,7.6,0,0,0-1.06,2.52,14.07,14.07,0,0,0-.36,3.34,16.13,16.13,0,0,0,.29,3.22,8.18,8.18,0,0,0,.93,2.55l1.76,1.68a5.74,5.74,0,0,0,2.75.59,5.89,5.89,0,0,0,2.62-.54L536,284a7.4,7.4,0,0,0,1.06-2.5,15.35,15.35,0,0,0,.34-3.35m6.85-.26a18.27,18.27,0,0,1-.79,5.5,11.85,11.85,0,0,1-2.41,4.3,10.78,10.78,0,0,1-4.05,2.77,15.43,15.43,0,0,1-5.69,1,15.89,15.89,0,0,1-5.47-.87,10,10,0,0,1-3.87-2.54,10.58,10.58,0,0,1-2.26-4.11,18.82,18.82,0,0,1-.75-5.55,17.82,17.82,0,0,1,.82-5.52,11.19,11.19,0,0,1,2.42-4.28,10.69,10.69,0,0,1,4-2.78,15.06,15.06,0,0,1,5.67-1,15.93,15.93,0,0,1,5.5.85,9.66,9.66,0,0,1,3.85,2.53,10.39,10.39,0,0,1,2.25,4.1,19,19,0,0,1,.75,5.59"/>
    <path class="cls-1" d="M564.71,268.54l0,1.56-.17.95-.28.48-.44.12-.47-.08-.59-.2-.74-.2-.88-.09-1.09.22-1.16.71-1.24,1.27-1.39,2V290l-.16.46-.54.33-1,.2-1.62.06-1.6-.06-1-.2-.55-.33-.16-.46V266.34l.13-.46.48-.33.89-.2,1.36-.06,1.4.06.87.2.43.33.13.46v3a19.22,19.22,0,0,1,1.74-2.2l1.57-1.36L560,265l1.48-.19.74,0,.82.12.75.22.45.25.22.29.12.43.07.84Z"/>
    <polygon class="cls-1" points="601.74 288.12 601.67 289.4 601.47 290.23 601.14 290.7 600.71 290.85 583.51 290.85 582.04 290.33 581.45 288.65 581.45 258.8 582.04 257.12 583.51 256.61 600.6 256.61 601.02 256.73 601.33 257.2 601.54 258.05 601.6 259.36 601.54 260.61 601.33 261.44 601.02 261.91 600.6 262.05 588.38 262.05 588.38 270.41 598.72 270.41 599.15 270.57 599.49 271.02 599.68 271.84 599.75 273.1 599.68 274.37 599.49 275.17 599.15 275.61 598.72 275.74 588.38 275.74 588.38 285.39 600.71 285.39 601.14 285.54 601.47 286 601.67 286.84 601.74 288.12"/>
    <g>
      <path class="cls-1" d="M627.84,266.32l0,.32-.05.4-.1.52-.17.66-7.09,21.36-.36.73-.74.43-1.41.21c-.59,0-1.36.06-2.32.06s-1.69,0-2.28-.07l-1.39-.23-.73-.43-.35-.7-7.09-21.36-.25-1-.11-.61v-.34l.15-.47.52-.33,1-.19,1.63,0,1.74.07,1.06.18.54.34.25.54,5.37,17.33.17.66.15-.66,5.3-17.33.25-.54.54-.34,1-.18,1.62-.07,1.61,0,1,.19.48.33Z"/>
      <path class="cls-1" d="M646.61,275.55a6.79,6.79,0,0,0-1.13-4.4,4.37,4.37,0,0,0-3.71-1.6l-2.21.47L638,271.3l-1,1.91-.39,2.34Zm6.45,1.91-.54,1.8-1.5.58H636.66a10.11,10.11,0,0,0,.35,2.74l1.15,2.09,2,1.32a8.81,8.81,0,0,0,2.94.43,16.49,16.49,0,0,0,3.07-.24,21.41,21.41,0,0,0,2.29-.56l1.59-.56,1-.25.4.1.26.33.15.67,0,1.11,0,1-.09.7-.15.5-.29.38-.93.5-2,.63a27.38,27.38,0,0,1-2.71.52,22.9,22.9,0,0,1-3.29.22,17.08,17.08,0,0,1-5.51-.79,9.77,9.77,0,0,1-4-2.41,10.11,10.11,0,0,1-2.36-4.07,19.13,19.13,0,0,1-.78-5.77,18.13,18.13,0,0,1,.82-5.67,11.75,11.75,0,0,1,2.38-4.29,10.25,10.25,0,0,1,3.79-2.69,13.23,13.23,0,0,1,5-.93,13.43,13.43,0,0,1,5.07.87,9.28,9.28,0,0,1,3.45,2.43,9.76,9.76,0,0,1,2,3.66,15.81,15.81,0,0,1,.64,4.61Z"/>
      <path class="cls-1" d="M673.69,268.54l0,1.56-.17.95-.28.48-.44.12-.47-.08-.59-.2-.74-.2-.88-.09-1.09.22-1.16.71-1.24,1.27-1.39,2V290l-.16.46-.54.33-1,.2-1.62.06-1.6-.06-1-.2-.54-.33-.17-.46V266.34l.13-.46.48-.33.89-.2,1.36-.06,1.4.06.87.2.43.33.13.46v3a18.15,18.15,0,0,1,1.75-2.2l1.56-1.36L669,265l1.48-.19.74,0,.82.12.75.22.45.25.22.29.12.43.07.84Z"/>
      <path class="cls-1" d="M691.68,290.85l-2.86,8.36-1.29,1a12.21,12.21,0,0,1-3.1.29l-1.68-.09-1-.31-.36-.52.16-.77,3.16-7.91-.63-.49-.41-.7L675.6,268l-.34-1.4.31-.78,1.08-.37,2-.11,1.8,0,1,.21.56.48.37.94,5.55,15.8H688l5.08-16.11.41-.92.83-.32a11.85,11.85,0,0,1,2-.11l1.9.11,1.11.38.36.79-.21,1.15Z"/>
      <path class="cls-1" d="M720.13,278.17a17.88,17.88,0,0,0-.28-3.22,7.66,7.66,0,0,0-.94-2.54l-1.77-1.7a5.53,5.53,0,0,0-2.76-.6,5.77,5.77,0,0,0-2.59.54L710,272.23a7.82,7.82,0,0,0-1.07,2.52,14.1,14.1,0,0,0-.35,3.34,16.94,16.94,0,0,0,.28,3.22,8.19,8.19,0,0,0,.94,2.55l1.76,1.68a5.71,5.71,0,0,0,2.75.59,5.84,5.84,0,0,0,2.61-.54l1.84-1.57a7.61,7.61,0,0,0,1.06-2.5,15.35,15.35,0,0,0,.34-3.35m6.85-.26a18.27,18.27,0,0,1-.79,5.5,11.85,11.85,0,0,1-2.41,4.3,10.94,10.94,0,0,1-4,2.77,15.47,15.47,0,0,1-5.69,1,15.81,15.81,0,0,1-5.47-.87,10,10,0,0,1-3.87-2.54,10.33,10.33,0,0,1-2.26-4.11,18.82,18.82,0,0,1-.75-5.55,17.82,17.82,0,0,1,.81-5.52,11.46,11.46,0,0,1,2.42-4.28,10.73,10.73,0,0,1,4-2.78,15.06,15.06,0,0,1,5.67-1,15.93,15.93,0,0,1,5.5.85,9.63,9.63,0,0,1,3.84,2.53,10.29,10.29,0,0,1,2.26,4.1,19,19,0,0,1,.75,5.59"/>
      <path class="cls-1" d="M754.77,290l-.16.46-.52.34-1,.19-1.6.06-1.63-.06-1-.19-.53-.34-.17-.46V276.48a11.16,11.16,0,0,0-.25-2.7l-.73-1.68L745.93,271l-1.76-.4a4.45,4.45,0,0,0-2.56.93,14.3,14.3,0,0,0-2.71,2.7V290l-.15.46-.55.34-1,.19-1.61.06-1.62-.06-1-.19-.54-.34-.16-.46V266.34l.14-.46.47-.33.89-.2,1.35-.06,1.42.06.85.2.44.33.13.46v2.73a14.7,14.7,0,0,1,4-3.17,9,9,0,0,1,4.22-1.06,9.24,9.24,0,0,1,4.06.79,7.07,7.07,0,0,1,2.68,2.16,8.83,8.83,0,0,1,1.47,3.19,19.12,19.12,0,0,1,.44,4.39Z"/>
      <path class="cls-1" d="M776.65,275.55a6.79,6.79,0,0,0-1.13-4.4,4.36,4.36,0,0,0-3.71-1.6l-2.21.47L768,271.3l-.95,1.91-.39,2.34Zm6.45,1.91-.54,1.8-1.5.58H766.7a10.11,10.11,0,0,0,.35,2.74l1.15,2.09,2,1.32a8.85,8.85,0,0,0,2.94.43,16.49,16.49,0,0,0,3.07-.24,20.83,20.83,0,0,0,2.29-.56l1.6-.56,1-.25.4.1.26.33.15.67,0,1.11,0,1-.09.7-.15.5-.29.38-.93.5-2,.63a27.38,27.38,0,0,1-2.71.52,22.86,22.86,0,0,1-3.28.22,17,17,0,0,1-5.51-.79,9.7,9.7,0,0,1-4-2.41,10.12,10.12,0,0,1-2.37-4.07,19.13,19.13,0,0,1-.78-5.77,18.13,18.13,0,0,1,.83-5.67,11.74,11.74,0,0,1,2.37-4.29,10.25,10.25,0,0,1,3.79-2.69,13.27,13.27,0,0,1,5-.93,13.43,13.43,0,0,1,5.07.87,9.28,9.28,0,0,1,3.45,2.43,9.76,9.76,0,0,1,2,3.66,15.81,15.81,0,0,1,.64,4.61Z"/>
    </g>
    <polygon class="cls-1" points="757.37 18.54 755.73 23.74 782.29 23.74 783.93 18.54 757.37 18.54"/>
  </g>
</svg>
