<svg id="Layer_1" data-name="Layer 1" xmlns="http://www.w3.org/2000/svg" viewBox="0 0 400 400">
  <defs>
    <style>
      .cls-1 {
        fill: #ff9e18;
      }
    </style>
  </defs>
  <g>
    <path class="cls-1" d="M388.53,200h-6.47A182,182,0,1,1,328.74,71.26,181.48,181.48,0,0,1,382.06,200H395a195,195,0,1,0-57.11,137.89A194.47,194.47,0,0,0,395,200Z"/>
    <g>
      <path class="cls-1" d="M106.07,72.09a166.67,166.67,0,0,0-34.7-3.5l-2.69.1-.08,2.68a164.37,164.37,0,0,0,3.49,34.69c4,19.53,12.43,43.69,30.68,62,14.07,14,29.19,24.94,43.57,32,2.32,1.15,4.64,2.19,6.94,3.11a10.59,10.59,0,0,0,1,.43c1.23.51,2.48,1,3.69,1.4a84.13,84.13,0,0,0,9.58,2.78,55.33,55.33,0,0,0,15,1.34,35.5,35.5,0,0,0,4.93-.63,28.78,28.78,0,0,0,5.81-1.74,24.64,24.64,0,0,0,6.69-4.09c.46-.38.92-.82,1.35-1.25A17.53,17.53,0,0,0,202.6,200a24.59,24.59,0,0,0,4.1-6.71,29,29,0,0,0,1.74-5.79,34.51,34.51,0,0,0,.63-4.95c.52-8.72-1.59-18.71-5.94-29.29-.95-2.27-2-4.59-3.13-6.92-.3-.62-.61-1.26-.93-1.88-7.07-13.81-17.62-28.26-31.06-41.7C149.74,84.53,125.58,76.08,106.07,72.09ZM159.77,103l-23.54-2.87-1.59-13A100.7,100.7,0,0,1,159.77,103ZM78.51,74.46a170.26,170.26,0,0,1,17.82,1.73l2.21,18.29Zm26.63,26.62-2.9-23.89c1.16.22,2.35.46,3.57.71,1.93.4,3.93.86,6,1.36l3.93,32.37Zm17.14,17.14-4.54-37.33c3.57,1.07,7.18,2.27,10.82,3.67L130.8,103l2.14,17.82,1.12,9.17Zm25.32,25.33,10.72,1.29,1.28,10.71Zm18.6,18.59-2-16.59,9.43,1.14,3.14,26Zm17.14,17.15-3.87-31.88L190,148.68l2.3,19,2.83,23.37Zm-1.13,24.05a49.57,49.57,0,0,1-14.28-1.44l-.11,0c-2.11-.52-4.28-1.14-6.48-1.89l0,0c-2.62-.87-5.32-1.91-8-3.13q-3.08-1.32-6.19-2.94c-13.19-6.74-27.21-16.94-40.25-30-17.07-17-25.27-40.14-29.12-59.05A173.26,173.26,0,0,1,74.57,81.1c0-.93-.08-1.78-.12-2.58L195.08,199.15A24.16,24.16,0,0,1,182.21,203.34Zm9.6-60.22L141,137l-.36-.37-1.57-12.81,43.81,5.32A146.13,146.13,0,0,1,191.81,143.12Zm-53.43-25.21-1.45-12,29.7,3.61c4.15,4.31,8,8.74,11.49,13.16ZM200,161.36c-.16-.49-.31-1-.49-1.44-.76-2.17-1.65-4.39-2.62-6.63-.26-.56-.51-1.13-.76-1.68l.32,2.7,1.65,13.63Z"/>
      <path class="cls-1" d="M253.65,200c-2.31-1.15-4.63-2.2-6.93-3.12a10.59,10.59,0,0,0-1-.43c-1.23-.5-2.48-1-3.7-1.4a77.58,77.58,0,0,0-9.6-2.77,54.79,54.79,0,0,0-15-1.37,31.48,31.48,0,0,0-4.93.65,28.42,28.42,0,0,0-5.8,1.73,24.76,24.76,0,0,0-6.7,4.11c-.46.38-.92.81-1.35,1.24A17.82,17.82,0,0,0,197.4,200a24.64,24.64,0,0,0-4.09,6.69,29.45,29.45,0,0,0-1.75,5.81,34,34,0,0,0-.63,4.91c-.53,8.74,1.58,18.73,5.93,29.31.95,2.27,2,4.58,3.13,6.92.29.62.62,1.27.94,1.89,7.06,13.8,17.61,28.25,31,41.69,18.27,18.24,42.43,26.69,62,30.68a162.86,162.86,0,0,0,34.69,3.49l2.68-.09.09-2.69a164.77,164.77,0,0,0-3.48-34.68c-4-19.53-12.46-43.69-30.7-62C283.18,217.94,268,207.05,253.65,200Zm-31.78,77.26,39.75,4.8,1.43,12-29.67-3.62Q227.14,284,221.87,277.27Zm18.36,19.8,23.54,2.84,1.57,13A100.91,100.91,0,0,1,240.23,297.07Zm81.26,28.49a171.16,171.16,0,0,1-17.82-1.76l-2.22-18.28Zm-26.63-26.63,2.89,23.88c-1.17-.22-2.34-.45-3.55-.7-1.95-.41-3.94-.89-6-1.39l-3.94-32.35Zm-17.14-17.14,4.54,37.31c-3.57-1-7.19-2.26-10.82-3.67L269.2,297l-2.15-17.84L265.94,270Zm-18.38-18.38,1.56,12.8-43.81-5.32a144.78,144.78,0,0,1-8.91-14l50.8,6.16Zm-6.94-6.94-10.7-1.3-1.32-10.72Zm-18.6-18.6,2,16.58-9.4-1.14-3.17-26Zm-17.14-17.14,3.86,31.86L210,251.32l-2.3-18.93L204.88,209Zm105.63,74.34a173.82,173.82,0,0,1,3.13,23.83c.06.93.1,1.78.13,2.6L204.92,200.86a24,24,0,0,1,12.86-4.2,49.7,49.7,0,0,1,14.29,1.45c2.14.52,4.33,1.14,6.58,1.9,2.63.86,5.32,1.91,8.07,3.11,2.05.88,4.1,1.86,6.2,2.93,13.19,6.74,27.2,16.95,40.24,30C310.23,253.09,318.44,276.2,322.29,295.07ZM200,238.67c.16.46.31.93.48,1.41.76,2.17,1.66,4.39,2.63,6.63.26.56.5,1.13.76,1.68l-.33-2.7-1.65-13.6Z"/>
      <path class="cls-1" d="M328.63,68.59a166.67,166.67,0,0,0-34.7,3.5c-19.51,4-43.67,12.44-61.94,30.68-14.05,14-24.93,29.19-32,43.58q-1.73,3.48-3.11,6.94a10.44,10.44,0,0,0-.44,1c-.5,1.24-1,2.48-1.39,3.7a87.41,87.41,0,0,0-2.78,9.68,54.53,54.53,0,0,0-1.35,14.87,35.32,35.32,0,0,0,.62,4.93,29.4,29.4,0,0,0,1.76,5.83A24.64,24.64,0,0,0,197.4,200a17.53,17.53,0,0,0,1.25,1.35c.43.43.88.85,1.35,1.25a24.64,24.64,0,0,0,6.69,4.09,29.85,29.85,0,0,0,5.81,1.74,35.5,35.5,0,0,0,4.93.63c8.73.53,18.71-1.6,29.29-5.95,2.29-.93,4.61-2,6.93-3.11.63-.3,1.26-.61,1.89-.94,13.81-7.07,28.25-17.6,41.69-31,18.23-18.26,26.7-42.43,30.68-62a164.37,164.37,0,0,0,3.49-34.69l-.08-2.68Zm-96.24,123.7L209,195.12l11.77-11.77,31.88-3.87L251.33,190Zm22.06-28.1-1.15,9.41-26,3.15,10.55-10.54Zm-10-4.58,12-12-1.3,10.7Zm12.43,32.2L263,141l.37-.37,12.81-1.57-5.33,43.81A142.2,142.2,0,0,1,256.89,191.81Zm33.53-25.18c-4.3,4.14-8.72,8-13.16,11.48l4.82-39.73,12-1.44Zm6.64-6.86,2.86-23.55,13-1.56A100.73,100.73,0,0,1,297.06,159.77Zm18.38-31.21L297,130.81,279.16,133,270,134.07l11.78-11.78,37.31-4.54C318.05,121.31,316.84,124.93,315.44,128.56Zm6.66-22.75c-.41,2-.87,3.92-1.37,5.94l-32.35,3.94,10.55-10.55,23.89-2.9Q322.49,104,322.1,105.81Zm1.7-9.48-18.28,2.22,20-20A168.08,168.08,0,0,1,323.8,96.33Zm-123,98.76a24.08,24.08,0,0,1-4.18-12.88,49.85,49.85,0,0,1,1.43-14.27c.52-2.14,1.14-4.33,1.9-6.58.87-2.63,1.91-5.35,3.13-8.09.88-2,1.87-4.11,2.92-6.2,6.75-13.19,17-27.19,30-40.23,17-17.07,40.14-25.27,59-29.13a171.76,171.76,0,0,1,23.82-3.13c.92-.06,1.78-.1,2.59-.12Zm37.8,4.92c.49-.17,1-.31,1.44-.49,2.16-.76,4.38-1.65,6.63-2.63.56-.26,1.13-.5,1.68-.76l-2.71.33-13.62,1.65Z"/>
      <path class="cls-1" d="M167.82,201.88,161.34,200l0,0c-.46.16-.92.29-1.39.47-2.17.76-4.4,1.64-6.65,2.64-.56.23-1.13.5-1.68.76l2.71-.33,13.62-1.65ZM200,197.41a24.39,24.39,0,0,0-6.69-4.09,28,28,0,0,0-5.82-1.76,39.12,39.12,0,0,0-4.92-.64c-8.73-.53-18.71,1.6-29.3,6-2.29.93-4.6,2-6.93,3.13l-1.88.93c-13.81,7.07-28.25,17.61-41.68,31-18.24,18.27-26.69,42.43-30.7,62a164.77,164.77,0,0,0-3.48,34.68l.09,2.69,2.68.09a162.86,162.86,0,0,0,34.69-3.49c19.54-4,43.7-12.44,62-30.68,14-14.06,24.91-29.2,32-43.58q1.72-3.48,3.11-6.94a10.4,10.4,0,0,0,.43-1c.51-1.24,1-2.48,1.4-3.7a84.7,84.7,0,0,0,2.78-9.6,54.42,54.42,0,0,0,1.36-15,36.85,36.85,0,0,0-.62-4.9,30.69,30.69,0,0,0-1.76-5.82A24.64,24.64,0,0,0,202.6,200a17.82,17.82,0,0,0-1.25-1.36C200.92,198.22,200.46,197.79,200,197.41Zm-32.42,10.32,23.48-2.85-11.78,11.78-31.88,3.88L148.69,210Zm-22,28.1,1.13-9.43,26-3.15-10.56,10.56Zm10,4.56-12,12,1.29-10.71Zm-12.44-32.22L137,259l-.37.37-12.79,1.56,5.29-43.81A153.26,153.26,0,0,1,143.11,208.17Zm-33.55,25.21c4.32-4.16,8.74-8,13.18-11.5l-4.82,39.73-12,1.45Zm-6.62,6.86-2.86,23.52-13,1.58A101.7,101.7,0,0,1,102.94,240.24ZM84.56,271.43,103,269.21l17.83-2.15,9.16-1.12-11.78,11.79-37.33,4.52C81.94,278.69,83.16,275.06,84.56,271.43Zm-6.67,22.76c.42-1.93.88-3.94,1.38-5.95l32.37-3.93-10.57,10.56-23.89,2.9C77.41,296.59,77.64,295.41,77.89,294.19Zm-1.69,9.47,18.29-2.21-20,20.05A171.49,171.49,0,0,1,76.2,303.66Zm125.68-71.57q-.76,3.21-1.89,6.58-1.31,3.95-3.13,8.06c-.87,2-1.86,4.1-2.91,6.19-6.75,13.19-16.95,27.2-30,40.25-17.05,17.07-40.15,25.28-59.05,29.12a168,168,0,0,1-23.81,3.12c-.94.07-1.79.11-2.59.15L199.15,204.92a24,24,0,0,1,4.19,12.87A49.45,49.45,0,0,1,201.88,232.09Z"/>
    </g>
  </g>
</svg>
